<svg width="44" height="50" viewBox="0 0 44 50" fill="none" xmlns="http://www.w3.org/2000/svg">
<path d="M23.3177 20.6164C23.9843 20.2314 24.8178 20.7125 24.8178 21.4824V26.1728C24.8178 26.53 24.6273 26.86 24.3179 27.0387L20.2579 29.3836C19.5913 29.7686 18.7578 29.2875 18.7578 28.5176V23.8272C18.7578 23.47 18.9484 23.14 19.2577 22.9613L23.3177 20.6164Z" stroke="white" stroke-width="2"/>
<path d="M41.5702 37.5774C42.1889 37.2201 42.57 36.5599 42.57 35.8454V14.1546C42.57 13.4401 42.1889 12.7799 41.5702 12.4226L22.7899 1.57743C22.1712 1.22012 21.4088 1.22004 20.79 1.57723L2.0002 12.4227C1.38128 12.7799 1 13.4402 1 14.1549V35.8451C1 36.5598 1.38128 37.2201 2.00019 37.5773L20.79 48.4228C21.4088 48.78 22.1712 48.7799 22.7899 48.4226L41.5702 37.5774Z" stroke="white" stroke-width="2"/>
<path d="M32.9121 32.5774C33.5308 32.2201 33.9119 31.5599 33.9119 30.8455V19.1545C33.9119 18.4401 33.5308 17.7799 32.9121 17.4226L22.7921 11.5777C22.1732 11.2202 21.4105 11.2202 20.7916 11.5777L10.6716 17.4226C10.053 17.7799 9.67188 18.4401 9.67188 19.1545V30.8455C9.67188 31.5599 10.053 32.2201 10.6716 32.5774L20.7916 38.4223C21.4105 38.7798 22.1732 38.7798 22.7921 38.4223L32.9121 32.5774Z" stroke="white" stroke-width="2"/>
</svg>
