<svg width="68" height="68" viewBox="0 0 68 68" fill="none" xmlns="http://www.w3.org/2000/svg">
<g clip-path="url(#clip0_823_5130)">
<path d="M32.409 10.134C33.2877 9.25528 34.7123 9.25528 35.591 10.134V10.134C36.4697 11.0126 36.4697 12.4373 35.591 13.3159V13.3159C34.7123 14.1946 33.2877 14.1946 32.409 13.3159V13.3159C31.5303 12.4373 31.5303 11.0126 32.409 10.134V10.134Z" stroke="white"/>
<path d="M39.8309 17.5597C40.7096 16.6811 42.1342 16.6811 43.0129 17.5597V17.5597C43.8915 18.4384 43.8915 19.863 43.0129 20.7417V20.7417C42.1342 21.6204 40.7096 21.6204 39.8309 20.7417V20.7417C38.9522 19.863 38.9522 18.4384 39.8309 17.5597V17.5597Z" stroke="white"/>
<path d="M47.2606 24.9836C48.1393 24.1049 49.5639 24.1049 50.4426 24.9836V24.9836C51.3212 25.8622 51.3212 27.2869 50.4426 28.1655V28.1655C49.5639 29.0442 48.1393 29.0442 47.2606 28.1655V28.1655C46.3819 27.2869 46.3819 25.8622 47.2606 24.9836V24.9836Z" stroke="white"/>
<path d="M55.7431 33.4698C56.036 33.1769 56.5109 33.1769 56.8038 33.4698V33.4698C57.0967 33.7627 57.0967 34.2376 56.8038 34.5304V34.5304C56.5109 34.8233 56.036 34.8233 55.7431 34.5304V34.5304C55.4502 34.2376 55.4502 33.7627 55.7431 33.4698V33.4698Z" stroke="white"/>
<path d="M11.1962 33.4698C11.4891 33.1769 11.964 33.1769 12.2569 33.4698V33.4698C12.5498 33.7627 12.5498 34.2376 12.2569 34.5304V34.5304C11.964 34.8233 11.4891 34.8233 11.1962 34.5304V34.5304C10.9033 34.2376 10.9033 33.7627 11.1962 33.4698V33.4698Z" stroke="white"/>
<path d="M18.6181 40.8936C18.911 40.6007 19.3859 40.6007 19.6788 40.8936V40.8936C19.9717 41.1865 19.9717 41.6614 19.6788 41.9543V41.9543C19.3859 42.2472 18.911 42.2472 18.6181 41.9543V41.9543C18.3252 41.6614 18.3252 41.1865 18.6181 40.8936V40.8936Z" stroke="white"/>
<path d="M26.0478 48.3194C26.3407 48.0265 26.8156 48.0265 27.1085 48.3194V48.3194C27.4013 48.6123 27.4013 49.0872 27.1085 49.3801V49.3801C26.8156 49.6729 26.3407 49.6729 26.0478 49.3801V49.3801C25.7549 49.0872 25.7549 48.6123 26.0478 48.3194V48.3194Z" stroke="white"/>
<path d="M33.4697 55.7432C33.7626 55.4503 34.2374 55.4503 34.5303 55.7432V55.7432C34.8232 56.0361 34.8232 56.511 34.5303 56.8039V56.8039C34.2374 57.0968 33.7626 57.0968 33.4697 56.8039V56.8039C33.1768 56.511 33.1768 56.0361 33.4697 55.7432V55.7432Z" stroke="white"/>
<path d="M28.1691 17.5597C29.0478 18.4384 29.0478 19.863 28.1691 20.7417V20.7417C27.2904 21.6204 25.8658 21.6204 24.9871 20.7417V20.7417C24.1085 19.863 24.1085 18.4384 24.9871 17.5597V17.5597C25.8658 16.6811 27.2904 16.6811 28.1691 17.5597V17.5597Z" stroke="white"/>
<path d="M20.7394 24.9836C21.6181 25.8622 21.6181 27.2869 20.7394 28.1655V28.1655C19.8607 29.0442 18.4361 29.0442 17.5574 28.1655V28.1655C16.6788 27.2869 16.6788 25.8622 17.5574 24.9836V24.9836C18.4361 24.1049 19.8607 24.1049 20.7394 24.9836V24.9836Z" stroke="white"/>
<path d="M35.591 24.9836C36.4697 25.8622 36.4697 27.2869 35.591 28.1655V28.1655C34.7123 29.0442 33.2877 29.0442 32.409 28.1655V28.1655C31.5303 27.2869 31.5303 25.8622 32.409 24.9836V24.9836C33.2877 24.1049 34.7123 24.1049 35.591 24.9836V24.9836Z" stroke="white"/>
<path d="M27.1085 33.4698C27.4013 33.7627 27.4013 34.2376 27.1085 34.5304V34.5304C26.8156 34.8233 26.3407 34.8233 26.0478 34.5304V34.5304C25.7549 34.2376 25.7549 33.7627 26.0478 33.4698V33.4698C26.3407 33.1769 26.8156 33.1769 27.1085 33.4698V33.4698Z" stroke="white"/>
<path d="M41.9522 33.4698C42.2451 33.7627 42.2451 34.2376 41.9522 34.5304V34.5304C41.6593 34.8233 41.1844 34.8233 40.8915 34.5304V34.5304C40.5987 34.2376 40.5987 33.7627 40.8915 33.4698V33.4698C41.1844 33.1769 41.6593 33.1769 41.9522 33.4698V33.4698Z" stroke="white"/>
<path d="M34.5303 40.8936C34.8232 41.1865 34.8232 41.6614 34.5303 41.9543V41.9543C34.2374 42.2472 33.7626 42.2472 33.4697 41.9543V41.9543C33.1768 41.6614 33.1768 41.1865 33.4697 40.8936V40.8936C33.7626 40.6007 34.2374 40.6007 34.5303 40.8936V40.8936Z" stroke="white"/>
<path d="M49.3819 40.8936C49.6748 41.1865 49.6748 41.6614 49.3819 41.9543V41.9543C49.089 42.2472 48.6141 42.2472 48.3212 41.9543V41.9543C48.0283 41.6614 48.0283 41.1865 48.3212 40.8936V40.8936C48.6141 40.6007 49.089 40.6007 49.3819 40.8936V40.8936Z" stroke="white"/>
<path d="M41.9522 48.3194C42.2451 48.6123 42.2451 49.0872 41.9522 49.3801V49.3801C41.6593 49.6729 41.1844 49.6729 40.8915 49.3801V49.3801C40.5987 49.0872 40.5987 48.6123 40.8915 48.3194V48.3194C41.1844 48.0265 41.6593 48.0265 41.9522 48.3194V48.3194Z" stroke="white"/>
</g>
<defs>
<clipPath id="clip0_823_5130">
<rect width="48" height="48" fill="white" transform="translate(34 0.0585938) rotate(45)"/>
</clipPath>
</defs>
</svg>
