<svg width="48" height="49" viewBox="0 0 48 49" fill="none" xmlns="http://www.w3.org/2000/svg">
<rect width="48" height="48" rx="24" fill="#0047FF"/>
<g filter="url(#filter0_d_928_5821)">
<path d="M40 26C40 34.8366 32.8366 32.3333 24 32.3333C15.1634 32.3333 8 34.8366 8 26C8 17.1634 15.1634 10 24 10C32.8366 10 40 17.1634 40 26Z" fill="#6C95FF"/>
<path d="M39 26C39 28.0913 38.5738 29.3309 37.963 30.0913C37.3637 30.8374 36.4615 31.277 35.1506 31.4938C33.8216 31.7135 32.1969 31.6845 30.2783 31.5877C29.8453 31.5658 29.3981 31.5406 28.9389 31.5146C27.4004 31.4278 25.7272 31.3333 24 31.3333C22.2728 31.3333 20.5996 31.4278 19.0611 31.5146C18.6019 31.5406 18.1547 31.5658 17.7217 31.5877C15.8031 31.6845 14.1784 31.7135 12.8494 31.4938C11.5385 31.277 10.6363 30.8374 10.037 30.0913C9.42623 29.3309 9 28.0913 9 26C9 17.7157 15.7157 11 24 11C32.2843 11 39 17.7157 39 26Z" stroke="#EBF0FF" stroke-width="2"/>
<path d="M39 26C39 28.0913 38.5738 29.3309 37.963 30.0913C37.3637 30.8374 36.4615 31.277 35.1506 31.4938C33.8216 31.7135 32.1969 31.6845 30.2783 31.5877C29.8453 31.5658 29.3981 31.5406 28.9389 31.5146C27.4004 31.4278 25.7272 31.3333 24 31.3333C22.2728 31.3333 20.5996 31.4278 19.0611 31.5146C18.6019 31.5406 18.1547 31.5658 17.7217 31.5877C15.8031 31.6845 14.1784 31.7135 12.8494 31.4938C11.5385 31.277 10.6363 30.8374 10.037 30.0913C9.42623 29.3309 9 28.0913 9 26C9 17.7157 15.7157 11 24 11C32.2843 11 39 17.7157 39 26Z" stroke="#052577" stroke-width="2"/>
</g>
<g filter="url(#filter1_d_928_5821)">
<path d="M34 30.666C34 36.1889 29.5228 37.9993 24 37.9993C18.4772 37.9993 14 36.1889 14 30.666C14 25.1432 18.4772 22.666 24 22.666C29.5228 22.666 34 25.1432 34 30.666Z" fill="white"/>
<path d="M24 38.9993C26.8402 38.9993 29.5627 38.5392 31.6051 37.2492C33.721 35.9128 35 33.751 35 30.666C35 27.5948 33.7356 25.2889 31.6573 23.7848C29.6219 22.3118 26.8916 21.666 24 21.666C21.1084 21.666 18.3781 22.3118 16.3427 23.7848C14.2644 25.2889 13 27.5948 13 30.666C13 33.751 14.279 35.9128 16.3949 37.2492C18.4373 38.5392 21.1598 38.9993 24 38.9993Z" stroke="#EBF0FF" stroke-width="2"/>
<path d="M24 38.9993C26.8402 38.9993 29.5627 38.5392 31.6051 37.2492C33.721 35.9128 35 33.751 35 30.666C35 27.5948 33.7356 25.2889 31.6573 23.7848C29.6219 22.3118 26.8916 21.666 24 21.666C21.1084 21.666 18.3781 22.3118 16.3427 23.7848C14.2644 25.2889 13 27.5948 13 30.666C13 33.751 14.279 35.9128 16.3949 37.2492C18.4373 38.5392 21.1598 38.9993 24 38.9993Z" stroke="#052577" stroke-width="2"/>
</g>
<circle cx="20" cy="30.666" r="2" fill="#052577"/>
<circle cx="27.3359" cy="30.666" r="2" fill="#052577"/>
<defs>
<filter id="filter0_d_928_5821" x="0" y="3" width="48" height="38.6602" filterUnits="userSpaceOnUse" color-interpolation-filters="sRGB">
<feFlood flood-opacity="0" result="BackgroundImageFix"/>
<feColorMatrix in="SourceAlpha" type="matrix" values="0 0 0 0 0 0 0 0 0 0 0 0 0 0 0 0 0 0 127 0" result="hardAlpha"/>
<feOffset dy="1"/>
<feGaussianBlur stdDeviation="4"/>
<feComposite in2="hardAlpha" operator="out"/>
<feColorMatrix type="matrix" values="0 0 0 0 0.00347221 0 0 0 0 0.161146 0 0 0 0 0.833333 0 0 0 1 0"/>
<feBlend mode="normal" in2="BackgroundImageFix" result="effect1_dropShadow_928_5821"/>
<feBlend mode="normal" in="SourceGraphic" in2="effect1_dropShadow_928_5821" result="shape"/>
</filter>
<filter id="filter1_d_928_5821" x="4" y="13.666" width="40" height="35.334" filterUnits="userSpaceOnUse" color-interpolation-filters="sRGB">
<feFlood flood-opacity="0" result="BackgroundImageFix"/>
<feColorMatrix in="SourceAlpha" type="matrix" values="0 0 0 0 0 0 0 0 0 0 0 0 0 0 0 0 0 0 127 0" result="hardAlpha"/>
<feOffset dy="1"/>
<feGaussianBlur stdDeviation="4"/>
<feComposite in2="hardAlpha" operator="out"/>
<feColorMatrix type="matrix" values="0 0 0 0 0.00347221 0 0 0 0 0.161146 0 0 0 0 0.833333 0 0 0 1 0"/>
<feBlend mode="normal" in2="BackgroundImageFix" result="effect1_dropShadow_928_5821"/>
<feBlend mode="normal" in="SourceGraphic" in2="effect1_dropShadow_928_5821" result="shape"/>
</filter>
</defs>
</svg>
