<svg width="24" height="24" viewBox="0 0 24 24" fill="none" xmlns="http://www.w3.org/2000/svg">
<path d="M24 12.7522C24 19.795 18.6274 17.7999 12 17.7999C5.37258 17.7999 0 19.795 0 12.7522C0 5.70934 5.37258 0 12 0C18.6274 0 24 5.70934 24 12.7522Z" fill="#EEEEEE"/>
<path fill-rule="evenodd" clip-rule="evenodd" d="M22.1474 15.7357C22.5226 15.2393 22.8333 14.3668 22.8333 12.7522C22.8333 6.39406 17.9831 1.23979 12 1.23979C6.01691 1.23979 1.16667 6.39406 1.16667 12.7522C1.16667 14.3668 1.47739 15.2393 1.85259 15.7357C2.21446 16.2144 2.77881 16.5312 3.70504 16.6939C4.65225 16.8603 5.82945 16.8406 7.27025 16.7634C7.59033 16.7462 7.92255 16.7263 8.2649 16.7057C9.42055 16.6364 10.6916 16.5601 12 16.5601C13.3084 16.5601 14.5794 16.6364 15.7351 16.7057C16.0774 16.7263 16.4097 16.7462 16.7297 16.7634C18.1705 16.8406 19.3478 16.8603 20.295 16.6939C21.2212 16.5312 21.7855 16.2144 22.1474 15.7357ZM15.6485 17.9424C20.492 18.2328 24 18.4432 24 12.7522C24 5.70934 18.6274 0 12 0C5.37258 0 0 5.70934 0 12.7522C0 18.4432 3.50805 18.2328 8.35152 17.9424C9.50204 17.8734 10.7279 17.7999 12 17.7999C13.2721 17.7999 14.498 17.8734 15.6485 17.9424Z" fill="#404040"/>
<path d="M19.6719 16.295C19.6719 20.6968 16.314 22.1398 12.1719 22.1398C8.02974 22.1398 4.67188 20.6968 4.67188 16.295C4.67188 11.8933 8.02974 9.91895 12.1719 9.91895C16.314 9.91895 19.6719 11.8933 19.6719 16.295Z" fill="#EEEEEE"/>
<path fill-rule="evenodd" clip-rule="evenodd" d="M18.4097 22.4407C16.6452 23.625 14.3807 23.9998 12.1719 23.9998C9.96301 23.9998 7.69855 23.625 5.93406 22.4407C4.04086 21.17 2.92188 19.0979 2.92188 16.2953C2.92188 13.5183 4.0153 11.3554 5.84259 9.95009C7.59499 8.60238 9.87299 8.05957 12.1719 8.05957C14.4708 8.05957 16.7488 8.60238 18.5012 9.95009C20.3284 11.3554 21.4219 13.5183 21.4219 16.2953C21.4219 19.0979 20.3029 21.17 18.4097 22.4407ZM12.1719 22.1401C16.314 22.1401 19.6719 20.6971 19.6719 16.2953C19.6719 11.8936 16.314 9.91926 12.1719 9.91926C8.02974 9.91926 4.67188 11.8936 4.67188 16.2953C4.67188 20.6971 8.02974 22.1401 12.1719 22.1401Z" fill="#404040"/>
<path d="M10.5 16.4719C10.5 17.3523 9.82843 18.066 9 18.066C8.17157 18.066 7.5 17.3523 7.5 16.4719C7.5 15.5916 8.17157 14.8779 9 14.8779C9.82843 14.8779 10.5 15.5916 10.5 16.4719Z" fill="#404040"/>
<path d="M16 16.4719C16 17.3523 15.3284 18.066 14.5 18.066C13.6716 18.066 13 17.3523 13 16.4719C13 15.5916 13.6716 14.8779 14.5 14.8779C15.3284 14.8779 16 15.5916 16 16.4719Z" fill="#404040"/>
</svg>
