<svg width="30" height="30" viewBox="0 0 30 30" fill="none" xmlns="http://www.w3.org/2000/svg">
<path fill-rule="evenodd" clip-rule="evenodd" d="M3 15.0001C3 8.37612 8.364 3.00012 15 3.00012C21.624 3.00012 27 8.37612 27 15.0001C27 21.6361 21.624 27.0001 15 27.0001C8.364 27.0001 3 21.6361 3 15.0001ZM17.676 17.1961L19.62 11.0521C19.752 10.6321 19.368 10.2361 18.948 10.3681L12.804 12.2881C12.552 12.3721 12.348 12.5641 12.276 12.8161L10.356 18.9721C10.224 19.3801 10.62 19.7761 11.028 19.6441L17.148 17.7241C17.4 17.6521 17.604 17.4481 17.676 17.1961Z" fill="white"/>
</svg>
