<svg width="24" height="24" viewBox="0 0 24 24" fill="none" xmlns="http://www.w3.org/2000/svg">
<path opacity="0.4" d="M1.53906 3.61523C1.53906 2.51066 2.43449 1.61523 3.53906 1.61523H8.4624C9.56697 1.61523 10.4624 2.51066 10.4624 3.61523V8.53857C10.4624 9.64314 9.56697 10.5386 8.4624 10.5386H3.53906C2.43449 10.5386 1.53906 9.64314 1.53906 8.53857V3.61523Z" fill="white"/>
<path opacity="0.4" d="M13.4609 15.5391C13.4609 14.4345 14.3564 13.5391 15.4609 13.5391H20.3843C21.4888 13.5391 22.3843 14.4345 22.3843 15.5391V20.4624C22.3843 21.567 21.4888 22.4624 20.3843 22.4624H15.4609C14.3564 22.4624 13.4609 21.567 13.4609 20.4624V15.5391Z" fill="white"/>
<circle cx="17.9226" cy="6.0769" r="4.46166" fill="white"/>
<circle cx="6.00073" cy="18.0007" r="4.46166" fill="white"/>
</svg>
