<svg width="22" height="18" viewBox="0 0 22 18" fill="none" xmlns="http://www.w3.org/2000/svg">
<path fill-rule="evenodd" clip-rule="evenodd" d="M10.9999 0.749756L18.2736 0.955409C19.5588 0.991747 20.6218 1.9674 20.7679 3.2448C21.0915 6.07241 21.0915 8.9277 20.7679 11.7553C20.6218 13.0327 19.5588 14.0084 18.2736 14.0447L12.2499 14.215V16.2501H15.9999C16.4142 16.2501 16.7499 16.5858 16.7499 17.0001C16.7499 17.4143 16.4142 17.7501 15.9999 17.7501H5.99994C5.58573 17.7501 5.24994 17.4143 5.24994 17.0001C5.24994 16.5858 5.58573 16.2501 5.99994 16.2501H9.74994V14.215L3.72629 14.0447C2.44108 14.0084 1.37806 13.0327 1.2319 11.7553C0.908376 8.9277 0.908376 6.07241 1.2319 3.2448C1.37806 1.9674 2.44108 0.991747 3.7263 0.955409L10.9999 0.749756ZM3.99994 10.7501C3.58573 10.7501 3.24994 11.0858 3.24994 11.5001C3.24994 11.9143 3.58573 12.2501 3.99994 12.2501H17.9999C18.4142 12.2501 18.7499 11.9143 18.7499 11.5001C18.7499 11.0858 18.4142 10.7501 17.9999 10.7501H3.99994Z" fill="#7C7882"/>
</svg>
