<svg width="40" height="40" viewBox="0 0 40 40" fill="none" xmlns="http://www.w3.org/2000/svg">
<circle cx="16" cy="16" r="16" fill="url(#paint0_linear_1_324)"/>
<path d="M22.2477 10.1709C21.0825 9.6257 19.8367 9.2295 18.5342 9.00391C18.3742 9.29311 18.1873 9.68211 18.0585 9.99155C16.6739 9.78332 15.302 9.78332 13.9429 9.99155C13.814 9.68211 13.6229 9.29311 13.4615 9.00391C12.1576 9.2295 10.9103 9.62716 9.74514 10.1737C7.39498 13.7251 6.75789 17.1883 7.07644 20.6024C8.63519 21.7664 10.1458 22.4735 11.6309 22.9362C11.9976 22.4316 12.3247 21.8951 12.6064 21.3297C12.0698 21.1258 11.5559 20.8742 11.0703 20.5821C11.1991 20.4867 11.3251 20.3869 11.4469 20.2842C14.4086 21.6695 17.6267 21.6695 20.5531 20.2842C20.6762 20.3869 20.8022 20.4867 20.9296 20.5821C20.4426 20.8756 19.9273 21.1273 19.3907 21.3312C19.6724 21.8951 19.9981 22.433 20.3662 22.9377C21.8527 22.4749 23.3647 21.7678 24.9235 20.6024C25.2973 16.6446 24.285 13.2133 22.2477 10.1709ZM13.0099 18.5028C12.1208 18.5028 11.3917 17.6727 11.3917 16.662C11.3917 15.6512 12.1052 14.8198 13.0099 14.8198C13.9146 14.8198 14.6437 15.6498 14.6281 16.662C14.6295 17.6727 13.9146 18.5028 13.0099 18.5028ZM18.9901 18.5028C18.101 18.5028 17.3718 17.6727 17.3718 16.662C17.3718 15.6512 18.0854 14.8198 18.9901 14.8198C19.8947 14.8198 20.6238 15.6498 20.6083 16.662C20.6083 17.6727 19.8947 18.5028 18.9901 18.5028Z" fill="white"/>
<g filter="url(#filter0_d_1_324)">
<rect x="24" y="24" width="8" height="8" rx="4" fill="#00FF75"/>
</g>
<defs>
<filter id="filter0_d_1_324" x="16" y="16" width="24" height="24" filterUnits="userSpaceOnUse" color-interpolation-filters="sRGB">
<feFlood flood-opacity="0" result="BackgroundImageFix"/>
<feColorMatrix in="SourceAlpha" type="matrix" values="0 0 0 0 0 0 0 0 0 0 0 0 0 0 0 0 0 0 127 0" result="hardAlpha"/>
<feOffset/>
<feGaussianBlur stdDeviation="4"/>
<feComposite in2="hardAlpha" operator="out"/>
<feColorMatrix type="matrix" values="0 0 0 0 0 0 0 0 0 1 0 0 0 0 0.46 0 0 0 1 0"/>
<feBlend mode="normal" in2="BackgroundImageFix" result="effect1_dropShadow_1_324"/>
<feBlend mode="normal" in="SourceGraphic" in2="effect1_dropShadow_1_324" result="shape"/>
</filter>
<linearGradient id="paint0_linear_1_324" x1="20.6893" y1="5.05733" x2="12.6893" y2="23.7237" gradientUnits="userSpaceOnUse">
<stop stop-color="#5865F2"/>
<stop offset="1" stop-color="#434FD6"/>
</linearGradient>
</defs>
</svg>
