<svg width="17" height="17" viewBox="0 0 17 17" fill="none" xmlns="http://www.w3.org/2000/svg">
<g clip-path="url(#clip0_263_720)">
<path d="M13.9771 2.90662C12.909 2.40689 11.767 2.04371 10.573 1.83691C10.4264 2.10202 10.255 2.4586 10.1369 2.74225C8.86772 2.55138 7.61017 2.55138 6.3643 2.74225C6.24621 2.4586 6.07101 2.10202 5.92306 1.83691C4.7278 2.04371 3.58446 2.40823 2.51638 2.90926C0.362067 6.16472 -0.221933 9.33931 0.0700677 12.4688C1.49892 13.5359 2.88366 14.1841 4.24502 14.6082C4.58115 14.1456 4.88093 13.6538 5.13918 13.1356C4.64733 12.9487 4.17624 12.718 3.73111 12.4503C3.8492 12.3628 3.96471 12.2713 4.07631 12.1772C6.79126 13.4471 9.74112 13.4471 12.4236 12.1772C12.5365 12.2713 12.652 12.3628 12.7688 12.4503C12.3224 12.7193 11.85 12.95 11.3582 13.1369C11.6164 13.6538 11.9149 14.1469 12.2523 14.6095C13.615 14.1854 15.001 13.5372 16.4299 12.4688C16.7725 8.84092 15.8446 5.69548 13.9771 2.90662ZM5.50906 10.5442C4.69406 10.5442 4.02569 9.78335 4.02569 8.85682C4.02569 7.93029 4.67979 7.16813 5.50906 7.16813C6.33835 7.16813 7.0067 7.92896 6.99242 8.85682C6.99371 9.78335 6.33835 10.5442 5.50906 10.5442ZM10.9909 10.5442C10.1759 10.5442 9.50752 9.78335 9.50752 8.85682C9.50752 7.93029 10.1616 7.16813 10.9909 7.16813C11.8202 7.16813 12.4885 7.92896 12.4743 8.85682C12.4743 9.78335 11.8202 10.5442 10.9909 10.5442Z" fill="white"/>
</g>
<defs>
<clipPath id="clip0_263_720">
<rect width="16.5" height="16.5" fill="white"/>
</clipPath>
</defs>
</svg>
