<svg width="21" height="16" viewBox="0 0 21 16" fill="none" xmlns="http://www.w3.org/2000/svg">
<path d="M4.75 2.875C4.75 3.91053 3.91053 4.75 2.875 4.75C1.83947 4.75 1 3.91053 1 2.875C1 1.83947 1.83947 1 2.875 1C3.91053 1 4.75 1.83947 4.75 2.875Z" fill="#FF3939"/>
<path d="M19.75 2.875C19.75 3.91053 18.9105 4.75 17.875 4.75C16.8395 4.75 16 3.91053 16 2.875C16 1.83947 16.8395 1 17.875 1C18.9105 1 19.75 1.83947 19.75 2.875Z" fill="#FF3939"/>
<path d="M16 14.125C16 14.125 13.8906 12.25 10.375 12.25C6.85938 12.25 4.75 14.125 4.75 14.125M19.75 2.875C19.75 3.91053 18.9105 4.75 17.875 4.75C16.8395 4.75 16 3.91053 16 2.875C16 1.83947 16.8395 1 17.875 1C18.9105 1 19.75 1.83947 19.75 2.875ZM4.75 2.875C4.75 3.91053 3.91053 4.75 2.875 4.75C1.83947 4.75 1 3.91053 1 2.875C1 1.83947 1.83947 1 2.875 1C3.91053 1 4.75 1.83947 4.75 2.875Z" stroke="#FF3939" stroke-width="2" stroke-linecap="round"/>
</svg>
