<svg width="24" height="24" viewBox="0 0 24 24" fill="none" xmlns="http://www.w3.org/2000/svg">
<path opacity="0.4" d="M22 12C22 17.524 17.523 22 12 22C6.477 22 2 17.524 2 12C2 6.478 6.477 2 12 2C17.523 2 22 6.478 22 12Z" fill="white"/>
<path fill-rule="evenodd" clip-rule="evenodd" d="M12.8672 12.6309C12.8672 13.1129 12.4742 13.5059 11.9922 13.5059C11.5102 13.5059 11.1172 13.1129 11.1172 12.6309V8.21094C11.1172 7.72894 11.5102 7.33594 11.9922 7.33594C12.4742 7.33594 12.8672 7.72894 12.8672 8.21094V12.6309ZM11.1222 15.8037C11.1222 15.3217 11.5132 14.9287 11.9922 14.9287C12.4852 14.9287 12.8772 15.3217 12.8772 15.8037C12.8772 16.2857 12.4852 16.6787 12.0022 16.6787C11.5172 16.6787 11.1222 16.2857 11.1222 15.8037Z" fill="white"/>
</svg>
