<svg width="40" height="40" viewBox="0 0 40 40" fill="none" xmlns="http://www.w3.org/2000/svg">
<g filter="url(#filter0_d_560_4532)">
<mask id="mask0_560_4532" style="mask-type:luminance" maskUnits="userSpaceOnUse" x="8" y="19" width="24" height="9">
<path d="M8.6 27.1275V20.1H31.4V27.1275H8.6Z" fill="white" stroke="white" stroke-width="1.2"/>
</mask>
<g mask="url(#mask0_560_4532)">
<path d="M20.6207 22.6852L20.2047 23.1176L20.3789 23.2852H20.6207H27.3793H27.6211L27.7953 23.1176L27.3793 22.6852L27.7953 23.1176L27.7953 23.1175L27.7955 23.1174L27.796 23.1169L27.7982 23.1148L27.8068 23.1065L27.8399 23.0747L27.963 22.9562L28.3805 22.5546L29.2762 21.6928H29.2803H29.2876H29.2948H29.3021H29.3094H29.3166H29.3239H29.3312H29.3386H29.3459H29.3532H29.3606H29.3679H29.3753H29.3827H29.3901H29.3975H29.4049H29.4123H29.4197H29.4271H29.4346H29.442H29.4495H29.457H29.4644H29.4719H29.4794H29.4869H29.4944H29.5019H29.5095H29.517H29.5245H29.5321H29.5396H29.5472H29.5548H29.5623H29.5699H29.5775H29.5851H29.5927H29.6003H29.6079H29.6155H29.6232H29.6308H29.6384H29.6461H29.6537H29.6614H29.669H29.6767H29.6844H29.6921H29.6997H29.7074H29.7151H29.7228H29.7305H29.7382H29.7459H29.7536H29.7614H29.7691H29.7768H29.7845H29.7923H29.8H29.8077H29.8155H29.8232H29.831H29.8387H29.8465H29.8542H29.862H29.8698H29.8775H29.8853H29.8931H29.9008H29.9086H29.9164H29.9242H29.9319H29.9397H29.9475H29.9553H29.9631H29.9709H29.9786H29.9864H29.9942H30.002H30.0098H30.0176H30.0254H30.0332H30.041H30.0488H30.0565H30.0643H30.0721H30.0799H30.0877H30.0955H30.1033H30.1111H30.1189H30.1266H30.1344H30.1422H30.15H30.1578H30.1656H30.1733H30.1811H30.1889H30.1967H30.2044H30.2122H30.22H30.2277H30.2355H30.2432H30.251H30.2587H30.2665H30.2742H30.282H30.2897H30.2974H30.3052H30.3129H30.3206H30.3283H30.3361H30.3438H30.3515H30.3592H30.3669H30.3746H30.3823H30.3899H30.3976H30.4053H30.413H30.4206H30.4283H30.4359H30.4436H30.4512H30.4589H30.4665H30.4741H30.4817H30.4893H30.497H30.5046H30.5121H30.5197H30.5273H30.5349H30.5424H30.55H30.5576H30.5651H30.5726H30.5802H30.5877H30.5952H30.6027H30.6102H30.6177H30.6252H30.6326H30.6401H30.6476H30.655H30.6624H30.6699H30.6773H30.6847H30.6921H30.6995H30.7069H30.7143H30.7216H30.729H30.7363H30.7437H30.751H30.7583H30.7656H30.7729H30.7802H30.7875H30.7947H30.802H30.8092H30.8164H30.8237H30.8309H30.8381H30.8452H30.8524H30.8596H30.8667H30.8739H30.881H30.8881H30.8952H30.9023H30.9094H30.9164H30.9235H30.9305H30.9375H30.9445H30.9515H30.9585H30.9655H30.9725H30.9794H30.9863H30.9932H31.0002H31.007H31.0139H31.0208H31.0276H31.0345H31.0413H31.0481H31.0549H31.0616H31.0684H31.0751H31.0819H31.0886H31.0953H31.102H31.1086H31.1153H31.1219H31.1285H31.1351H31.1417H31.1483H31.1548H31.1614H31.1679H31.1744H31.1809H31.1873H31.1938H31.2002H31.2066H31.213H31.2194H31.2258H31.2321H31.2385H31.2448H31.2511H31.2574H31.2636H31.2698H31.2761H31.2823H31.2884H31.2946H31.3008H31.3069H31.313H31.3191H31.3251H31.3312H31.3372H31.3432H31.3492H31.3552H31.3611H31.3671H31.373H31.3789H31.3847H31.3906H31.3964H31.4V25.8801L30.1031 27.1278H9.89694L8.6 25.8801L8.6 22.9405L9.89694 21.6928H9.90171H9.90846H9.9153H9.92222H9.92923H9.93633H9.94351H9.95078H9.95814H9.96558H9.97311H9.98072H9.98842H9.9962H10.0041H10.012H10.0201H10.0282H10.0364H10.0447H10.0531H10.0615H10.0701H10.0787H10.0874H10.0962H10.1051H10.114H10.1231H10.1322H10.1414H10.1507H10.1601H10.1695H10.1791H10.1887H10.1984H10.2082H10.218H10.228H10.238H10.2481H10.2583H10.2686H10.2789H10.2893H10.2998H10.3104H10.3211H10.3318H10.3426H10.3536H10.3645H10.3756H10.3867H10.3979H10.4092H10.4206H10.4321H10.4436H10.4552H10.4669H10.4786H10.4905H10.5024H10.5144H10.5265H10.5386H10.5508H10.5631H10.5755H10.5879H10.6005H10.6131H10.6257H10.6385H10.6513H10.6642H10.6772H10.6902H10.7034H10.7166H10.7298H10.7432H10.7566H10.7701H10.7836H10.7973H10.811H10.8248H10.8386H10.8526H10.8666H10.8806H10.8948H10.909H10.9233H10.9376H10.9521H10.9666H10.9811H10.9958H11.0105H11.0253H11.0401H11.0551H11.0701H11.0851H11.1003H11.1155H11.1307H11.1461H11.1615H11.177H11.1925H11.2082H11.2238H11.2396H11.2554H11.2713H11.2873H11.3033H11.3194H11.3355H11.3518H11.3681H11.3844H11.4009H11.4173H11.4339H11.4505H11.4672H11.484H11.5008H11.5177H11.5347H11.5517H11.5688H11.5859H11.6031H11.6204H11.6377H11.6551H11.6726H11.6901H11.7077H11.7254H11.7431H11.7609H11.7788H11.7967H11.8147H11.8327H11.8508H11.869H11.8872H11.9055H11.9238H11.9422H11.9607H11.9792H11.9978H12.0165H12.0352H12.054H12.0728H12.0917H12.1106H12.1297H12.1487H12.1679H12.1871H12.2063H12.2256H12.245H12.2644H12.2839H12.3035H12.3231H12.3427H12.3624H12.3822H12.402H12.4219H12.4419H12.4619H12.482H12.5021H12.5223H12.5425H12.5628H12.5831H12.6035H12.624H12.6445H12.6651H12.6857H12.7064H12.7271H12.7479H12.7687H12.7896H12.8106H12.8316H12.8526H12.8737H12.8949H12.9161H12.9374H12.9587H12.9801H13.0015H13.023H13.0446H13.0661H13.0878H13.1095H13.1312H13.153H13.1749H13.1968H13.2187H13.2407H13.2628H13.2849H13.307H13.3292H13.3515H13.3738H13.3961H13.4185H13.441H13.4635H13.486H13.5086H13.5313H13.554H13.5767H13.5995H13.6224H13.6452H13.6682H13.6912H13.7142H13.7373H13.7604H13.7836H13.8068H13.8301H13.8534H13.8767H13.9001H13.9236H13.9471H13.9706H13.9942H14.0179H14.0415H14.0653H14.089H14.1129H14.1367H14.1606H14.1846H14.2086H14.2326H14.2567H14.2808H14.305H14.3292H14.3534H14.3777H14.4021H14.4264H14.4509H14.4753H14.4998H14.5244H14.549H14.5736H14.5983H14.623H14.6478H14.6726H14.6974H14.7223H14.7472H14.7722H14.7972H14.8222H14.8473H14.8724H14.8976H14.9228H14.948H14.9733H14.9986H15.0239H15.0493H15.0748H15.1002H15.1257H15.1513H15.1769H15.2025H15.2281H15.2538H15.2796H15.3053H15.3311H15.357H15.3828H15.4088H15.4347H15.4607H15.4867H15.5128H15.5389H15.565H15.5912H15.6174H15.6436H15.6698H15.6961H15.7225H15.7489H15.7753H15.8017H15.8282H15.8547H15.8812H15.9078H15.9344H15.961H15.9877H16.0144H16.0411H16.0679H16.0947H16.1215H16.1484H16.1752H16.2022H16.2291H16.2561H16.2831H16.3102H16.3372H16.3643H16.3915H16.4186H16.4458H16.4731H16.5003H16.5276H16.5549H16.5823H16.6096H16.637H16.6645H16.6919H16.7194H16.7469H16.7745H16.802H16.8296H16.8572H16.8849H16.9126H16.9403H16.968H16.9958H17.0235H17.0513H17.0792H17.107H17.1349H17.1628H17.1908H17.2187H17.2467H17.2747H17.3028H17.3308H17.3589H17.387H17.4152H17.4433H17.4715H17.4997H17.5279H17.5562H17.5845H17.6128H17.6411H17.6694H17.6978H17.7262H17.7546H17.783H17.8115H17.8399H17.8684H17.897H17.9255H17.9541H17.9826H18.0112H18.0399H18.0685H18.0972H18.1258H18.1545H18.1833H18.212H18.2408H18.2695H18.2983H18.3272H18.356H18.3848H18.4137H18.4426H18.4715H18.5004H18.5294H18.5583H18.5873H18.6163H18.6453H18.6743H18.7034H18.7238L19.6195 22.5546L20.037 22.9562L20.1601 23.0747L20.1932 23.1065L20.2018 23.1148L20.204 23.1169L20.2045 23.1174L20.2047 23.1175L20.2047 23.1176L20.6207 22.6852Z" stroke="#7C7882" stroke-width="1.2"/>
<path d="M17.5191 21.0924L15.864 19.5H12.5536L10.8984 21.0924H17.5191Z" fill="#7C7882"/>
</g>
</g>
<g filter="url(#filter1_d_560_4532)">
<path fill-rule="evenodd" clip-rule="evenodd" d="M30.3448 12H9.65517L8.82759 12.84L8 13.68V19H10.9655L12.6207 17.32H15.931L17.5862 19H32V13.68L30.3448 12Z" fill="#7C7882"/>
</g>
<defs>
<filter id="filter0_d_560_4532" x="4" y="19.5" width="32" height="16.2275" filterUnits="userSpaceOnUse" color-interpolation-filters="sRGB">
<feFlood flood-opacity="0" result="BackgroundImageFix"/>
<feColorMatrix in="SourceAlpha" type="matrix" values="0 0 0 0 0 0 0 0 0 0 0 0 0 0 0 0 0 0 127 0" result="hardAlpha"/>
<feOffset dy="4"/>
<feGaussianBlur stdDeviation="2"/>
<feComposite in2="hardAlpha" operator="out"/>
<feColorMatrix type="matrix" values="0 0 0 0 0 0 0 0 0 0 0 0 0 0 0 0 0 0 0.25 0"/>
<feBlend mode="normal" in2="BackgroundImageFix" result="effect1_dropShadow_560_4532"/>
<feBlend mode="normal" in="SourceGraphic" in2="effect1_dropShadow_560_4532" result="shape"/>
</filter>
<filter id="filter1_d_560_4532" x="4" y="12" width="32" height="15" filterUnits="userSpaceOnUse" color-interpolation-filters="sRGB">
<feFlood flood-opacity="0" result="BackgroundImageFix"/>
<feColorMatrix in="SourceAlpha" type="matrix" values="0 0 0 0 0 0 0 0 0 0 0 0 0 0 0 0 0 0 127 0" result="hardAlpha"/>
<feOffset dy="4"/>
<feGaussianBlur stdDeviation="2"/>
<feComposite in2="hardAlpha" operator="out"/>
<feColorMatrix type="matrix" values="0 0 0 0 0 0 0 0 0 0 0 0 0 0 0 0 0 0 0.25 0"/>
<feBlend mode="normal" in2="BackgroundImageFix" result="effect1_dropShadow_560_4532"/>
<feBlend mode="normal" in="SourceGraphic" in2="effect1_dropShadow_560_4532" result="shape"/>
</filter>
</defs>
</svg>
