<svg width="24" height="25" viewBox="0 0 24 25" fill="none" xmlns="http://www.w3.org/2000/svg">
<path d="M6.64273 7.73769C9.65689 4.73848 14.5438 4.73848 17.558 7.73769L20.1616 10.3284L17.558 12.9192C14.5438 15.9184 9.65689 15.9184 6.64273 12.9192L4.03906 10.3284L6.64273 7.73769Z" fill="black"/>
<path fill-rule="evenodd" clip-rule="evenodd" d="M2.15625 10.3329L8.06786 4.41309H16.1291L22.0408 10.3329L12.0985 20.278L2.15625 10.3329ZM16.6666 8.17761C14.1548 5.653 10.0422 5.65302 7.53045 8.17761L5.38077 10.3288L7.53045 12.48C10.0422 15.0046 14.1548 15.0046 16.6666 12.48L18.8162 10.3288L16.6666 8.17761Z" fill="#0CE466"/>
<path fill-rule="evenodd" clip-rule="evenodd" d="M9.00781 10.3287C9.00781 12.0372 10.392 13.421 12.098 13.421C13.8039 13.421 15.1881 12.0372 15.1881 10.3287C15.1881 8.62012 13.8039 7.23633 12.098 7.23633C10.392 7.23633 9.00781 8.62012 9.00781 10.3287ZM10.7544 10.3286C10.7544 11.0715 11.3563 11.6731 12.098 11.6731C12.8397 11.6731 13.4415 11.0715 13.4415 10.3286C13.4415 9.58578 12.8397 8.98413 12.098 8.98413C11.3563 8.98413 10.7544 9.58578 10.7544 10.3286Z" fill="white"/>
</svg>
