<svg width="252" height="128" viewBox="0 0 252 128" fill="none" xmlns="http://www.w3.org/2000/svg">
<g filter="url(#filter0_d_161_579)">
<rect x="127.759" y="-38" width="96" height="108" rx="8" transform="rotate(14.8936 127.759 -38)" fill="url(#paint0_linear_161_579)"/>
<path d="M188.345 35.9326C190.762 36.5931 193.004 37.6478 195.07 39.0969C197.157 40.5339 198.873 42.4367 200.219 44.8053C201.569 47.1574 202.371 50.043 202.626 53.4619C202.881 56.8809 202.395 60.8966 201.168 65.509C200.028 69.8622 198.533 73.6271 196.682 76.8037C194.853 79.9683 192.76 82.4983 190.404 84.3939C188.048 86.2895 185.487 87.5309 182.72 88.1179C179.954 88.705 177.047 88.5932 173.999 87.7827C170.803 86.9328 168.137 85.5533 165.999 83.6442C163.877 81.7395 162.348 79.4984 161.411 76.9209C160.473 74.3434 160.204 71.6085 160.603 68.7161L169.622 71.1148C169.549 73.2471 170.063 75.0947 171.164 76.6575C172.286 78.2083 173.934 79.2728 176.109 79.8511C179.617 80.7843 182.724 79.979 185.429 77.4354C188.134 74.8917 190.207 70.9101 191.648 65.4906L191.302 65.3986C190.11 66.6335 188.731 67.6072 187.165 68.3198C185.605 69.0158 183.934 69.427 182.155 69.5534C180.391 69.6841 178.604 69.5085 176.792 69.0266C173.826 68.238 171.346 66.8199 169.351 64.7724C167.372 62.7292 166.019 60.2882 165.293 57.4493C164.583 54.6147 164.642 51.6056 165.471 48.422C166.348 45.1274 167.892 42.3721 170.104 40.156C172.337 37.9278 175.022 36.4195 178.16 35.6313C181.301 34.8266 184.697 34.927 188.345 35.9326ZM186.398 43.3519C184.619 42.8787 182.897 42.8881 181.231 43.38C179.587 43.8598 178.156 44.7315 176.938 45.995C175.741 47.2464 174.901 48.7781 174.419 50.5901C173.958 52.39 173.928 54.1282 174.329 55.8045C174.746 57.4853 175.533 58.938 176.689 60.1626C177.861 61.3915 179.345 62.2448 181.14 62.7223C182.475 63.0772 183.786 63.1527 185.075 62.9487C186.364 62.7447 187.557 62.3036 188.655 61.6254C189.773 60.9351 190.727 60.0687 191.516 59.0262C192.321 57.9881 192.888 56.8162 193.218 55.5104C193.678 53.7808 193.691 52.0734 193.257 50.3883C192.84 48.7075 192.041 47.234 190.861 45.9677C189.698 44.7057 188.21 43.8338 186.398 43.3519Z" fill="#402812"/>
<rect x="127.404" y="-38.6117" width="97" height="109" rx="8.5" transform="rotate(14.8936 127.404 -38.6117)" stroke="url(#paint1_radial_161_579)"/>
</g>
<g filter="url(#filter1_d_161_579)">
<g clip-path="url(#clip0_161_579)">
<rect x="31" width="96" height="108" rx="8" transform="rotate(-30 31 0)" fill="url(#paint2_linear_161_579)"/>
<path d="M96.3836 75.7394L92.6123 69.2073L94.3017 27.696L99.7488 24.5511L105.118 33.8511L101.797 35.7687L100.694 63.7736L100.899 64.1279L127.758 48.6208L131.657 55.3743L96.3836 75.7394ZM122.875 71.6636L116.866 61.2565L115.267 58.2825L96.7817 26.2642L104.532 21.7898L130.713 67.138L122.875 71.6636ZM137.912 51.7628L134.141 45.2307L135.83 3.71945L141.277 0.574562L146.647 9.8745L143.325 11.7921L142.223 39.7971L142.427 40.1514L169.286 24.6443L173.186 31.3978L137.912 51.7628ZM164.404 47.687L158.395 37.2799L156.796 34.306L138.31 2.28763L146.06 -2.1868L172.242 43.1614L164.404 47.687Z" fill="#402812"/>
</g>
<rect x="30.317" y="-0.183013" width="97" height="109" rx="8.5" transform="rotate(-30 30.317 -0.183013)" stroke="url(#paint3_radial_161_579)"/>
</g>
<defs>
<filter id="filter0_d_161_579" x="68" y="-66" width="184.533" height="193.046" filterUnits="userSpaceOnUse" color-interpolation-filters="sRGB">
<feFlood flood-opacity="0" result="BackgroundImageFix"/>
<feColorMatrix in="SourceAlpha" type="matrix" values="0 0 0 0 0 0 0 0 0 0 0 0 0 0 0 0 0 0 127 0" result="hardAlpha"/>
<feOffset dy="4"/>
<feGaussianBlur stdDeviation="16"/>
<feComposite in2="hardAlpha" operator="out"/>
<feColorMatrix type="matrix" values="0 0 0 0 0 0 0 0 0 0 0 0 0 0 0 0 0 0 0.64 0"/>
<feBlend mode="normal" in2="BackgroundImageFix" result="effect1_dropShadow_161_579"/>
<feBlend mode="normal" in="SourceGraphic" in2="effect1_dropShadow_161_579" result="shape"/>
</filter>
<filter id="filter1_d_161_579" x="-1" y="-76" width="201.139" height="205.531" filterUnits="userSpaceOnUse" color-interpolation-filters="sRGB">
<feFlood flood-opacity="0" result="BackgroundImageFix"/>
<feColorMatrix in="SourceAlpha" type="matrix" values="0 0 0 0 0 0 0 0 0 0 0 0 0 0 0 0 0 0 127 0" result="hardAlpha"/>
<feOffset dy="4"/>
<feGaussianBlur stdDeviation="16"/>
<feComposite in2="hardAlpha" operator="out"/>
<feColorMatrix type="matrix" values="0 0 0 0 0 0 0 0 0 0 0 0 0 0 0 0 0 0 0.64 0"/>
<feBlend mode="normal" in2="BackgroundImageFix" result="effect1_dropShadow_161_579"/>
<feBlend mode="normal" in="SourceGraphic" in2="effect1_dropShadow_161_579" result="shape"/>
</filter>
<linearGradient id="paint0_linear_161_579" x1="127.759" y1="-38" x2="226.49" y2="-37.0943" gradientUnits="userSpaceOnUse">
<stop stop-color="#FF993C"/>
<stop offset="1" stop-color="#FFE600"/>
</linearGradient>
<radialGradient id="paint1_radial_161_579" cx="0" cy="0" r="1" gradientUnits="userSpaceOnUse" gradientTransform="translate(175.759 16) rotate(90) scale(54 48)">
<stop stop-color="white"/>
<stop offset="1" stop-color="#FFE500"/>
</radialGradient>
<linearGradient id="paint2_linear_161_579" x1="31" y1="0" x2="129.731" y2="0.905735" gradientUnits="userSpaceOnUse">
<stop stop-color="#FF993C"/>
<stop offset="1" stop-color="#FFE600"/>
</linearGradient>
<radialGradient id="paint3_radial_161_579" cx="0" cy="0" r="1" gradientUnits="userSpaceOnUse" gradientTransform="translate(79 54) rotate(90) scale(54 48)">
<stop stop-color="white"/>
<stop offset="1" stop-color="#FFE500"/>
</radialGradient>
<clipPath id="clip0_161_579">
<rect x="31" width="96" height="108" rx="8" transform="rotate(-30 31 0)" fill="white"/>
</clipPath>
</defs>
</svg>
