<svg width="386" height="128" viewBox="0 0 386 128" fill="none" xmlns="http://www.w3.org/2000/svg">
<g clip-path="url(#clip0_162_582)">
<rect x="48.2979" y="24.1609" width="10.702" height="6.18" transform="rotate(-119 48.2979 24.1609)" fill="#9AF5FC"/>
<rect x="362.298" y="29.1609" width="6.702" height="6.18" transform="rotate(-102 362.298 29.1609)" fill="#FC9E1C" fill-opacity="0.65"/>
<rect x="149.298" y="72.1609" width="14.702" height="4.18" transform="rotate(-73 149.298 72.1609)" fill="#FF21FB" fill-opacity="0.6"/>
<rect x="355.298" y="113.161" width="7.702" height="5.18" transform="rotate(32 355.298 113.161)" fill="#DCBCFA" fill-opacity="0.65"/>
<rect x="28.2979" y="3.16086" width="10.702" height="5.18" transform="rotate(-164 28.2979 3.16086)" fill="#480CA7" fill-opacity="0.65"/>
<rect x="77.2979" y="125.161" width="7.702" height="4.18" transform="rotate(60 77.2979 125.161)" fill="#4BC8EF" fill-opacity="0.9"/>
<rect x="309.298" y="54.1609" width="7.702" height="3.18" transform="rotate(-169 309.298 54.1609)" fill="#BA3E03" fill-opacity="0.45"/>
<rect x="310.298" y="73.1609" width="7.702" height="6.18" transform="rotate(154 310.298 73.1609)" fill="#9DED1A"/>
<rect x="147.298" y="118.161" width="6.702" height="6.18" transform="rotate(150 147.298 118.161)" fill="#FFED36"/>
<rect x="241.298" y="107.161" width="8.702" height="3.18" transform="rotate(-138 241.298 107.161)" fill="#FC9E1C" fill-opacity="0.9"/>
<rect x="320.298" y="35.1609" width="7.702" height="7.18" transform="rotate(-139 320.298 35.1609)" fill="#F54721" fill-opacity="0.9"/>
<circle cx="160.833" cy="0.695858" r="2.465" transform="rotate(-180 160.833 0.695858)" fill="#9DED1A" fill-opacity="0.85"/>
<circle cx="380.833" cy="80.6959" r="1.465" transform="rotate(-180 380.833 80.6959)" fill="#FFED36" fill-opacity="0.75"/>
<circle cx="73.3329" cy="112.196" r="0.965" transform="rotate(-180 73.3329 112.196)" fill="#FFED36" fill-opacity="0.9"/>
<circle cx="0.332852" cy="129.196" r="1.965" transform="rotate(-180 0.332852 129.196)" fill="#FC9E1C" fill-opacity="0.75"/>
<circle cx="35.3329" cy="67.1959" r="1.965" transform="rotate(-180 35.3329 67.1959)" fill="#FC9E1C" fill-opacity="0.85"/>
<circle cx="48.3329" cy="31.1959" r="0.965" transform="rotate(-180 48.3329 31.1959)" fill="#4BC8EF" fill-opacity="0.85"/>
<circle cx="79.3329" cy="1.19586" r="0.965" transform="rotate(-180 79.3329 1.19586)" fill="#C9FCBE"/>
<circle cx="310.833" cy="58.6959" r="2.465" transform="rotate(-180 310.833 58.6959)" fill="#480CA7" fill-opacity="0.9"/>
<circle cx="155.333" cy="19.1959" r="1.965" transform="rotate(-180 155.333 19.1959)" fill="#FF21FB" fill-opacity="0.6"/>
<circle cx="169.333" cy="47.1959" r="0.965" transform="rotate(-180 169.333 47.1959)" fill="#DCBCFA" fill-opacity="0.35"/>
<path d="M186.935 8.13811L189.594 8.7521L188.98 11.4116L186.321 10.7976L186.935 8.13811Z" fill="#BA3E03" fill-opacity="0.75"/>
<path d="M86.1405 77.5011L81.643 75.684L83.4601 71.1864L87.9576 73.0036L86.1405 77.5011Z" fill="#FF21FB" fill-opacity="0.6"/>
<path d="M205.831 71.0336L204.093 72.4919L202.169 71.2896L202.718 69.0882L204.981 68.9299L205.831 71.0336Z" fill="#9DED1A" fill-opacity="0.85"/>
<path d="M88.2149 117.412L85.3692 117.163L84.7266 114.38L87.1752 112.909L89.3311 114.783L88.2149 117.412Z" fill="#DCBCFA" fill-opacity="0.6"/>
<path d="M165.036 117.221L161.681 116.508L160.621 113.246L162.916 110.697L166.271 111.41L167.331 114.672L165.036 117.221Z" fill="#755FFE" fill-opacity="0.75"/>
<path d="M36.0961 9.24143L38.8005 7.27655L39.15 10.6011L36.0961 9.24143Z" fill="#FFED36" fill-opacity="0.6"/>
<path d="M253.987 73.41L252.308 71.0989L253.987 68.7878L256.704 69.6706L256.704 72.5272L253.987 73.41Z" fill="#C9FCBE" fill-opacity="0.35"/>
<path d="M199.583 75.1904L200.838 70.505L205.524 71.7604L204.268 76.4459L199.583 75.1904Z" fill="#FC9E1C" fill-opacity="0.6"/>
<path d="M43.3784 126.363L41.4135 125.228L41.8853 123.009L44.1417 122.772L45.0645 124.844L43.3784 126.363Z" fill="#4BC8EF" fill-opacity="0.65"/>
<path d="M140.332 14.5825L139.052 10.8667L141.631 7.90065L145.488 8.65053L146.768 12.3664L144.19 15.3324L140.332 14.5825Z" fill="#F54721" fill-opacity="0.85"/>
<path d="M204.566 128.072L203.306 128.687L203.501 130.075L202.527 129.067L201.267 129.681L201.925 128.443L200.951 127.435L202.332 127.678L202.99 126.44L203.186 127.829L204.566 128.072Z" fill="#F54721" fill-opacity="0.75"/>
<path d="M54.1896 -7.38609L55.64 -4.69319L58.6283 -4.04129L55.9354 -2.59094L55.2835 0.397416L53.8332 -2.29549L50.8448 -2.94739L53.5377 -4.39774L54.1896 -7.38609Z" fill="#03A3F5" fill-opacity="0.85"/>
<path d="M66.8788 27.2679L66.4688 28.6088L67.6175 29.4131L66.2155 29.4376L65.8055 30.7785L65.349 29.4527L63.947 29.4772L65.0668 28.6333L64.6103 27.3075L65.7589 28.1117L66.8788 27.2679Z" fill="#C9FCBE" fill-opacity="0.6"/>
<path d="M242.204 52.4568L243.692 52.6579L244.814 51.6588L244.613 53.1473L245.612 54.269L244.124 54.0679L243.002 55.067L243.203 53.5784L242.204 52.4568Z" fill="#FFED36" fill-opacity="0.6"/>
<path d="M168.093 9.238L170.172 8.29937L170.812 6.11075L171.751 8.18897L173.939 8.82922L171.861 9.76784L171.221 11.9565L170.282 9.87825L168.093 9.238Z" fill="#F54721" fill-opacity="0.75"/>
<path d="M110.502 32.1437L110.352 29.2923L107.594 28.5533L110.26 27.53L110.111 24.6786L111.907 26.8976L114.573 25.8744L113.018 28.269L114.815 30.488L112.057 29.749L110.502 32.1437Z" fill="#480CA7" fill-opacity="0.45"/>
<path d="M34.8771 105.373L34.273 103.793L32.6748 104.346L33.7407 103.033L32.463 101.925L34.1329 102.192L34.4535 100.531L35.0576 102.111L36.6558 101.558L35.59 102.871L36.8676 103.979L35.1977 103.712L34.8771 105.373Z" fill="#F54721" fill-opacity="0.75"/>
<path d="M376.559 3.09666L377.325 0.53968L375.883 -1.70688L378.44 -0.94005L380.687 -2.38198L379.92 0.175007L381.362 2.42157L378.805 1.65474L376.559 3.09666Z" fill="#FF21FB"/>
<path d="M203.628 104.825L205.152 103.705L205.294 101.819L206.414 103.343L208.3 103.485L206.776 104.605L206.634 106.491L205.514 104.967L203.628 104.825Z" fill="#9AF5FC" fill-opacity="0.45"/>
<path d="M22.4426 38.6928L21.6585 37.5303L20.3106 37.9168L21.1739 36.8119L20.3898 35.6494L21.7074 36.129L22.5707 35.024L22.5218 36.4254L23.8395 36.905L22.4916 37.2915L22.4426 38.6928Z" fill="#FC9E1C" fill-opacity="0.85"/>
<path d="M13.2379 41.423L10.5706 41.5304L8.91587 43.6252L8.80845 40.9578L6.71367 39.3031L9.38101 39.1957L11.0357 37.1009L11.1431 39.7683L13.2379 41.423Z" fill="#480CA7" fill-opacity="0.75"/>
<path d="M4.17068 107.734L5.81891 107.102L5.72651 105.338L6.83758 106.71L8.48581 106.078L7.52425 107.558L8.63531 108.931L6.92997 108.474L5.96841 109.954L5.87602 108.191L4.17068 107.734Z" fill="#755FFE" fill-opacity="0.75"/>
</g>
<defs>
<clipPath id="clip0_162_582">
<rect width="386" height="128" fill="white" transform="translate(386 128) rotate(-180)"/>
</clipPath>
</defs>
</svg>
