<svg width="40" height="40" viewBox="0 0 40 40" fill="none" xmlns="http://www.w3.org/2000/svg">
<path fill-rule="evenodd" clip-rule="evenodd" d="M11 15H29V31H11V15ZM13 17V29H27V17H13Z" fill="#7C7882"/>
<path d="M19.2415 26V20H20.7585V26H19.2415ZM17 23.7585V22.2415H23V23.7585H17Z" fill="#7C7882"/>
<path d="M26 15C26 14.2121 25.8448 13.4319 25.5433 12.7039C25.2417 11.9759 24.7998 11.3145 24.2426 10.7574C23.6855 10.2002 23.0241 9.75825 22.2961 9.45672C21.5681 9.15519 20.7879 9 20 9C19.2121 9 18.4319 9.15519 17.7039 9.45672C16.9759 9.75825 16.3145 10.2002 15.7574 10.7574C15.2002 11.3145 14.7583 11.9759 14.4567 12.7039C14.1552 13.4319 14 14.2121 14 15H15.6745C15.6745 14.432 15.7864 13.8695 16.0037 13.3447C16.2211 12.8199 16.5397 12.3431 16.9414 11.9414C17.3431 11.5397 17.8199 11.2211 18.3447 11.0037C18.8695 10.7864 19.432 10.6745 20 10.6745C20.568 10.6745 21.1305 10.7864 21.6553 11.0037C22.1801 11.2211 22.6569 11.5397 23.0586 11.9414C23.4603 12.3431 23.7789 12.8199 23.9963 13.3447C24.2136 13.8695 24.3255 14.432 24.3255 15H26Z" fill="#7C7882"/>
</svg>
