<svg width="18" height="22" viewBox="0 0 18 22" fill="none" xmlns="http://www.w3.org/2000/svg">
<path fill-rule="evenodd" clip-rule="evenodd" d="M0 6H18V22H0V6ZM2 8V20H16V8H2Z" fill="#7C7882"/>
<path d="M8.24152 17V11H9.75847V17H8.24152ZM6 14.7585V13.2415H12V14.7585H6Z" fill="#7C7882"/>
<path d="M15 6C15 5.21207 14.8448 4.43185 14.5433 3.7039C14.2417 2.97595 13.7998 2.31451 13.2426 1.75736C12.6855 1.20021 12.0241 0.758251 11.2961 0.456723C10.5681 0.155195 9.78793 -3.44416e-08 9 0C8.21207 3.44416e-08 7.43185 0.155195 6.7039 0.456723C5.97595 0.758251 5.31451 1.20021 4.75736 1.75736C4.20021 2.31451 3.75825 2.97595 3.45672 3.7039C3.15519 4.43185 3 5.21207 3 6H4.67448C4.67448 5.43196 4.78636 4.86949 5.00374 4.3447C5.22112 3.8199 5.53973 3.34306 5.9414 2.9414C6.34306 2.53973 6.8199 2.22112 7.3447 2.00374C7.86949 1.78636 8.43196 1.67448 9 1.67448C9.56804 1.67448 10.1305 1.78636 10.6553 2.00374C11.1801 2.22112 11.6569 2.53973 12.0586 2.9414C12.4603 3.34306 12.7789 3.8199 12.9963 4.3447C13.2136 4.86949 13.3255 5.43196 13.3255 6H15Z" fill="#7C7882"/>
</svg>
