<svg width="132" height="48" viewBox="0 0 132 48" fill="none" xmlns="http://www.w3.org/2000/svg">
<g clip-path="url(#clip0_98_480)">
<path d="M45.7824 23.0419C45.6217 23.0419 45.4518 23.0365 45.2773 23.0263C44.4171 22.976 43.6673 22.7589 43.0479 22.3802C42.4801 22.0335 41.8032 21.3206 41.8028 19.8944C41.7934 18.2768 41.8006 16.6984 41.8246 15.2046V15.2046C41.8287 14.9431 41.4677 14.8679 41.3683 15.1098C41.1302 15.6895 40.8786 16.3053 40.6142 16.9557L40.5328 17.1559C40.503 17.2289 40.4536 17.2921 40.3899 17.3383L40.215 17.4647C39.8559 17.7246 39.4038 17.9266 38.8707 18.0655C38.4689 18.1705 38.0274 18.2234 37.558 18.2234C37.4303 18.2234 37.2972 18.2194 37.1633 18.2114C36.3632 18.1647 35.6997 18.0183 35.1354 17.7642C34.3847 17.4269 33.8845 16.8551 33.6887 16.1102C33.4776 15.3905 33.2769 14.7111 33.0875 14.0738C33.0293 13.8778 32.7461 13.9074 32.7302 14.1112V14.1112C32.6479 15.1481 32.5535 16.2134 32.4494 17.2774C32.3444 18.3454 32.2109 19.5331 32.0525 20.8067L31.9862 21.3402C31.9639 21.5182 31.8313 21.6628 31.6555 21.6998L31.1291 21.8106C30.8746 21.864 30.5479 21.9218 30.1301 21.9868C29.783 22.0406 29.4363 22.0678 29.0986 22.0678C28.9758 22.0678 28.8521 22.0642 28.7301 22.0571C27.7093 21.9975 26.9123 21.7616 26.2938 21.3362C25.7482 20.962 25.1145 20.2268 25.1955 18.8504C25.2235 18.3672 25.2925 17.6556 25.3998 16.7354C25.5057 15.8236 25.6307 14.7712 25.7722 13.6071C25.9088 12.475 26.0561 11.2219 26.2097 9.88243C26.3587 8.58126 26.5207 7.2663 26.6916 5.97492C26.8691 4.6337 27.0245 3.47359 27.1668 2.42918L27.1935 2.23472C27.2033 2.16308 27.2309 2.09544 27.2745 2.03803L27.3929 1.88095C27.6977 1.47644 28.1899 1.12534 28.8974 0.807615C29.4791 0.546847 30.1697 0.420469 31.0094 0.420469C31.1789 0.420469 31.3569 0.425808 31.5376 0.436488C32.6648 0.502348 33.6015 0.75644 34.322 1.1912C35.1261 1.67758 35.6841 2.4185 35.9818 3.39349C36.251 4.166 36.5403 5.07736 36.8411 6.10218C36.878 6.22802 36.9148 6.35411 36.9516 6.48039C37.1768 7.25395 38.2639 7.31494 38.5748 6.57166V6.57166C39.2859 4.87221 39.908 3.41974 40.4242 2.25474L40.5345 2.00599C40.5742 1.9161 40.644 1.84312 40.7321 1.79951L40.976 1.67847C41.3872 1.47467 41.8869 1.32782 42.46 1.24282C42.833 1.1872 43.2228 1.15916 43.6184 1.15916C43.7875 1.15916 43.9615 1.16406 44.1359 1.17429C45.2186 1.23793 46.085 1.45375 46.7845 1.83511C47.8779 2.4323 48.2134 3.30449 48.3024 3.93105C48.3683 4.37515 48.423 5.03152 48.4693 5.93487C48.5129 6.79415 48.5534 7.77448 48.5939 8.93236C48.6322 10.0382 48.6686 11.2285 48.702 12.4701C48.7358 13.7392 48.7657 14.9487 48.7906 16.0652C48.8168 17.2302 48.8346 18.2893 48.8435 19.2122C48.852 20.1365 48.8511 20.8885 48.84 21.4479L48.8311 21.8938C48.8284 22.0473 48.7416 22.187 48.6055 22.2578L48.2103 22.4647C47.7924 22.6832 47.3506 22.8425 46.8967 22.9382C46.5709 23.0072 46.1958 23.0419 45.7824 23.0419Z" fill="url(#paint0_linear_98_480)"/>
<path d="M31.0096 -0.000168779C30.1094 -0.000168779 29.3622 0.13867 28.7259 0.423913C27.9516 0.7719 27.4056 1.16528 27.0571 1.62808L26.9388 1.78471C26.852 1.89997 26.7964 2.03525 26.7768 2.17765L26.7505 2.37256C26.6072 3.4223 26.4519 4.58241 26.2748 5.92007C26.104 7.21234 25.9415 8.52953 25.792 9.8347C25.6389 11.1679 25.4916 12.4206 25.3546 13.5567C25.2131 14.7252 25.0876 15.7785 24.9821 16.6872C24.874 17.615 24.8041 18.3346 24.7756 18.8259C24.6786 20.4808 25.5361 21.3263 26.0563 21.6832C26.7394 22.1527 27.6063 22.4125 28.7059 22.4771C28.8353 22.4846 28.9675 22.4886 29.0988 22.4886C29.4574 22.4886 29.8259 22.4597 30.1939 22.4027C30.6207 22.336 30.9544 22.2768 31.2161 22.2221L31.7421 22.1113C32.0932 22.0374 32.3593 21.7486 32.4033 21.3922L32.4696 20.8586C32.6289 19.5797 32.7629 18.3889 32.8679 17.3187C32.9306 16.6805 32.9894 16.042 33.0441 15.4096C33.1224 15.6748 33.2021 15.9458 33.2835 16.2231C33.5109 17.0797 34.1072 17.7632 34.9634 18.1481C35.5748 18.4231 36.2864 18.5816 37.1385 18.6314C37.28 18.6399 37.4216 18.6439 37.5582 18.6439C38.0628 18.6439 38.5403 18.5865 38.9764 18.4725C39.5607 18.3203 40.0604 18.0956 40.4613 17.8055L40.6362 17.6787C40.7639 17.5865 40.8632 17.4602 40.9223 17.3142L41.0038 17.1144C41.1359 16.7882 41.2654 16.4714 41.3914 16.163C41.378 17.3685 41.3749 18.6207 41.382 19.8987C41.3829 21.6013 42.2889 22.4094 42.8287 22.7392C43.5073 23.1539 44.323 23.392 45.2526 23.4463C45.4355 23.4569 45.6139 23.4623 45.7826 23.4623C46.2249 23.4623 46.629 23.4245 46.9832 23.3497C47.4749 23.2465 47.9533 23.0738 48.4054 22.8375L48.8006 22.6306C49.0729 22.4882 49.2456 22.2092 49.2518 21.9021L49.2607 21.4558C49.2718 20.8942 49.2727 20.1382 49.2638 19.2081C49.2549 18.283 49.2371 17.2225 49.2113 16.0558C49.1864 14.9375 49.1566 13.7275 49.1227 12.4593C49.0889 11.2115 49.0524 10.0203 49.0146 8.91845C48.9737 7.75657 48.9327 6.77402 48.8891 5.91339C48.8424 4.99892 48.7868 4.33054 48.7187 3.86997C48.5732 2.85048 47.9582 1.99698 46.9868 1.46609C46.2307 1.05447 45.3064 0.821741 44.1606 0.754546C43.9786 0.743866 43.7961 0.738527 43.6186 0.738527C43.2016 0.738527 42.7913 0.768343 42.398 0.826637C41.7812 0.918306 41.2396 1.0785 40.7893 1.30189L40.5454 1.42293C40.3697 1.51015 40.2295 1.65611 40.1503 1.83544L40.0399 2.0842C39.5224 3.25142 38.8989 4.70701 38.1869 6.40956C38.0263 6.79404 37.8652 7.18297 37.7041 7.57501C37.5528 7.0428 37.3993 6.51102 37.2449 5.98415C36.9427 4.95531 36.6526 4.03996 36.3816 3.26255C36.0523 2.18966 35.4329 1.37176 34.5398 0.831531C33.7597 0.360724 32.758 0.0866055 31.5623 0.016741C31.3732 0.00561609 31.1872 -0.000168779 31.0096 -0.000168779ZM31.0096 0.840876C31.1707 0.840876 31.3402 0.846215 31.5133 0.856005C32.5711 0.918304 33.4428 1.15193 34.1045 1.55109C34.8192 1.98363 35.3163 2.64712 35.5819 3.52376C35.8498 4.29138 36.1377 5.19828 36.4377 6.22044C36.7367 7.24126 37.0317 8.27811 37.3148 9.3016C37.398 9.60464 37.4798 9.89878 37.5599 10.184C38.0223 9.01457 38.4918 7.86025 38.963 6.73441C39.6728 5.03719 40.2936 3.58739 40.8089 2.42506L40.9192 2.17631L41.1626 2.05527C41.5347 1.87104 41.9921 1.73754 42.5221 1.65878C42.8741 1.60627 43.243 1.57957 43.6186 1.57957C43.7797 1.57957 43.9456 1.58446 44.1112 1.59425C45.1307 1.65388 45.9392 1.85324 46.5831 2.20435C47.523 2.71743 47.8104 3.4579 47.8861 3.99012C47.9506 4.42399 48.004 5.06701 48.049 5.95611C48.0926 6.81006 48.1335 7.78816 48.174 8.94738C48.2118 10.0456 48.2479 11.2347 48.2817 12.4815C48.3155 13.7431 48.3453 14.9522 48.3703 16.0749C48.3965 17.2363 48.4139 18.2936 48.4228 19.2161C48.4317 20.1364 48.4308 20.8844 48.4196 21.4393L48.4107 21.8852L48.0156 22.0921C47.6316 22.2928 47.2257 22.4392 46.8096 22.5269C46.5124 22.5896 46.1666 22.6212 45.7826 22.6212C45.6304 22.6212 45.4684 22.6163 45.3016 22.6066C44.5117 22.5603 43.8268 22.3636 43.267 22.0214C42.7913 21.7304 42.224 21.1252 42.2231 19.8943C42.2137 18.2772 42.2213 16.7014 42.2453 15.2116C42.2649 13.9678 42.2912 12.7988 42.3232 11.7277C41.7634 13.0427 41.0576 14.7475 40.2246 16.7976L40.1432 16.9974L39.9683 17.1242C39.6519 17.3529 39.2474 17.5327 38.7646 17.6586C38.3974 17.7543 37.9916 17.8028 37.5582 17.8028C37.438 17.8028 37.313 17.7993 37.1875 17.7917C36.4399 17.7481 35.8249 17.6132 35.3083 17.381C34.675 17.0962 34.2554 16.6182 34.0939 15.9975C33.5065 13.9945 33.0001 12.3009 32.5884 10.9623L32.5862 10.9552C32.4825 12.0183 32.39 13.0685 32.3108 14.0782C32.2289 15.1124 32.135 16.175 32.0309 17.2368C31.9263 18.3003 31.7932 19.484 31.6353 20.7549L31.569 21.288L31.0425 21.3988C30.796 21.4509 30.4765 21.5074 30.0653 21.5715C29.7396 21.6218 29.4143 21.6471 29.0988 21.6471C28.984 21.6471 28.8683 21.644 28.7552 21.6373C27.8132 21.5822 27.0856 21.3704 26.532 20.9899C26.0755 20.6766 25.5459 20.0554 25.6153 18.8748C25.6429 18.4 25.711 17.6965 25.8174 16.7842C25.9228 15.8773 26.0479 14.8253 26.1894 13.6577C26.3273 12.518 26.4746 11.2636 26.6277 9.93038C26.7763 8.62965 26.9383 7.31736 27.1088 6.03043C27.2859 4.69143 27.4412 3.53222 27.5836 2.48603L27.6103 2.29112L27.7286 2.13448C27.9899 1.78783 28.4282 1.47945 29.0699 1.19153C29.5958 0.955686 30.2304 0.840876 31.0096 0.840876Z" fill="#111111"/>
<path d="M59.4476 25.9207C59.0872 25.9207 58.7138 25.9064 58.3378 25.8788C56.3487 25.7329 54.6301 25.2331 53.2306 24.3939C51.7955 23.5332 50.7079 22.3763 49.9986 20.9549C49.2955 19.5461 49.0049 17.9307 49.1353 16.1539L50.1294 2.61974C50.1441 2.41682 50.3021 2.25396 50.5041 2.2326L51.1298 2.16585C51.395 2.13781 51.7568 2.10622 52.2058 2.0724C52.463 2.05282 52.7229 2.04303 52.9774 2.04303C53.2235 2.04303 53.4718 2.05237 53.7152 2.07017C54.9429 2.16051 55.8369 2.46933 56.4479 3.01534C57.139 3.63255 57.4412 4.60843 57.345 5.91539L56.5627 16.5659C56.4964 17.4675 56.6673 18.1412 57.0843 18.624C57.507 19.114 58.0561 19.3681 58.8117 19.4233C58.9003 19.4299 58.9884 19.4335 59.0734 19.4335C59.6986 19.4335 60.2104 19.2537 60.638 18.8848C61.1213 18.4679 61.3883 17.8266 61.4546 16.925L62.4385 3.52353C62.4532 3.32106 62.6111 3.15774 62.8136 3.13638L63.4393 3.07008C63.704 3.0416 64.0729 3.01045 64.5362 2.97708C64.7996 2.95839 65.0622 2.94859 65.3163 2.94859C65.5552 2.94859 65.7937 2.95705 66.0243 2.97396C67.252 3.06429 68.146 3.37357 68.7574 3.91913C69.4485 4.53679 69.7502 5.51267 69.6541 6.81918L68.8624 17.6023C68.7321 19.3756 68.2159 20.9296 67.3281 22.2205C66.4283 23.5284 65.181 24.5171 63.6204 25.1588C62.3904 25.6643 60.9864 25.9207 59.4476 25.9207Z" fill="url(#paint1_linear_98_480)"/>
<path d="M52.9777 1.62264C52.712 1.62264 52.4415 1.63288 52.1745 1.6529C51.7206 1.68761 51.3543 1.7192 51.0856 1.74768L50.4599 1.81443C50.0554 1.85715 49.7399 2.18334 49.7101 2.58917L49.6638 3.21662L48.877 13.9335L48.716 16.1233C48.5802 17.9763 48.8851 19.665 49.6229 21.1429C50.3682 22.6372 51.5096 23.8524 53.0146 24.7545C54.4711 25.628 56.252 26.1477 58.3074 26.2986C58.6941 26.3271 59.0777 26.3413 59.4479 26.3413C61.0419 26.3413 62.4997 26.0743 63.7804 25.5479C65.418 24.8742 66.7281 23.8351 67.6746 22.4587C68.6055 21.1055 69.1462 19.4817 69.2819 17.6332L69.443 15.4433L70.0736 6.85001C70.1799 5.40645 69.8315 4.31443 69.0376 3.60555C68.355 2.9959 67.3791 2.65192 66.0553 2.55491C65.8145 2.53711 65.5662 2.52821 65.3166 2.52821C65.0522 2.52821 64.7799 2.538 64.5058 2.55802C64.0376 2.59184 63.6638 2.62344 63.3951 2.65192L62.7694 2.71822C62.3649 2.76139 62.0489 3.08757 62.0191 3.49296L61.9733 4.12041L61.1861 14.8373L61.1363 15.5163L61.1082 15.8986L61.0352 16.8945C60.9774 17.679 60.7576 18.2259 60.3633 18.5668C60.0104 18.8712 59.6006 19.0127 59.0733 19.0127C58.9989 19.0127 58.9215 19.01 58.8427 19.0042C58.2055 18.9575 57.7481 18.7492 57.4032 18.3496C57.0623 17.9549 56.9248 17.3817 56.9822 16.5968L57.0605 15.535L57.7645 5.94623C57.8704 4.50221 57.522 3.41064 56.7286 2.70176C56.0455 2.09167 55.0701 1.74813 53.7458 1.65068C53.4917 1.63199 53.2331 1.62264 52.9777 1.62264ZM52.9777 2.46368C53.2126 2.46368 53.4503 2.47259 53.6843 2.48949C54.8164 2.57271 55.629 2.84727 56.1679 3.3292C56.7566 3.85474 57.0116 4.71448 56.9257 5.88482L56.2217 15.4736L56.1434 16.5349C56.0686 17.554 56.2724 18.3269 56.7664 18.8992C57.2594 19.471 57.9185 19.7794 58.7813 19.843C58.8806 19.8501 58.9785 19.8537 59.0733 19.8537C59.8039 19.8537 60.4056 19.641 60.9129 19.2031C61.4847 18.7096 61.7993 17.9745 61.8741 16.9559L61.947 15.9604L61.9751 15.5782L62.0249 14.8987L62.8121 4.18226L62.858 3.55481L63.4836 3.48807C63.7435 3.46048 64.1075 3.42977 64.5663 3.39684C64.8204 3.3786 65.0727 3.36925 65.3166 3.36925C65.5453 3.36925 65.7736 3.37726 65.9938 3.39373C67.1255 3.4765 67.938 3.75106 68.4774 4.23299C69.0661 4.75898 69.3211 5.61871 69.2348 6.78861L68.6042 15.3819L68.4431 17.5718C68.3185 19.2694 67.8268 20.7535 66.9817 21.9821C66.1291 23.2219 64.9445 24.1595 63.4605 24.77C62.2817 25.2546 60.9316 25.5003 59.4479 25.5003C59.0982 25.5003 58.7355 25.4865 58.3688 25.4598C56.4456 25.3183 54.7897 24.8386 53.4472 24.0331C52.0815 23.2148 51.0482 22.1156 50.3754 20.7673C49.7061 19.427 49.4302 17.885 49.5548 16.1847L49.7159 13.9949L50.5026 3.27803L50.5489 2.65058L51.1746 2.58428C51.4344 2.55669 51.7927 2.52554 52.2377 2.49172C52.4842 2.47303 52.7329 2.46368 52.9777 2.46368Z" fill="#111111"/>
<path d="M90.7852 23.9987C89.7564 23.9987 88.9808 23.7855 88.413 23.3467C87.7246 22.8154 87.3419 21.9383 87.2764 20.7395L86.2917 2.81059C86.2805 2.61034 86.4127 2.43012 86.6067 2.38028L87.1928 2.22943C87.4228 2.17024 87.7668 2.09415 88.2154 2.00337C88.7 1.90458 89.1784 1.84228 89.6372 1.81691C89.796 1.80801 89.9513 1.80401 90.0977 1.80401C91.0847 1.80401 91.839 1.99714 92.4037 2.39452C93.1277 2.90493 93.53 3.80249 93.5994 5.06316L93.8495 9.61815L98.5878 9.35782L98.1918 2.14621C98.1806 1.94329 98.3164 1.76129 98.5144 1.71412L99.1134 1.57128C99.3634 1.51165 99.7048 1.43733 100.128 1.34967C100.605 1.25132 101.09 1.18813 101.57 1.16188C101.719 1.15342 101.865 1.14942 102.004 1.14942C102.987 1.14942 103.746 1.34878 104.325 1.75862C105.058 2.27882 105.465 3.18127 105.534 4.44017L106.513 22.281C106.523 22.4665 106.411 22.6365 106.236 22.6997L105.72 22.8857C105.448 22.9836 105.077 23.0748 104.585 23.1638C104.114 23.2488 103.628 23.3054 103.139 23.3321C102.983 23.341 102.831 23.345 102.686 23.345C101.657 23.345 100.881 23.1318 100.314 22.6935C99.6255 22.1622 99.2428 21.2846 99.177 20.0858L98.9269 15.5313L94.1886 15.7911L94.5797 22.9191C94.5895 23.0998 94.4827 23.2666 94.3145 23.3329L93.8201 23.5287C93.5558 23.6329 93.1953 23.7245 92.6845 23.8175C92.2141 23.9021 91.7277 23.9586 91.2382 23.9858C91.0816 23.9942 90.9294 23.9987 90.7852 23.9987Z" fill="url(#paint2_linear_98_480)"/>
<path d="M102.004 0.728787C101.857 0.728787 101.703 0.733237 101.547 0.741692C101.045 0.769281 100.539 0.835142 100.043 0.937936C99.6139 1.02649 99.2685 1.10169 99.0158 1.16221L98.4168 1.30506C98.0212 1.3994 97.7498 1.76296 97.772 2.16924L97.8058 2.78423L98.1298 8.68666V8.68666C98.1381 8.83829 98.022 8.96797 97.8704 8.9763L96.1953 9.06826C95.1189 9.12736 94.1983 8.30269 94.1391 7.22625L94.0189 5.04036C93.9424 3.64485 93.4805 2.63871 92.6461 2.05087C92.0075 1.60143 91.174 1.38338 90.098 1.38338C89.9427 1.38338 89.7803 1.38783 89.6139 1.39717C89.1355 1.42343 88.6367 1.4884 88.1316 1.59119C87.6773 1.6833 87.3262 1.76073 87.0881 1.82214L86.502 1.973C86.1135 2.07268 85.8497 2.43312 85.8719 2.83362L85.9048 3.43748L86.2292 9.34036L86.4353 13.0966L86.5652 15.4662L86.8562 20.7625C86.9292 22.0886 87.3667 23.0703 88.1565 23.6799C88.8 24.1774 89.6602 24.4191 90.7851 24.4191C90.9378 24.4191 91.098 24.4146 91.2613 24.4057C91.7677 24.3777 92.2714 24.3194 92.7587 24.2313C93.3056 24.132 93.6803 24.0359 93.9744 23.9198L94.4688 23.7244C94.8057 23.5909 95.0197 23.2576 94.9997 22.8958L94.9703 22.365L94.7382 18.1375C94.6791 17.0608 95.5041 16.1401 96.5807 16.0809V16.0809C97.6574 16.0218 98.5782 16.8468 98.6373 17.9235L98.7572 20.1088C98.8298 21.4354 99.2672 22.417 100.057 23.0262C100.701 23.5237 101.561 23.7658 102.686 23.7658C102.839 23.7658 102.999 23.7609 103.162 23.752C103.668 23.7244 104.172 23.6657 104.659 23.578C105.183 23.4828 105.565 23.3885 105.862 23.2812L106.379 23.0952C106.728 22.9693 106.954 22.6288 106.933 22.2577L106.903 21.7099L106.5 14.3715L106.303 10.7706L106.164 8.24567L105.954 4.41692C105.877 3.02364 105.411 2.01394 104.568 1.41586C103.916 0.95351 103.077 0.728787 102.004 0.728787ZM102.004 1.56983C102.897 1.56983 103.576 1.74382 104.082 2.1016C104.705 2.54393 105.052 3.33869 105.114 4.46275L105.324 8.2915L105.463 10.8164L105.66 14.4178L106.063 21.7558V21.7558C106.081 22.0809 105.884 22.3796 105.577 22.49V22.49C105.328 22.5799 104.979 22.6649 104.51 22.7503C104.057 22.8318 103.588 22.8865 103.116 22.9123C102.968 22.9203 102.823 22.9248 102.686 22.9248C101.754 22.9248 101.062 22.7401 100.571 22.3605C99.9836 21.9071 99.6557 21.1341 99.5969 20.063L99.4769 17.8773C99.3923 16.3368 98.0749 15.1566 96.5344 15.2412V15.2412C94.994 15.3259 93.8138 16.6433 93.8984 18.1837L94.1306 22.4112V22.4112C94.1481 22.7282 93.9604 23.0209 93.6651 23.1375V23.1375C93.4275 23.2314 93.0924 23.3159 92.6092 23.4036C92.1562 23.4855 91.6871 23.5398 91.2154 23.566C91.0672 23.574 90.9226 23.578 90.7851 23.578C89.8533 23.578 89.1613 23.3934 88.6701 23.0142C88.0827 22.5608 87.7547 21.7874 87.696 20.7163L87.4054 15.4199L87.275 13.0507L87.069 9.29408L86.745 3.39165V3.39165C86.7256 3.04048 86.957 2.72436 87.2977 2.63693V2.63693C87.522 2.57908 87.8588 2.50477 88.2989 2.41532C88.7639 2.32099 89.2223 2.26091 89.6602 2.23688C89.811 2.22843 89.9583 2.22442 90.098 2.22442C90.9952 2.22442 91.6698 2.39263 92.1615 2.73839C92.7751 3.17093 93.1173 3.9608 93.1792 5.08619L93.2993 7.27199C93.3839 8.81223 94.701 9.99229 96.2413 9.90775L97.9171 9.81578C98.5322 9.78202 99.0034 9.25593 98.9695 8.64082V8.64082L98.6455 2.73795V2.73795C98.626 2.38189 98.8643 2.06278 99.2111 1.98012V1.98012C99.4554 1.92182 99.7923 1.8484 100.213 1.76162C100.669 1.66728 101.133 1.60677 101.593 1.5814C101.734 1.57384 101.873 1.56983 102.004 1.56983Z" fill="#111111"/>
<path d="M77.6149 23.9486C77.3808 23.9486 77.1401 23.9442 76.898 23.9348C76.1397 23.9059 75.4126 23.8342 74.7366 23.7217C74.1297 23.6206 73.5476 23.4836 73.0069 23.3149C71.7925 22.9362 70.8042 22.3911 70.0686 21.6943C69.208 20.8799 68.7924 19.9209 68.8333 18.8436C68.8663 17.9905 69.1591 17.2523 69.7046 16.6498C70.175 16.13 70.7076 15.7406 71.2888 15.4923L71.7258 15.3054C71.7792 15.2827 71.8353 15.2716 71.8913 15.2716C71.9919 15.2716 72.0907 15.3077 72.169 15.3766L72.5259 15.6908C73.019 16.1251 73.6624 16.5332 74.4381 16.9034C74.9106 17.1295 75.438 17.2923 76.0067 17.3867C76.3146 17.4379 76.6417 17.4708 76.979 17.4833C77.0844 17.4877 77.185 17.4895 77.2811 17.4895C78.2552 17.4895 78.6544 17.2946 78.8061 17.1784C79.1701 16.899 79.179 16.6685 79.1831 16.5572C79.1906 16.3543 79.1434 16.2333 79.0082 16.1104C78.7367 15.8652 78.2641 15.6209 77.6416 15.4038C77.6394 15.4033 75.8861 14.7661 75.8852 14.7657C74.6517 14.3015 73.5476 13.7884 72.602 13.2393C71.5336 12.6203 70.7041 11.8184 70.1358 10.8555C69.5556 9.87248 69.2886 8.65719 69.3424 7.24388C69.4265 5.04293 70.3476 3.29587 72.0796 2.05122C73.5872 0.968984 75.5821 0.420303 78.01 0.420303C78.221 0.420303 78.4381 0.424308 78.6557 0.432763C79.4265 0.462133 80.1598 0.534223 80.8362 0.646807C81.3395 0.730467 81.8246 0.839045 82.2776 0.969429C83.4194 1.29873 84.3406 1.77754 85.0161 2.39208C85.8135 3.11921 86.214 4.04614 86.1748 5.0723C86.1472 5.80343 85.9439 6.44778 85.5705 6.98756C85.2461 7.45703 84.8394 7.86287 84.3615 8.19395L83.9143 8.50367C83.8422 8.55351 83.7585 8.57843 83.6748 8.57843C83.5858 8.57843 83.4968 8.54995 83.4221 8.49388L82.9873 8.1668C82.5935 7.87044 82.0355 7.59632 81.3293 7.35246C80.9519 7.22297 80.5447 7.12106 80.1189 7.04986C79.7353 6.98623 79.3268 6.94573 78.9045 6.92971C78.8008 6.92571 78.702 6.92393 78.6077 6.92393C77.7257 6.92393 77.315 7.08902 77.1485 7.18781C76.8855 7.34401 76.8815 7.44769 76.8784 7.53135C76.8757 7.6021 76.878 7.62302 76.9509 7.68487C77.0818 7.79568 77.4093 8.01906 78.1418 8.2785L79.9364 8.90906C82.0813 9.66021 83.7585 10.645 84.9217 11.8362C86.1913 13.137 86.7956 14.8329 86.7177 16.8781C86.6332 19.0924 85.6938 20.8839 83.9258 22.2042C82.375 23.3617 80.2519 23.9486 77.6153 23.9486H77.6149Z" fill="url(#paint3_linear_98_480)"/>
<path d="M78.0099 -0.000206513V0.840837V-0.000206513C75.4926 -0.000206513 73.4149 0.575174 71.8347 1.70947C69.9911 3.03378 69.0112 4.89031 68.9222 7.22787C68.8653 8.72306 69.1518 10.0153 69.7739 11.0695C70.3787 12.0948 71.2593 12.9474 72.391 13.6033C73.3566 14.1636 74.482 14.6874 75.7356 15.159C75.7382 15.1599 75.7449 15.1622 75.7476 15.1635C75.7476 15.1635 75.752 15.1648 75.7525 15.1653L77.4826 15.7941L77.4871 15.7954C77.4911 15.7967 77.4951 15.7985 77.4991 15.7998L77.504 15.8016C78.2226 16.0517 78.5657 16.2778 78.7264 16.4228C78.7504 16.4446 78.7575 16.4562 78.758 16.4571C78.7575 16.4571 78.7651 16.4802 78.7629 16.5412C78.7607 16.5986 78.7571 16.6854 78.5493 16.8451C78.5199 16.8678 78.2302 17.069 77.281 17.069C77.1894 17.069 77.0928 17.0672 76.9949 17.0632C76.6758 17.0512 76.3666 17.0205 76.0755 16.972C75.546 16.8839 75.0565 16.7334 74.6195 16.5243C73.8786 16.1705 73.2676 15.7838 72.8039 15.3753L72.447 15.0607C72.2904 14.9232 72.0919 14.8511 71.8908 14.8511C71.7791 14.8511 71.667 14.8734 71.5602 14.9187L71.1232 15.1056C70.4859 15.3784 69.9039 15.803 69.3926 16.3677C68.7794 17.0454 68.4496 17.8731 68.4131 18.828C68.3678 20.0144 68.8403 21.1109 69.7793 22C70.5616 22.7409 71.6055 23.3185 72.8814 23.7163C73.4407 23.8908 74.0415 24.0323 74.6676 24.1364C75.3604 24.2517 76.1058 24.3251 76.8819 24.3549C77.1293 24.3642 77.3758 24.3691 77.6148 24.3691C80.3439 24.3691 82.552 23.7542 84.1771 22.5411C86.0519 21.1416 87.0478 19.2414 87.1377 16.8941C87.22 14.7296 86.5761 12.9287 85.2229 11.5426C84.0138 10.3041 82.2815 9.28465 80.0747 8.51213L78.2801 7.88113C77.8698 7.73606 77.6054 7.60745 77.4399 7.51133C77.5903 7.44681 77.9347 7.34446 78.608 7.34446C78.6979 7.34446 78.7922 7.34624 78.8884 7.3498C79.2929 7.36538 79.6836 7.40409 80.0494 7.46506C80.4525 7.53225 80.837 7.62792 81.1926 7.7503C81.8565 7.97947 82.3758 8.23268 82.7345 8.50279L83.1688 8.82986C83.3183 8.94245 83.4963 8.99896 83.6747 8.99896C83.8421 8.99896 84.0094 8.94912 84.1536 8.84944L84.6008 8.53928C85.1205 8.17972 85.5629 7.73784 85.9162 7.22698C86.3358 6.62001 86.5641 5.90089 86.5953 5.08833C86.6393 3.93401 86.1912 2.8945 85.299 2.08149C84.5754 1.42289 83.5982 0.912926 82.3945 0.565384C81.9255 0.43055 81.4248 0.318411 80.9051 0.232081C80.2113 0.116382 79.4602 0.0425129 78.6717 0.0126981C78.4492 0.00424315 78.2267 -0.000206513 78.0099 -0.000206513ZM78.0099 0.840837C78.2164 0.840837 78.4265 0.844842 78.6396 0.853297C79.3925 0.881776 80.1081 0.952087 80.7667 1.06156C81.2549 1.14299 81.7239 1.24801 82.1613 1.3735C83.2404 1.68499 84.1055 2.13222 84.7325 2.70315C85.4356 3.34394 85.7889 4.1574 85.7547 5.05629C85.7297 5.70643 85.5513 6.27558 85.2247 6.74861C84.9287 7.17625 84.5581 7.54605 84.122 7.8482L83.6747 8.15792L83.24 7.83084C82.811 7.50778 82.2138 7.21319 81.4662 6.95509C81.0671 6.81759 80.6368 6.7099 80.1878 6.63514C79.7868 6.56839 79.3605 6.52611 78.9204 6.50965C78.8109 6.5052 78.7073 6.50342 78.608 6.50342C77.6842 6.50342 77.1903 6.6743 76.9339 6.82604C76.5285 7.06678 76.4658 7.30975 76.4578 7.51534C76.4498 7.72449 76.5139 7.86644 76.6798 8.00617C76.8654 8.1637 77.2459 8.40711 78.001 8.675L79.797 9.30601C81.8801 10.0354 83.5034 10.9854 84.6208 12.13C85.8067 13.3448 86.3705 14.937 86.2971 16.862C86.2179 18.9429 85.3355 20.6272 83.6743 21.8674C82.1956 22.9705 80.1602 23.5281 77.6148 23.5281C77.3856 23.5281 77.1515 23.5236 76.9144 23.5143C76.173 23.4863 75.4637 23.4164 74.806 23.3069C74.2177 23.209 73.6543 23.0764 73.1319 22.9136C71.9793 22.554 71.0457 22.0409 70.3578 21.389C69.5888 20.6614 69.2173 19.8106 69.2537 18.8601C69.2822 18.108 69.539 17.4592 70.0165 16.9319C70.4454 16.4575 70.9292 16.1038 71.4538 15.8791L71.8912 15.6922L72.2481 16.0063C72.7701 16.466 73.4456 16.8959 74.2564 17.283C74.7646 17.526 75.3302 17.7004 75.9376 17.8014C76.2633 17.8557 76.6082 17.8904 76.9629 17.9038C77.0741 17.9078 77.18 17.91 77.281 17.91C78.3143 17.91 78.8185 17.6986 79.0619 17.5122C79.5287 17.1535 79.5941 16.8046 79.603 16.5737C79.6159 16.2453 79.5189 16.0063 79.2902 15.799C78.9725 15.5119 78.4643 15.2454 77.7799 15.0069L77.775 15.0051L77.7701 15.0033L76.0395 14.3745L76.0355 14.3732L76.0315 14.3718C74.8215 13.9162 73.7384 13.4129 72.8128 12.8758C71.8076 12.2933 71.0288 11.5417 70.498 10.6419C69.9595 9.7292 69.7116 8.59134 69.7628 7.25991C69.8416 5.19513 70.7035 3.55799 72.3251 2.39298C73.7611 1.36193 75.671 0.840837 78.0099 0.840837Z" fill="#111111"/>
<path d="M8.09985 31.9874L9.7588 31.8143C10.7503 31.7106 11.1405 31.448 11.2851 31.3007C11.3737 31.2109 11.5806 31.0004 11.5192 30.413C11.4845 30.0823 11.3701 29.9052 11.0974 29.7584C10.825 29.6124 10.4005 29.5354 9.87005 29.5354C9.64399 29.5354 9.39524 29.5492 9.13091 29.5768C8.74866 29.6169 8.34104 29.6747 7.91918 29.7495C7.90183 29.7526 7.88447 29.7557 7.86712 29.7588L8.09985 31.9874ZM8.9765 40.3796C9.06594 40.3796 9.15939 40.3787 9.25551 40.3764C9.75346 40.3653 10.2314 40.336 10.6768 40.2897C11.5281 40.2007 12.1805 39.9795 12.6161 39.6324C12.8693 39.4304 13.0264 39.1839 12.9695 38.6361C12.904 38.0131 12.6473 37.8725 12.5378 37.8124C12.273 37.6673 11.8583 37.5903 11.339 37.5903C11.1209 37.5903 10.882 37.6037 10.6292 37.6304L8.71039 37.8306L8.9765 40.3796ZM8.27296 46.6335C7.85422 46.6335 7.42479 46.622 6.99671 46.5993C6.23487 46.5583 5.52199 46.4613 4.87719 46.3105C4.87452 46.31 4.86606 46.3083 4.86339 46.3074C2.63975 45.7493 2.15247 44.1772 2.05991 43.2894L0.437457 27.7612C0.361363 27.031 0.533132 26.4009 0.948758 25.8882C1.27583 25.4851 1.7146 25.1562 2.25349 24.911C3.03446 24.5404 4.00321 24.2315 5.12639 23.9957C6.2015 23.7701 7.32333 23.5956 8.46075 23.4768C9.20878 23.3989 9.9279 23.3593 10.5976 23.3593C12.5276 23.3593 14.1683 23.6895 15.4739 24.341C17.4083 25.3071 18.511 26.9634 18.7513 29.2635C18.8884 30.5758 18.6125 31.7631 17.9312 32.7924C17.7687 33.0371 17.5836 33.273 17.3767 33.4968C17.9628 33.8127 18.4701 34.1959 18.8901 34.6409C19.7445 35.5469 20.25 36.6963 20.3924 38.0576C20.6545 40.5678 19.8883 42.5716 18.1149 44.0125C16.4898 45.3337 14.0944 46.1681 10.9963 46.4916C10.4566 46.5481 9.83267 46.5904 9.14248 46.6171C8.85724 46.6282 8.56443 46.6335 8.27296 46.6335Z" fill="url(#paint4_linear_98_480)"/>
<path d="M9.26704 39.1127C9.21474 38.6116 9.57853 38.163 10.0796 38.1107L10.6729 38.0488C10.9118 38.0239 11.1361 38.011 11.339 38.011C11.9362 38.011 12.2201 38.1178 12.3358 38.1814C12.3919 38.2121 12.5089 38.2762 12.5512 38.6798C12.593 39.0799 12.4956 39.1907 12.3541 39.3037C11.9874 39.5956 11.3924 39.7919 10.6333 39.8715C10.4916 39.8862 10.3467 39.8992 10.1989 39.9103C9.72338 39.9462 9.31655 39.587 9.26704 39.1127V39.1127ZM8.39852 30.7978C8.35808 30.4109 8.62711 30.0576 9.01351 30.0129C9.0677 30.0067 9.12139 30.0008 9.17457 29.9953C9.42422 29.969 9.65828 29.9557 9.8701 29.9557C10.4838 29.9557 10.7779 30.0647 10.8989 30.1292C11.0275 30.1986 11.0787 30.2449 11.101 30.4567C11.1415 30.847 11.04 30.9507 10.9853 31.0063C10.9381 31.0539 10.6564 31.2978 9.71524 31.3961L9.20244 31.4496C8.80045 31.4916 8.44053 31.1998 8.39852 30.7978V30.7978ZM10.5977 22.9385C9.91327 22.9385 9.17947 22.979 8.41719 23.0587C7.26509 23.1792 6.12902 23.3559 5.04011 23.5842C3.88668 23.8263 2.88855 24.1449 2.07287 24.5311C1.47702 24.8035 0.988859 25.171 0.622182 25.6232C0.140695 26.2172 -0.067563 26.9719 0.0192113 27.8054L1.64167 43.3331C1.7458 44.3299 2.28869 46.0948 4.75576 46.7142L4.76243 46.7156C4.76733 46.7169 4.77222 46.7182 4.77712 46.7191L4.78335 46.7209C5.45084 46.8766 6.1882 46.9772 6.97362 47.0195C7.40972 47.0426 7.8467 47.0542 8.27301 47.0542C8.56893 47.0542 8.86663 47.0484 9.15811 47.0373C9.85764 47.0101 10.4909 46.9674 11.0404 46.91C14.2208 46.5776 16.6906 45.7125 18.3802 44.3388C19.3209 43.5748 20.0045 42.6443 20.4116 41.5732C20.813 40.5181 20.947 39.3206 20.8108 38.0136C20.6586 36.5585 20.1153 35.3268 19.1959 34.3522C18.9534 34.0954 18.684 33.8579 18.3895 33.6406C18.1965 33.4982 18.1492 33.2242 18.2819 33.0243V33.0243C19.0183 31.9119 19.3169 30.632 19.1692 29.2196C19.0433 28.0146 18.6837 26.9577 18.1003 26.0784C17.5098 25.1893 16.6897 24.4782 15.6622 23.9651C14.2974 23.2838 12.5935 22.9385 10.5977 22.9385ZM8.96498 40.8002C9.0611 40.8002 9.16167 40.7993 9.26491 40.7967C9.77309 40.7855 10.2626 40.7557 10.7209 40.7077C11.6528 40.6106 12.379 40.3592 12.8783 39.9614C13.2948 39.6294 13.4519 39.2071 13.3874 38.5921C13.3086 37.8379 12.9802 37.5753 12.7403 37.4436C12.4088 37.262 11.9371 37.1699 11.339 37.1699C11.1067 37.1699 10.8531 37.1842 10.5857 37.2122L10.0327 37.27C9.04728 37.373 8.33192 38.2553 8.4348 39.2407L8.55875 40.4279C8.58066 40.6378 8.75397 40.8002 8.96498 40.8002V40.8002ZM7.55833 30.8521C7.6505 31.7343 8.44035 32.3747 9.32247 32.2824L9.80246 32.2323C10.6462 32.1441 11.2625 31.9239 11.5851 31.5955C11.7716 31.4059 12.011 31.0726 11.9376 30.3695C11.8886 29.9027 11.691 29.6001 11.2963 29.3883C10.9586 29.2067 10.4784 29.1146 9.8701 29.1146C9.62936 29.1146 9.36592 29.1293 9.08735 29.1587C8.69576 29.1996 8.27835 29.2592 7.84581 29.3358V29.3358C7.59626 29.38 7.42876 29.612 7.4551 29.8641L7.55833 30.8521ZM10.5977 23.78C12.4622 23.78 14.0397 24.095 15.2862 24.7176C17.0835 25.6152 18.1083 27.1593 18.333 29.3073C18.4594 30.5199 18.2062 31.6146 17.5806 32.5602V32.5602C17.2187 33.1065 17.3481 33.9195 17.8765 34.3069C18.1356 34.4968 18.3716 34.7044 18.584 34.9294C19.3739 35.7669 19.8416 36.834 19.9742 38.1013C20.2207 40.4616 19.5061 42.3404 17.8498 43.686C16.2887 44.9552 13.9685 45.7584 10.9528 46.0734C10.4215 46.1291 9.80691 46.1704 9.12607 46.1971C8.84527 46.2078 8.55781 46.2132 8.27301 46.2132C7.86139 46.2132 7.43997 46.202 7.01901 46.1793C6.28254 46.1397 5.59413 46.0463 4.97291 45.9012L4.96668 45.8999L4.96045 45.8981C3.0888 45.4286 2.5775 44.1964 2.47826 43.2459L0.855805 27.7178C0.791726 27.1023 0.932789 26.5759 1.27544 26.1532C1.56112 25.8012 1.94872 25.5119 2.42798 25.2934C3.18492 24.9348 4.12164 24.6366 5.21277 24.4074C6.27364 24.1849 7.38124 24.0127 8.50441 23.8952C9.23821 23.8187 9.94219 23.78 10.5977 23.78Z" fill="#111111"/>
<path d="M29.8385 30.3681C28.9579 30.3681 28.2228 30.6658 27.5913 31.2781C26.8237 32.0226 26.3493 33.2779 26.1807 35.0089C26.0098 36.7631 26.2287 38.0985 26.8308 38.977C27.3951 39.8011 28.2085 40.2541 29.317 40.3622C29.4683 40.3769 29.6183 40.3845 29.762 40.3845C30.6653 40.3845 31.4049 40.0895 32.0235 39.4825C32.7835 38.7362 33.2557 37.468 33.4265 35.7142C33.5934 33.9997 33.3718 32.6789 32.7688 31.788C32.2046 30.9563 31.3827 30.4984 30.2559 30.389C30.1131 30.3752 29.9725 30.3681 29.8385 30.3681ZM30.0143 46.6451C29.58 46.6451 29.131 46.6229 28.6802 46.5788C26.639 46.3804 24.8225 45.764 23.2811 44.7472C21.7089 43.7104 20.5172 42.2828 19.7385 40.5055C18.9704 38.7536 18.6976 36.6665 18.9277 34.3027C19.1582 31.9349 19.8412 29.9373 20.9577 28.366C22.0863 26.7774 23.5405 25.6159 25.2804 24.9137C26.6101 24.3771 28.0497 24.1047 29.5591 24.1047H29.5595C29.9845 24.1047 30.4224 24.1265 30.8611 24.1693C32.8783 24.3655 34.6877 24.9743 36.238 25.9786C37.8209 27.0043 39.0304 28.4256 39.8323 30.203C40.6248 31.9616 40.9101 34.0531 40.6795 36.42C40.4495 38.7856 39.7726 40.7819 38.6686 42.3536C37.5503 43.9449 36.0952 45.1135 34.3432 45.8255C33.006 46.3692 31.5491 46.6451 30.0143 46.6451Z" fill="url(#paint5_linear_98_480)"/>
<path d="M29.7619 39.964C29.632 39.964 29.4962 39.9573 29.3579 39.9435C28.3673 39.8474 27.6744 39.4647 27.1778 38.7398C26.6331 37.9446 26.4382 36.703 26.5993 35.0494C26.7582 33.4203 27.1903 32.2531 27.8845 31.5798C28.4407 31.04 29.0619 30.7886 29.8385 30.7886C29.9599 30.7886 30.0868 30.7948 30.2154 30.8077C31.2237 30.9056 31.9246 31.2923 32.4208 32.0243C32.9677 32.8311 33.1652 34.0593 33.0082 35.6733C32.8471 37.3265 32.4168 38.5071 31.7288 39.1826C31.1855 39.7157 30.5607 39.964 29.7619 39.964ZM29.5594 23.6842C27.9953 23.6842 26.5028 23.9668 25.1233 24.5235C23.3077 25.2568 21.7907 26.4677 20.615 28.1222C19.4553 29.7544 18.7469 31.8201 18.5093 34.2622C18.2721 36.6981 18.556 38.8559 19.3534 40.6746C20.1651 42.5276 21.4089 44.0157 23.05 45.0983C24.6489 46.153 26.5295 46.792 28.6396 46.9976C29.1033 47.0425 29.5657 47.0657 30.0142 47.0657C31.6042 47.0657 33.1136 46.7795 34.502 46.2153C36.3301 45.4721 37.8475 44.2542 39.0129 42.5952C40.1593 40.9639 40.861 38.9 41.0982 36.461C41.3358 34.0197 41.039 31.8561 40.2158 30.0303C39.3801 28.1778 38.1185 26.696 36.4671 25.6257C34.8589 24.5844 32.9868 23.9534 30.9024 23.7505C30.4499 23.7069 29.9982 23.6842 29.5594 23.6842ZM29.7619 40.805C30.781 40.805 31.6171 40.4708 32.318 39.7829C33.151 38.965 33.6645 37.6099 33.8452 35.7548C34.0219 33.9401 33.7767 32.5263 33.1167 31.5522C32.4782 30.6101 31.5557 30.0931 30.2968 29.9702C30.141 29.9551 29.9871 29.9475 29.8385 29.9475C28.843 29.9475 28.0122 30.284 27.2989 30.9764C26.4578 31.7921 25.9407 33.1351 25.7623 34.968C25.5816 36.8236 25.8246 38.2525 26.4841 39.215C27.1231 40.1478 28.0362 40.6599 29.2764 40.781C29.4415 40.797 29.6048 40.805 29.7619 40.805ZM29.5594 24.5257C29.9711 24.5257 30.3956 24.5466 30.8206 24.588C32.7701 24.7776 34.5158 25.3641 36.0097 26.3315C37.5235 27.3127 38.681 28.6731 39.449 30.3761C40.2113 32.0666 40.4846 34.0865 40.2612 36.3795C40.0378 38.6717 39.3863 40.6008 38.3245 42.1115C37.2539 43.6361 35.861 44.7548 34.1852 45.4361C32.8982 45.959 31.4947 46.2242 30.0142 46.2242C29.5928 46.2242 29.1576 46.2028 28.7211 46.1601C26.7484 45.9683 24.9964 45.3747 23.5128 44.3961C22.0096 43.4047 20.8691 42.0385 20.1237 40.3369C19.385 38.6512 19.1234 36.635 19.3463 34.3437C19.5697 32.0497 20.2274 30.1202 21.3007 28.6094C22.3821 27.0876 23.774 25.9755 25.4383 25.3036C26.7172 24.7874 28.1039 24.5257 29.5594 24.5257V24.9022V24.5257Z" fill="#111111"/>
<path d="M50.2502 30.4212C49.5115 30.4212 48.8583 30.6553 48.254 31.1372C47.4058 31.8132 46.8037 33.032 46.4637 34.7604C46.1193 36.5124 46.2087 37.8803 46.7298 38.8259C47.113 39.5219 47.6621 39.9962 48.4088 40.2757C48.6229 40.3558 48.8569 40.4212 49.1043 40.4702C49.3927 40.5267 49.6717 40.5556 49.9329 40.5556C50.6827 40.5556 51.3342 40.3242 51.9243 39.848C52.7649 39.1694 53.3661 37.9372 53.7105 36.1862C54.0474 34.4743 53.9539 33.1206 53.4324 32.1621C53.051 31.4612 52.4974 30.9828 51.7409 30.6994C51.5233 30.6179 51.2853 30.5512 51.033 30.5013C50.762 30.4484 50.4985 30.4212 50.2502 30.4212ZM50.4095 46.8937C49.5809 46.8937 48.7225 46.8073 47.8584 46.6374C47.1183 46.4918 46.4068 46.292 45.7428 46.0433C44.585 45.6094 43.5316 45.0118 42.6114 44.2673C41.1331 43.0712 40.0754 41.5203 39.4671 39.6576C38.8667 37.822 38.7969 35.6971 39.2601 33.3435C39.7238 30.9855 40.6062 29.0449 41.8825 27.5746C43.1721 26.0892 44.7474 25.0644 46.5647 24.529C47.5816 24.2296 48.6527 24.0778 49.7478 24.0778C50.5622 24.0778 51.4032 24.1619 52.2474 24.3279C52.9843 24.473 53.6954 24.6728 54.3602 24.922C55.5043 25.3505 56.5518 25.9401 57.4743 26.6735C58.9646 27.8594 60.0401 29.4058 60.672 31.2707C61.2964 33.1157 61.3778 35.2459 60.9141 37.603C60.4509 39.9589 59.5751 41.899 58.3113 43.3702C57.032 44.86 55.4549 45.8915 53.6251 46.4353C52.602 46.7393 51.5202 46.8937 50.4095 46.8937Z" fill="url(#paint6_linear_98_480)"/>
<path d="M49.9333 40.1351C49.6988 40.1351 49.4474 40.1088 49.1857 40.0576C48.9605 40.0132 48.7492 39.9544 48.5565 39.8823C47.8988 39.6358 47.4355 39.2357 47.0982 38.6234C46.6261 37.7664 46.5513 36.4941 46.8766 34.8418C47.1966 33.214 47.7484 32.0784 48.516 31.4661C49.0433 31.046 49.6107 30.8418 50.2506 30.8418C50.4717 30.8418 50.7076 30.8662 50.9519 30.9143C51.1815 30.9592 51.3973 31.0198 51.5936 31.0932C52.2606 31.3428 52.7274 31.7469 53.0634 32.3637C53.5364 33.2332 53.6156 34.4921 53.2984 36.1052C52.9731 37.7566 52.4222 38.906 51.6603 39.521C51.1481 39.9339 50.583 40.1351 49.9333 40.1351ZM49.7477 23.6573C48.6126 23.6573 47.5014 23.8148 46.4463 24.1254C44.5506 24.6844 42.9081 25.7519 41.5651 27.2992C40.2399 28.8255 39.3259 30.8315 38.8475 33.2626C38.3705 35.6878 38.4444 37.8834 39.0674 39.7889C39.7011 41.7295 40.8046 43.3462 42.347 44.5944C43.3024 45.3673 44.3953 45.9872 45.5955 46.4371C46.2808 46.6939 47.015 46.9004 47.7777 47.0503C48.6682 47.2252 49.5537 47.3142 50.4099 47.3142C51.5607 47.3142 52.6829 47.154 53.7447 46.8385C55.6537 46.2711 57.2976 45.1965 58.6308 43.6443C59.9422 42.1175 60.8495 40.1124 61.327 37.6845C61.8049 35.2544 61.7186 33.0512 61.0707 31.1364C60.4125 29.1935 59.2907 27.5813 57.7363 26.3446C56.7791 25.5832 55.6933 24.9723 54.5079 24.5282C53.8217 24.271 53.0883 24.0649 52.3287 23.9154C51.4579 23.7441 50.5892 23.6573 49.7477 23.6573ZM49.9333 40.9761C50.7806 40.9761 51.5246 40.7109 52.1885 40.1751C53.1084 39.4329 53.7594 38.1184 54.1234 36.2672C54.4794 34.4569 54.3713 33.008 53.8021 31.9614C53.37 31.1675 52.7439 30.6259 51.8886 30.3055C51.6497 30.2161 51.3889 30.1431 51.1139 30.0888C50.8153 30.0301 50.5278 30.0007 50.2506 30.0007C49.4144 30.0007 48.67 30.2682 47.9918 30.8084C47.064 31.5484 46.4112 32.8505 46.0512 34.6794C45.6871 36.5306 45.7913 37.9942 46.3618 39.0293C46.7952 39.8165 47.4168 40.3531 48.2615 40.6695C48.4969 40.7581 48.7532 40.8297 49.0233 40.8827C49.3397 40.945 49.6423 40.9761 49.9333 40.9761ZM49.7477 24.4983C50.5372 24.4983 51.3448 24.5789 52.1663 24.7409C52.881 24.8815 53.5698 25.0746 54.2128 25.3158C55.3155 25.7292 56.3248 26.2966 57.2126 27.0028C58.6388 28.1375 59.6685 29.6189 60.2741 31.406C60.8744 33.1802 60.951 35.2379 60.502 37.5221C60.0525 39.8053 59.2084 41.681 57.9926 43.0961C56.7667 44.5241 55.2568 45.512 53.5053 46.0326C52.517 46.3263 51.4819 46.4732 50.4099 46.4732C49.6058 46.4732 48.7812 46.3904 47.9397 46.2249C47.2224 46.0838 46.5331 45.8902 45.8905 45.6495C44.7753 45.2316 43.7612 44.6567 42.8761 43.9402C41.4619 42.7962 40.4495 41.3112 39.867 39.5272C39.2894 37.7601 39.224 35.7069 39.673 33.4245C40.1225 31.1399 40.9729 29.2643 42.2002 27.8505C43.4364 26.4265 44.9449 25.4449 46.6839 24.9327C47.6665 24.643 48.6904 24.4983 49.7477 24.4983Z" fill="#111111"/>
<path d="M62.8572 46.8129C62.171 46.8129 61.5916 46.6967 61.0852 46.4569C60.4947 46.1779 59.7618 45.5611 59.6247 44.2096C59.5767 43.7393 59.5326 43.0424 59.493 42.1386C59.4538 41.2589 59.4111 40.2256 59.3653 39.0668C59.3208 37.9387 59.2696 36.7426 59.2086 35.4107C59.1495 34.1287 59.1014 32.8364 59.0658 31.5708C59.0289 30.267 58.9986 29.1256 58.9728 28.0807L58.9679 27.884C58.9661 27.812 58.983 27.7408 59.0164 27.6776L59.1085 27.5036C59.3417 27.0621 59.7644 26.6438 60.4008 26.2251C60.917 25.8856 61.556 25.6568 62.3539 25.5247C62.527 25.4962 62.7108 25.4717 62.8999 25.4526C63.1905 25.4228 63.4739 25.4081 63.7427 25.4081C64.4885 25.4081 65.1511 25.5229 65.7127 25.749C66.5693 26.0952 67.227 26.7266 67.6685 27.6264C68.0485 28.329 68.4686 29.1621 68.9176 30.1032C68.9727 30.2188 69.0279 30.3347 69.0829 30.4507C69.4088 31.1372 70.43 31.0307 70.6081 30.2919V30.2919C71.0286 28.5444 71.4024 27.0483 71.7193 25.8446L71.7887 25.5812C71.8136 25.4864 71.871 25.4032 71.9507 25.3462L72.1723 25.1883C72.5394 24.9257 73.0004 24.7054 73.5424 24.5332C73.8837 24.4251 74.2446 24.3388 74.6149 24.2778C74.7893 24.2489 74.97 24.2248 75.152 24.2061C75.463 24.1746 75.7621 24.1585 76.0411 24.1585C76.7139 24.1585 77.2955 24.248 77.8188 24.4327C78.9758 24.842 79.4391 25.6381 79.6242 26.234C79.7573 26.6527 79.9121 27.2775 80.0968 28.1417C80.2712 28.956 80.463 29.895 80.6833 31.011C80.8924 32.0746 81.1123 33.2155 81.337 34.4024C81.5657 35.6154 81.7824 36.776 81.9809 37.8529C82.1865 38.968 82.368 39.9857 82.5207 40.8766C82.6733 41.7702 82.789 42.4955 82.8647 43.0317L82.927 43.4736C82.9483 43.6254 82.8851 43.7771 82.7623 43.8692L82.405 44.1362C82.0339 44.4134 81.6307 44.6368 81.2062 44.8001C80.9085 44.915 80.5609 45.0053 80.1733 45.0698C80.0091 45.097 79.8338 45.1201 79.6522 45.1383C79.452 45.1588 79.254 45.169 79.0631 45.169C78.4539 45.169 77.8909 45.0654 77.3903 44.8602C76.7829 44.6115 76.0117 44.0241 75.7874 42.637C75.5267 41.0773 75.2886 39.555 75.0799 38.115V38.115C75.0476 37.8928 74.7319 37.8786 74.6807 38.0972C74.5415 38.692 74.3947 39.3243 74.2411 39.9924L74.1926 40.2029C74.1752 40.2794 74.1361 40.3497 74.0804 40.4054L73.9282 40.5584C73.6203 40.8668 73.2131 41.1338 72.7179 41.3523C72.3516 41.5134 71.9404 41.6322 71.4963 41.7061C71.3633 41.7279 71.2258 41.7461 71.0869 41.7604C70.8248 41.7871 70.5721 41.8004 70.3358 41.8004C69.865 41.8004 69.4453 41.7492 69.0533 41.6433C68.2692 41.4329 67.6921 40.954 67.3841 40.259C67.0692 39.5991 66.7703 38.9754 66.4887 38.3907C66.416 38.2398 66.1901 38.3009 66.204 38.4678V38.4678C66.2859 39.4758 66.3602 40.5166 66.4256 41.5628C66.4906 42.6121 66.5462 43.7771 66.5916 45.0253L66.6107 45.5624C66.6174 45.7422 66.5093 45.906 66.3415 45.9705L65.84 46.1632C65.6024 46.2548 65.2958 46.3612 64.9033 46.4889C64.5842 46.5926 64.2616 46.6714 63.9439 46.7239C63.8152 46.7452 63.6858 46.7626 63.5598 46.7755C63.3151 46.8004 63.0788 46.8129 62.8572 46.8129Z" fill="url(#paint7_linear_98_480)"/>
<path d="M76.0409 23.7379C75.7481 23.7379 75.4344 23.7548 75.1091 23.7877C74.919 23.8073 74.7295 23.8322 74.5461 23.8625C74.1559 23.9275 73.7754 24.0182 73.415 24.1326C72.8307 24.3182 72.3305 24.558 71.9278 24.8459L71.7062 25.0039C71.5464 25.1183 71.4316 25.2843 71.3818 25.4743L71.3128 25.7373C70.9951 26.9437 70.6208 28.4429 70.1994 30.1935C70.1126 30.5535 70.0263 30.9175 69.9404 31.2837C69.7273 30.8285 69.5128 30.3737 69.2974 29.922C68.8466 28.9777 68.4243 28.1407 68.0421 27.4332C67.5539 26.4421 66.8237 25.7444 65.8705 25.3595C65.2582 25.1125 64.5426 24.9875 63.7425 24.9875C63.4599 24.9875 63.1618 25.003 62.857 25.0342C62.6598 25.0542 62.4676 25.0796 62.2851 25.1098C61.4281 25.2518 60.7361 25.5014 60.1701 25.8734C59.4723 26.3327 59.0037 26.8013 58.7363 27.3072L58.6446 27.4808C58.5774 27.608 58.5441 27.7504 58.5476 27.8942L58.5525 28.0904C58.5779 29.129 58.6081 30.2713 58.6451 31.5827C58.6811 32.8528 58.7296 34.1473 58.7884 35.4302C58.8493 36.7612 58.9005 37.9564 58.945 39.0836C58.9904 40.2357 59.0331 41.2699 59.0727 42.1576C59.1128 43.0694 59.1577 43.7743 59.2062 44.2522C59.3718 45.8805 60.3418 46.5707 60.9057 46.8372C61.469 47.1038 62.1071 47.2333 62.857 47.2333C63.0928 47.2333 63.3433 47.2199 63.6023 47.1937C63.7381 47.1799 63.8765 47.1616 64.0126 47.1389C64.3508 47.0829 64.6939 46.9988 65.0321 46.8893C65.4335 46.7585 65.7463 46.6499 65.9906 46.556L66.4926 46.3629C66.8277 46.2338 67.0439 45.9063 67.031 45.5472L67.0115 45.0101C66.9665 43.7565 66.9104 42.588 66.8455 41.5369C66.8103 40.9797 66.7729 40.4235 66.7333 39.8726C66.8214 40.0568 66.9109 40.2446 67.0021 40.4351C67.359 41.2361 68.0487 41.8092 68.945 42.0495C69.3722 42.1648 69.8274 42.2208 70.3356 42.2208C70.5861 42.2208 70.8531 42.2066 71.129 42.1786C71.2772 42.1634 71.424 42.1443 71.5651 42.1207C72.0439 42.0415 72.4889 41.9125 72.8872 41.7371C73.4305 41.4973 73.8809 41.2009 74.2257 40.8551L74.3784 40.7025C74.4896 40.5913 74.5671 40.4506 74.6027 40.2971L74.6507 40.0866C74.7121 39.821 74.7722 39.5606 74.8309 39.3066C74.9974 40.4093 75.1789 41.5489 75.3729 42.7086C75.6408 44.3666 76.6523 45.0123 77.2308 45.2495C77.7826 45.4751 78.3989 45.5895 79.0629 45.5895C79.268 45.5895 79.4807 45.5788 79.6947 45.557C79.8857 45.5374 80.0699 45.5129 80.2421 45.4844C80.6582 45.4155 81.0333 45.3176 81.3573 45.1925C81.8178 45.0154 82.2548 44.7733 82.6566 44.473L83.014 44.206C83.2601 44.0222 83.3864 43.7187 83.3433 43.4148L83.281 42.9729C83.2044 42.4304 83.0883 41.7011 82.9352 40.8057C82.7826 39.9153 82.6006 38.8963 82.3945 37.7762C82.1947 36.694 81.978 35.533 81.7502 34.3248C81.5232 33.1238 81.303 31.9815 81.0956 30.9299C80.8758 29.8161 80.684 28.8754 80.5082 28.0535C80.3204 27.1768 80.1624 26.54 80.0245 26.1062C79.7223 25.1356 78.989 24.4009 77.9593 24.0365C77.3892 23.8354 76.7622 23.7379 76.0409 23.7379ZM76.0409 24.5789C76.6634 24.5789 77.2041 24.6622 77.6789 24.8295C78.6704 25.1801 79.0655 25.8539 79.2226 26.3589C79.3521 26.7665 79.5034 27.3784 79.6854 28.2297C79.8603 29.0458 80.0512 29.9821 80.2706 31.0924C80.4779 32.147 80.6978 33.2866 80.9238 34.4806C81.1512 35.6856 81.3675 36.8457 81.5673 37.9288C81.7729 39.0453 81.9544 40.0608 82.1062 40.9477C82.2575 41.8337 82.3727 42.5546 82.4484 43.0904L82.5107 43.5322L82.1534 43.7992C81.8134 44.0533 81.4436 44.258 81.0551 44.4075C80.7841 44.5121 80.4646 44.5953 80.105 44.6545C79.9493 44.6803 79.7829 44.7026 79.6093 44.7199C79.4224 44.7391 79.2404 44.7484 79.0629 44.7484C78.5079 44.7484 78.0006 44.6559 77.5494 44.4712C77.0417 44.2629 76.3955 43.7645 76.2024 42.5697C75.9425 41.0144 75.7049 39.4952 75.4962 38.0548C75.3271 36.8889 75.1749 35.7911 75.0423 34.7818C74.7117 36.1208 74.3045 37.8407 73.831 39.898L73.783 40.1084L73.6303 40.2611C73.3598 40.5325 72.9958 40.7701 72.5481 40.9673C72.2144 41.1141 71.8374 41.2232 71.4276 41.2908C71.3039 41.3113 71.1748 41.3286 71.044 41.342C70.7953 41.3673 70.5594 41.3798 70.3356 41.3798C69.9035 41.3798 69.5159 41.3326 69.163 41.2374C68.5031 41.0603 68.0207 40.6616 67.7662 40.0835C66.9078 38.2844 66.1695 36.7572 65.5706 35.5414C65.6346 36.5494 65.7063 37.5448 65.7846 38.5024C65.8665 39.5099 65.9408 40.5485 66.0058 41.5889C66.0703 42.632 66.1259 43.7935 66.1713 45.0403L66.1904 45.5779L65.6889 45.7706C65.4584 45.8591 65.1594 45.9633 64.7731 46.0892C64.4745 46.1858 64.1724 46.2601 63.8751 46.309C63.7563 46.3286 63.6357 46.3451 63.5169 46.3571C63.2859 46.3807 63.0661 46.3922 62.857 46.3922C62.2358 46.3922 61.7111 46.2877 61.2652 46.0767C60.7726 45.844 60.1603 45.3234 60.0428 44.1673C59.9961 43.7049 59.952 43.016 59.9129 42.1203C59.8737 41.2338 59.831 40.2006 59.7856 39.0502C59.7407 37.9208 59.6895 36.7238 59.6285 35.3915C59.5698 34.1148 59.5217 32.8256 59.4861 31.5587C59.4492 30.2562 59.4189 29.1148 59.3931 28.0704L59.3882 27.8737L59.4803 27.6997C59.6792 27.3228 60.0562 26.9552 60.632 26.5761C61.0979 26.2699 61.6835 26.0617 62.4227 25.9397C62.5877 25.9122 62.7622 25.889 62.942 25.8708C63.2201 25.8427 63.4871 25.8285 63.7425 25.8285C64.4349 25.8285 65.0423 25.9322 65.5554 26.1391C66.315 26.4462 66.9002 27.0113 67.2945 27.8185C67.6718 28.5167 68.0901 29.3462 68.5382 30.2842C68.985 31.221 69.4305 32.1741 69.8621 33.1171C69.9814 33.3783 70.0984 33.6328 70.2128 33.8798C70.4726 32.6997 70.7419 31.532 71.0169 30.3906C71.4369 28.6462 71.8099 27.1528 72.1258 25.9513L72.1952 25.6883L72.4168 25.5303C72.7479 25.2936 73.1693 25.0929 73.6695 24.9341C73.9917 24.8317 74.333 24.7507 74.6836 24.6924C74.8501 24.6648 75.0218 24.6421 75.1945 24.6243C75.4922 24.5941 75.7743 24.5789 76.0409 24.5789Z" fill="#111111"/>
<path d="M93.7372 46.1632C93.6041 46.1632 93.4657 46.1552 93.326 46.1387L83.6371 45.0089C83.5814 45.0022 83.528 44.9849 83.48 44.9577C82.6158 44.7543 81.9252 44.3312 81.4245 43.6984C80.8167 42.9303 80.575 41.9647 80.7076 40.8286L82.274 27.3955C82.4066 26.2603 82.8637 25.3761 83.6326 24.7673C84.2641 24.268 85.0326 24.0153 85.9177 24.0153H85.9217C85.9586 24.0046 85.9978 23.9988 86.0378 23.9988C86.0538 23.9988 86.0703 23.9997 86.0868 24.0015L97.2112 25.2991C97.3545 25.3156 97.4791 25.4046 97.5414 25.5341L97.6416 25.7414C97.7924 26.0552 97.9134 26.437 98.0016 26.8766C98.0928 27.3367 98.1075 27.8374 98.0461 28.3656C97.9295 29.3641 97.5926 30.1046 97.0448 30.5656C96.578 30.959 96.008 31.1584 95.3507 31.1584C95.2199 31.1584 95.0842 31.1504 94.9471 31.1343L89.0794 30.4499L88.9294 31.7369L95.4704 32.4996C95.6133 32.5161 95.7379 32.6051 95.8002 32.7345L95.9003 32.9419C96.0511 33.2552 96.1726 33.6374 96.2603 34.0771C96.3515 34.5372 96.3666 35.0378 96.3052 35.5661C96.1882 36.5691 95.8487 37.3069 95.2964 37.7581C94.8332 38.1364 94.2694 38.3277 93.6206 38.3277C93.4875 38.3277 93.3496 38.3193 93.2098 38.3032L88.2317 37.7225L88.0372 39.3904L95.5941 40.2715C95.737 40.2884 95.8616 40.3769 95.9243 40.5069L96.024 40.7142C96.1771 41.0324 96.2981 41.4293 96.3831 41.8944C96.4694 42.3709 96.4823 42.8778 96.4214 43.4016C96.3043 44.405 95.9648 45.1424 95.4126 45.5941C94.9498 45.9719 94.386 46.1632 93.7372 46.1632Z" fill="url(#paint8_linear_98_480)"/>
<path d="M86.037 23.5781V23.5781C85.9255 23.5781 85.8144 23.5942 85.7031 23.599C84.8103 23.638 84.0267 23.9195 83.3714 24.4378C82.5117 25.1178 82.0022 26.0968 81.8562 27.3468L80.2898 40.7799C80.1439 42.0308 80.4149 43.1005 81.0953 43.9598C81.5948 44.5922 82.261 45.037 83.0794 45.2855C83.2477 45.3366 83.4133 45.4063 83.5881 45.4265V45.4265L93.2771 46.5564C93.4328 46.5746 93.5877 46.584 93.7367 46.584C94.4852 46.584 95.138 46.3606 95.6778 45.92C96.3182 45.3967 96.7089 44.5659 96.8388 43.4503C96.9047 42.8852 96.8904 42.3369 96.7965 41.8199C96.7044 41.3166 96.5723 40.8836 96.4027 40.5316L96.303 40.3242C96.178 40.0648 95.9288 39.8872 95.6427 39.8539L88.9192 39.0698C88.6894 39.043 88.5248 38.835 88.5516 38.6052V38.6052C88.5784 38.3754 88.7864 38.2108 89.0162 38.2376L93.1609 38.7209C93.3167 38.7391 93.4715 38.748 93.6206 38.748C94.3691 38.748 95.0219 38.5247 95.5617 38.0845C96.202 37.5612 96.5923 36.7304 96.7227 35.6148C96.789 35.0434 96.7725 34.4988 96.6728 33.9959C96.5776 33.5202 96.4454 33.1046 96.279 32.7593L96.1789 32.5519C96.0538 32.2925 95.8051 32.1149 95.5189 32.0815L89.6214 31.3941C89.4968 31.3795 89.4075 31.2668 89.422 31.1422V31.1422C89.4365 31.0176 89.5493 30.9283 89.674 30.9429L94.8982 31.552C95.0513 31.5698 95.2034 31.5787 95.3503 31.5787C96.1095 31.5787 96.7707 31.3464 97.3158 30.8876C97.9482 30.355 98.3344 29.5228 98.4635 28.4143C98.5302 27.8425 98.5133 27.2978 98.4141 26.7954C98.3189 26.3197 98.1863 25.9041 98.0198 25.5588L97.9201 25.3514C97.7951 25.092 97.5459 24.9144 97.2598 24.8811L86.1353 23.5839C86.1024 23.5799 86.0694 23.5781 86.037 23.5781ZM86.0369 24.4286C86.0374 24.4234 86.0421 24.4196 86.0473 24.4203L96.9336 25.6901C97.076 25.7067 97.2001 25.795 97.2624 25.9241V25.9241C97.3982 26.2058 97.5081 26.5542 97.5891 26.9592C97.6714 27.3757 97.6847 27.8323 97.6282 28.3169C97.5245 29.2055 97.2371 29.8539 96.7738 30.2442C96.384 30.5726 95.9065 30.7377 95.3503 30.7377C95.2355 30.7377 95.1171 30.7305 94.9956 30.7167L89.7717 30.1072C89.1856 30.0388 88.6551 30.4585 88.5868 31.0446V31.0446C88.5185 31.6306 88.9381 32.161 89.5241 32.2293L95.193 32.8906C95.3352 32.9072 95.4591 32.9955 95.5212 33.1246V33.1246C95.6569 33.4063 95.7668 33.7543 95.8478 34.1597C95.9306 34.5762 95.9435 35.0328 95.887 35.5174C95.7833 36.4082 95.4949 37.0526 95.0299 37.4326C94.6432 37.7481 94.1706 37.907 93.6206 37.907C93.5036 37.907 93.3825 37.8999 93.2584 37.8852L89.1139 37.4019C88.4227 37.3213 87.797 37.8163 87.7164 38.5075V38.5075C87.6358 39.1987 88.1308 39.8244 88.822 39.905L95.3167 40.6625C95.459 40.6791 95.5828 40.7674 95.6449 40.8965V40.8965C95.7819 41.1808 95.891 41.5417 95.9693 41.9703C96.048 42.4055 96.0596 42.8705 96.0035 43.3529C95.8994 44.2442 95.6111 44.8885 95.1465 45.2681C94.7598 45.5836 94.2867 45.7425 93.7367 45.7425C93.6197 45.7425 93.4987 45.7354 93.3745 45.7211L83.6951 44.5924C83.6899 44.5918 83.6861 44.587 83.6868 44.5818V44.5818C83.6874 44.5768 83.684 44.5723 83.6792 44.5712C82.8605 44.3995 82.2142 44.0196 81.7543 43.4374C81.2176 42.7601 81.0058 41.8986 81.1251 40.8773L82.6915 27.4442C82.8107 26.4234 83.2148 25.634 83.8934 25.0973C84.4497 24.6572 85.1287 24.4356 85.9177 24.4356C85.954 24.4356 85.9906 24.436 86.0273 24.4371C86.0322 24.4373 86.0364 24.4336 86.0369 24.4286V24.4286Z" fill="#111111"/>
<path d="M104.708 34.9873L105.468 34.9552C106.178 34.9254 106.747 34.7448 107.161 34.419C107.502 34.1502 107.65 33.7756 107.628 33.2398C107.604 32.6875 107.44 32.3186 107.111 32.0783C106.783 31.8398 106.212 31.7134 105.46 31.7134C105.357 31.7134 105.249 31.7157 105.139 31.7206C104.93 31.7295 104.74 31.7441 104.573 31.7646L104.708 34.9873ZM101.476 47.5793C100.349 47.5793 99.5228 47.3546 98.951 46.8923C98.2938 46.3609 97.9342 45.4696 97.8826 44.2432L97.2445 29.1013C97.216 28.4191 97.4082 27.8571 97.8167 27.4312C98.142 27.0926 98.5616 26.8145 99.0645 26.6044C99.8388 26.2938 100.741 26.0526 101.751 25.8858C102.736 25.7233 103.799 25.6174 104.912 25.5703C105.196 25.5582 105.478 25.5525 105.751 25.5525C108.477 25.5525 110.641 26.151 112.181 27.3316C113.923 28.6679 114.857 30.5302 114.955 32.8673C115.017 34.3394 114.65 35.6935 113.863 36.8914C113.396 37.6021 112.818 38.2349 112.138 38.7786C112.163 38.8058 112.186 38.8334 112.21 38.861C112.732 39.4662 113.229 40.0527 113.686 40.6049C114.142 41.1554 114.57 41.6787 114.958 42.1597C115.358 42.6563 115.684 43.0982 115.926 43.4725L116.025 43.6247C116.088 43.7226 116.108 43.8423 116.08 43.9548L116.036 44.1311C115.808 45.0469 115.34 45.7873 114.644 46.3316C113.958 46.8682 113.165 47.1588 112.287 47.1958C112.194 47.1998 112.102 47.202 112.012 47.202H112.011C111.024 47.2015 110.22 46.9666 109.62 46.5025C109.055 46.0646 108.525 45.4799 108.045 44.7652L105.415 40.8933L105.022 40.9097L105.262 46.6204C105.27 46.8099 105.151 46.9813 104.97 47.0387L104.665 47.1357C104.394 47.222 104.005 47.3083 103.476 47.4C102.955 47.4903 102.415 47.5482 101.871 47.5709C101.736 47.5767 101.603 47.5793 101.476 47.5793Z" fill="url(#paint9_linear_98_480)"/>
<path d="M105.016 32.295C105.012 32.2135 105.075 32.1441 105.156 32.1405V32.1405C105.261 32.1361 105.363 32.1338 105.46 32.1338C106.342 32.1338 106.718 32.3123 106.863 32.4186C107.012 32.5263 107.184 32.7195 107.207 33.2575C107.228 33.7603 107.064 33.9597 106.901 34.0887C106.558 34.3588 106.07 34.5088 105.45 34.535V34.535C105.262 34.5429 105.104 34.3975 105.096 34.2102L105.016 32.295ZM105.751 25.1318C105.472 25.1318 105.184 25.1381 104.894 25.1501C103.765 25.1977 102.685 25.3058 101.683 25.4709C100.642 25.6427 99.7106 25.8923 98.9136 26.2123C98.9101 26.2136 98.9065 26.2149 98.903 26.2163C98.3463 26.4486 97.879 26.7592 97.5137 27.1396C97.0291 27.6447 96.791 28.3291 96.8244 29.119L97.4625 44.2609C97.5195 45.6132 97.9315 46.6087 98.6867 47.2192C99.3364 47.7448 100.249 47.9998 101.476 47.9998C101.609 47.9998 101.748 47.9971 101.888 47.9909C102.45 47.9673 103.009 47.9081 103.548 47.8146C104.104 47.7181 104.499 47.6295 104.792 47.5365L105.097 47.4395C105.459 47.3247 105.699 46.9816 105.683 46.6025L105.644 45.6826C105.596 44.5514 107.062 44.0669 107.698 45.0036V45.0036C108.201 45.7521 108.762 46.3693 109.363 46.8348C110.038 47.3572 110.929 47.6224 112.011 47.6224C112.107 47.6224 112.206 47.6202 112.305 47.6162C113.272 47.5752 114.146 47.2544 114.903 46.6625C115.674 46.0591 116.193 45.2417 116.444 44.2329L116.488 44.0566C116.544 43.8306 116.504 43.5916 116.378 43.3963L116.279 43.2441C116.029 42.8574 115.695 42.4039 115.286 41.8966C114.894 41.4107 114.465 40.8865 114.011 40.3369V40.3369C113.311 39.4926 113.421 38.254 114.054 37.3587C114.109 37.2808 114.162 37.202 114.215 37.1223C115.051 35.8491 115.441 34.4113 115.375 32.8494C115.272 30.3819 114.283 28.4132 112.437 26.9977C110.821 25.7597 108.572 25.1318 105.751 25.1318ZM104.256 34.2463C104.284 34.8973 104.834 35.4029 105.485 35.3756V35.3756C106.285 35.3418 106.937 35.1309 107.422 34.7491C107.871 34.3949 108.076 33.8951 108.048 33.2223C108.019 32.541 107.794 32.056 107.359 31.7387C106.952 31.4428 106.314 31.2928 105.46 31.2928C105.351 31.2928 105.237 31.2955 105.121 31.3004C104.862 31.311 104.63 31.3311 104.429 31.3596V31.3596C104.261 31.3833 104.142 31.5338 104.149 31.7037L104.256 34.2463ZM105.751 25.9729C108.384 25.9729 110.458 26.5407 111.925 27.6652C113.564 28.9219 114.442 30.6783 114.535 32.885C114.594 34.2672 114.249 35.5376 113.512 36.6608C113.09 37.3028 112.575 37.8752 111.971 38.373C111.739 38.564 111.695 38.9089 111.892 39.1359V39.1359C112.413 39.7402 112.908 40.3249 113.363 40.8731C113.816 41.4218 114.243 41.9434 114.631 42.4239C115.022 42.909 115.338 43.3384 115.573 43.7011V43.7011C115.636 43.7982 115.656 43.9172 115.628 44.0295V44.0295C115.423 44.8523 115.005 45.5149 114.385 45.9999C113.769 46.4814 113.057 46.7426 112.27 46.7756C112.182 46.7796 112.096 46.7814 112.011 46.7814C111.119 46.7814 110.403 46.5758 109.878 46.1699C109.348 45.7596 108.849 45.2083 108.394 44.531L105.841 40.7732C105.71 40.5805 105.489 40.4693 105.256 40.4791V40.4791C104.885 40.4947 104.597 40.8083 104.613 41.1796L104.829 46.3186C104.837 46.5072 104.717 46.6776 104.537 46.7346V46.7346C104.285 46.8152 103.915 46.8971 103.405 46.9856C102.901 47.0728 102.379 47.1285 101.853 47.1507C101.723 47.156 101.598 47.1587 101.476 47.1587C100.45 47.1587 99.708 46.9638 99.2153 46.5651C98.6564 46.1134 98.3494 45.3258 98.3027 44.2253L97.6645 29.0834C97.6409 28.5205 97.7945 28.0621 98.1202 27.7221C98.405 27.4253 98.777 27.1801 99.2265 26.9928C99.9692 26.6947 100.84 26.4628 101.819 26.3008C102.788 26.1411 103.834 26.0365 104.93 25.9907C105.209 25.9787 105.483 25.9729 105.751 25.9729Z" fill="#111111"/>
<path d="M120.556 46.8192C120.089 46.8192 119.634 46.7952 119.201 46.7476C117.999 46.6154 116.982 46.2812 116.18 45.7534C115.282 45.1638 114.748 44.3464 114.594 43.3238C114.472 42.5165 114.611 41.7747 115.007 41.1193C115.353 40.5452 115.766 40.0722 116.235 39.714L116.455 39.5457C116.53 39.4883 116.62 39.4594 116.711 39.4594C116.782 39.4594 116.854 39.4772 116.918 39.5141L117.159 39.6512C117.745 39.9841 118.458 40.2488 119.28 40.4375C119.736 40.543 120.219 40.5964 120.714 40.5964C121.08 40.5964 121.459 40.567 121.841 40.5096C122.976 40.3383 123.348 40.0508 123.455 39.9347C123.737 39.6298 123.711 39.4541 123.702 39.3962C123.679 39.2436 123.624 39.1657 123.493 39.0981C123.193 38.945 122.758 38.8146 122.198 38.7114L120.812 38.4706C119.488 38.2263 118.291 37.9291 117.25 37.5855C116.111 37.21 115.161 36.6248 114.426 35.8465C113.669 35.0437 113.178 33.9326 112.969 32.5428C112.659 30.4905 113.212 28.7021 114.612 27.2282C115.957 25.8123 117.989 24.8911 120.654 24.4893C121.514 24.3593 122.335 24.2939 123.095 24.2939C123.463 24.2939 123.823 24.3091 124.163 24.3402C125.276 24.4408 126.21 24.726 126.941 25.187C127.772 25.713 128.269 26.4793 128.418 27.4654C128.521 28.1494 128.443 28.7924 128.187 29.3762C127.955 29.904 127.643 30.3735 127.258 30.7717L127.054 30.9818C126.973 31.0654 126.864 31.1099 126.752 31.1099C126.694 31.1099 126.637 31.0984 126.582 31.0739L126.315 30.9555C125.883 30.7646 125.294 30.6204 124.566 30.5274C124.259 30.4883 123.935 30.4683 123.603 30.4683C123.15 30.4683 122.673 30.5056 122.187 30.5791C121.2 30.7277 120.76 30.9489 120.566 31.1082C120.331 31.3013 120.345 31.3983 120.35 31.4299C120.354 31.4553 120.357 31.4735 120.439 31.5149C120.602 31.5963 120.918 31.7134 121.498 31.8068L123.256 32.0916C125.466 32.44 127.25 33.0791 128.556 33.9913C129.951 34.9672 130.805 36.4325 131.093 38.3465C131.403 40.3961 130.834 42.2126 129.403 43.7447C128.023 45.2226 125.855 46.1931 122.957 46.6301C122.124 46.7556 121.316 46.8192 120.556 46.8192Z" fill="url(#paint10_linear_98_480)"/>
<path d="M123.095 23.8732C122.314 23.8732 121.472 23.9404 120.591 24.0734C117.832 24.4895 115.717 25.4534 114.307 26.9388C112.813 28.5118 112.223 30.4182 112.553 32.6058C112.775 34.0814 113.303 35.2691 114.121 36.1351C114.903 36.965 115.912 37.5875 117.118 37.9849C118.177 38.3342 119.394 38.6368 120.732 38.8834C120.735 38.8838 120.737 38.8842 120.74 38.8847L122.126 39.1254C122.562 39.2064 122.863 39.2944 123.069 39.3715C123.19 39.4172 123.235 39.5537 123.147 39.6492V39.6492C123.136 39.6603 122.877 39.9282 121.778 40.0937C121.417 40.1485 121.059 40.1761 120.714 40.1761C120.251 40.1761 119.8 40.1262 119.374 40.0279C118.593 39.8481 117.917 39.598 117.367 39.2852L117.126 39.1486C116.997 39.0747 116.853 39.0387 116.711 39.0387C116.53 39.0387 116.35 39.097 116.2 39.2118L115.979 39.38C115.469 39.7702 115.021 40.2824 114.647 40.9019C114.199 41.6437 114.042 42.4798 114.178 43.3863C114.349 44.5161 114.961 45.4564 115.949 46.1052C116.807 46.6695 117.886 47.0263 119.155 47.1656C119.603 47.2146 120.074 47.2395 120.556 47.2395C121.337 47.2395 122.166 47.1745 123.02 47.0455C126.014 46.5943 128.265 45.5801 129.71 44.0315C131.233 42.4011 131.838 40.4671 131.509 38.2839C131.203 36.2512 130.29 34.691 128.797 33.6466C127.438 32.6975 125.595 32.0344 123.319 31.6757L121.566 31.3918V31.3918C121.405 31.3656 121.392 31.1756 121.549 31.1342C121.735 31.0856 121.965 31.0376 122.249 30.9949C122.715 30.9246 123.171 30.889 123.604 30.889C123.917 30.889 124.223 30.9077 124.513 30.9446C125.191 31.0314 125.755 31.168 126.145 31.3402L126.412 31.4586C126.521 31.5071 126.637 31.5307 126.752 31.5307C126.975 31.5307 127.195 31.4417 127.357 31.2744L127.56 31.0643C127.98 30.63 128.32 30.1187 128.572 29.5451C128.861 28.8874 128.949 28.1665 128.834 27.4024C128.669 26.3064 128.092 25.4173 127.165 24.8317C126.378 24.3342 125.381 24.028 124.202 23.9212C123.848 23.8892 123.476 23.8732 123.095 23.8732ZM123.095 24.7142C123.452 24.7142 123.796 24.7289 124.126 24.7587C125.171 24.8535 126.043 25.1174 126.716 25.5424C127.44 26.0003 127.872 26.6682 128.002 27.5279C128.093 28.1322 128.026 28.6969 127.802 29.2069C127.59 29.6893 127.306 30.1174 126.955 30.4796V30.4796C126.833 30.6058 126.645 30.6423 126.485 30.5713V30.5713C126.016 30.3635 125.388 30.2086 124.62 30.1102C124.292 30.0684 123.953 30.0479 123.604 30.0479C123.128 30.0479 122.634 30.0862 122.124 30.1632C121.255 30.294 120.642 30.5023 120.3 30.7826C119.923 31.0919 119.911 31.3358 119.935 31.4929C119.952 31.6134 120.005 31.7679 120.251 31.8911C120.526 32.0286 120.923 32.1399 121.431 32.2218L123.188 32.507C125.337 32.8452 127.062 33.4606 128.315 34.3359C129.612 35.2428 130.407 36.6134 130.677 38.4094C130.967 40.3256 130.434 42.0241 129.096 43.4579C127.783 44.8641 125.696 45.7915 122.895 46.2138C122.079 46.337 121.297 46.3985 120.556 46.3985C120.104 46.3985 119.666 46.3758 119.247 46.3295C118.111 46.2049 117.157 45.8929 116.411 45.4021C115.617 44.8806 115.146 44.1606 115.01 43.2612C114.903 42.5532 115.023 41.9058 115.367 41.3366C115.686 40.8075 116.064 40.3741 116.491 40.0479V40.0479C116.624 39.946 116.806 39.9338 116.951 40.0168V40.0168C117.573 40.3696 118.325 40.6491 119.185 40.8476C119.675 40.9606 120.186 41.0171 120.714 41.0171C121.102 41.0171 121.499 40.9864 121.903 40.9254C123.064 40.7506 123.556 40.4457 123.764 40.2206C124.046 39.9153 124.162 39.6252 124.118 39.3337C124.075 39.0471 123.937 38.8535 123.685 38.7236C123.349 38.5518 122.874 38.4085 122.274 38.2977L120.884 38.0561C119.582 37.8163 118.405 37.5239 117.382 37.1861C116.31 36.8328 115.418 36.285 114.732 35.5579C114.034 34.8188 113.581 33.7832 113.384 32.4803C113.095 30.5628 113.611 28.8932 114.917 27.5177C116.195 26.1716 118.147 25.2923 120.717 24.9051C121.559 24.7779 122.355 24.7142 123.095 24.7142Z" fill="#111111"/>
</g>
<defs>
<linearGradient id="paint0_linear_98_480" x1="37.0188" y1="23.0419" x2="37.0188" y2="0.420469" gradientUnits="userSpaceOnUse">
<stop stop-color="#FF993C"/>
<stop offset="1" stop-color="#FFE500"/>
</linearGradient>
<linearGradient id="paint1_linear_98_480" x1="59.3883" y1="25.9207" x2="59.3883" y2="2.04303" gradientUnits="userSpaceOnUse">
<stop stop-color="#FF993C"/>
<stop offset="1" stop-color="#FFE500"/>
</linearGradient>
<linearGradient id="paint2_linear_98_480" x1="96.4024" y1="23.9987" x2="96.4024" y2="1.14942" gradientUnits="userSpaceOnUse">
<stop stop-color="#FF993C"/>
<stop offset="1" stop-color="#FFE500"/>
</linearGradient>
<linearGradient id="paint3_linear_98_480" x1="77.7775" y1="23.9486" x2="77.7775" y2="0.420303" gradientUnits="userSpaceOnUse">
<stop stop-color="#FF993C"/>
<stop offset="1" stop-color="#FFE500"/>
</linearGradient>
<linearGradient id="paint4_linear_98_480" x1="10.4313" y1="46.6335" x2="10.4313" y2="23.3593" gradientUnits="userSpaceOnUse">
<stop stop-color="#FF993C"/>
<stop offset="1" stop-color="#FFE500"/>
</linearGradient>
<linearGradient id="paint5_linear_98_480" x1="29.8028" y1="46.6451" x2="29.8028" y2="24.1047" gradientUnits="userSpaceOnUse">
<stop stop-color="#FF993C"/>
<stop offset="1" stop-color="#FFE500"/>
</linearGradient>
<linearGradient id="paint6_linear_98_480" x1="50.084" y1="46.8937" x2="50.084" y2="24.0778" gradientUnits="userSpaceOnUse">
<stop stop-color="#FF993C"/>
<stop offset="1" stop-color="#FFE500"/>
</linearGradient>
<linearGradient id="paint7_linear_98_480" x1="70.9494" y1="46.8129" x2="70.9494" y2="24.1585" gradientUnits="userSpaceOnUse">
<stop stop-color="#FF993C"/>
<stop offset="1" stop-color="#FFE500"/>
</linearGradient>
<linearGradient id="paint8_linear_98_480" x1="89.3778" y1="46.1632" x2="89.3778" y2="23.9988" gradientUnits="userSpaceOnUse">
<stop stop-color="#FF993C"/>
<stop offset="1" stop-color="#FFE500"/>
</linearGradient>
<linearGradient id="paint9_linear_98_480" x1="106.667" y1="47.5793" x2="106.667" y2="25.5525" gradientUnits="userSpaceOnUse">
<stop stop-color="#FF993C"/>
<stop offset="1" stop-color="#FFE500"/>
</linearGradient>
<linearGradient id="paint10_linear_98_480" x1="122.03" y1="46.8192" x2="122.03" y2="24.2939" gradientUnits="userSpaceOnUse">
<stop stop-color="#FF993C"/>
<stop offset="1" stop-color="#FFE500"/>
</linearGradient>
<clipPath id="clip0_98_480">
<rect width="131.596" height="48" fill="white"/>
</clipPath>
</defs>
</svg>
