<svg width="28" height="28" viewBox="0 0 28 28" fill="none" xmlns="http://www.w3.org/2000/svg">
<path opacity="0.4" d="M13.2056 6.32852C10.7279 4.59237 7.25076 3.8056 4.66265 3.51315C3.38176 3.36841 2.33594 4.43803 2.33594 5.75771V18.8999C2.33594 20.2196 3.38176 21.2896 4.66265 21.4344C7.25076 21.7268 10.7279 22.5136 13.2056 24.2497C13.4437 24.4166 13.7231 24.5 14.0026 24.5V6.57878C13.7231 6.57878 13.4437 6.49536 13.2056 6.32852Z" fill="white"/>
<path fill-rule="evenodd" clip-rule="evenodd" d="M4.97137 9.49609C5.04533 9.01854 5.49242 8.69136 5.96998 8.76532C7.48988 9.0007 9.20155 9.39414 10.8183 10.0193C11.269 10.1936 11.4931 10.7003 11.3188 11.151C11.1445 11.6018 10.6379 11.8259 10.1871 11.6516C8.71872 11.0837 7.13572 10.7167 5.70215 10.4947C5.22459 10.4207 4.89741 9.97365 4.97137 9.49609Z" fill="white"/>
<path fill-rule="evenodd" clip-rule="evenodd" d="M4.97137 14.1631C5.04533 13.6855 5.49242 13.3583 5.96998 13.4323C6.73966 13.5515 7.55627 13.7109 8.38345 13.9196C8.85201 14.0378 9.13603 14.5135 9.01781 14.9821C8.89959 15.4506 8.42391 15.7346 7.95534 15.6164C7.18722 15.4226 6.4246 15.2736 5.70215 15.1617C5.22459 15.0877 4.89741 14.6406 4.97137 14.1631Z" fill="white"/>
<path d="M14.797 6.32852C17.2747 4.59237 20.7518 3.8056 23.3399 3.51315C24.6208 3.36841 25.6667 4.43803 25.6667 5.75771V18.8999C25.6667 20.2196 24.6208 21.2896 23.3399 21.4344C20.7518 21.7268 17.2747 22.5136 14.797 24.2497C14.5589 24.4166 14.2795 24.5 14 24.5V6.57878C14.2795 6.57878 14.5589 6.49536 14.797 6.32852Z" fill="white"/>
</svg>
