<svg width="24" height="24" viewBox="0 0 24 24" fill="none" xmlns="http://www.w3.org/2000/svg">
<path d="M6.75798 15.7131C6.30571 15.153 5.84766 14.6538 5.37095 14.2666C5.29182 15.1343 5.13484 15.9896 4.90196 16.8268C4.67229 17.653 4.36992 18.4553 4 19.2278C4.74305 19.3514 5.43271 19.3132 6.08183 19.1494C6.7554 18.9798 7.38073 18.6755 7.97452 18.2798C7.97452 18.2798 8.15787 18.1549 8.39591 17.9354C8.31806 17.8259 8.24086 17.7165 8.16431 17.6084C7.68309 16.9324 7.22182 16.2875 6.75798 15.7131Z" fill="url(#paint0_linear_894_5577)"/>
<path d="M8.45703 6.3448C7.7841 5.89996 7.07771 5.55937 6.32051 5.36966C5.59354 5.18771 4.82411 5.14627 4 5.28354C4.41045 6.14019 4.74563 7.03115 5.00167 7.94996C5.26158 8.88236 5.33106 9.84261 5.41855 10.8054C5.94802 11.1836 6.57141 11.6873 7.08093 12.2643C7.60461 12.858 8.12699 13.5327 8.67254 14.243C9.23353 14.976 9.82025 15.7478 10.4629 16.5138C11.1269 17.3044 11.8628 18.0918 12.6908 18.8293C13.5529 19.596 14.532 20.3147 15.6785 20.9343C16.8854 21.587 18.2943 22.14 19.9804 22.533C19.1164 21.0088 18.4467 19.5616 17.9565 18.1734C17.4759 16.813 17.3498 15.5037 17.1935 14.1997C16.2826 13.6467 15.2867 12.9688 14.5282 12.2533C13.7948 11.5617 13.1064 10.819 12.429 10.0822C11.7734 9.36605 11.1275 8.65574 10.4636 8.005C9.82025 7.37627 9.1544 6.80711 8.45703 6.3448Z" fill="url(#paint1_linear_894_5577)"/>
<path d="M15.0012 8.02891C15.6999 8.6149 16.4487 9.15491 17.276 9.57514C17.4182 8.3941 17.7058 7.18974 18.1433 5.95171C18.5891 4.69103 19.197 3.37854 19.9787 2C18.4508 2.35613 17.1667 2.85859 16.0608 3.45494C15.0057 4.0241 14.1012 4.68455 13.3009 5.39162C13.3009 5.39162 13.0648 5.60336 12.7656 5.93553C12.8628 6.03071 12.9599 6.12719 13.0571 6.22237C13.6862 6.84009 14.3238 7.4604 15.0012 8.02891Z" fill="url(#paint2_linear_894_5577)"/>
<defs>
<linearGradient id="paint0_linear_894_5577" x1="5.47931" y1="18.1428" x2="14.1242" y2="5.72781" gradientUnits="userSpaceOnUse">
<stop offset="0.25" stop-color="#FF05FF"/>
<stop offset="0.75" stop-color="#6362FF"/>
</linearGradient>
<linearGradient id="paint1_linear_894_5577" x1="6.41714" y1="22.0163" x2="17.9631" y2="5.43513" gradientUnits="userSpaceOnUse">
<stop offset="0.25" stop-color="#FF05FF"/>
<stop offset="0.75" stop-color="#6362FF"/>
</linearGradient>
<linearGradient id="paint2_linear_894_5577" x1="3.9084" y1="23.9213" x2="17.8953" y2="3.83463" gradientUnits="userSpaceOnUse">
<stop offset="0.25" stop-color="#FF05FF"/>
<stop offset="0.75" stop-color="#6362FF"/>
</linearGradient>
</defs>
</svg>
