<svg width="48" height="48" viewBox="0 0 48 48" fill="none" xmlns="http://www.w3.org/2000/svg">
<circle opacity="0.4" cx="24" cy="24" r="20" fill="#868686"/>
<path d="M34 20C34 21.1046 33.1046 22 32 22C30.8954 22 30 21.1046 30 20C30 18.8954 30.8954 18 32 18C33.1046 18 34 18.8954 34 20Z" fill="#868686"/>
<path d="M18 20C18 21.1046 17.1046 22 16 22C14.8954 22 14 21.1046 14 20C14 18.8954 14.8954 18 16 18C17.1046 18 18 18.8954 18 20Z" fill="#868686"/>
<path fill-rule="evenodd" clip-rule="evenodd" d="M18.9891 28.8723C18.3698 28.329 17.4271 28.3868 16.8789 29.0035C16.3285 29.6226 16.3843 30.5708 17.0035 31.1211L18 30C17.0035 31.1211 17.003 31.1207 17.0035 31.1211L17.0054 31.1228L17.0075 31.1247L17.0124 31.1291L17.0249 31.1399L17.06 31.1698C17.088 31.1934 17.125 31.224 17.171 31.2605C17.263 31.3335 17.391 31.4308 17.5536 31.5439C17.8782 31.7697 18.3441 32.0611 18.9394 32.3497C20.13 32.927 21.8535 33.5 24 33.5C26.1465 33.5 27.87 32.927 29.0607 32.3497C29.656 32.0611 30.1218 31.7697 30.4465 31.5439C30.609 31.4308 30.737 31.3335 30.829 31.2605C30.875 31.224 30.9121 31.1934 30.94 31.1698L30.9752 31.1399L30.9876 31.1291L30.9925 31.1247L30.9946 31.1228C30.9951 31.1224 30.9966 31.1211 30 30L30.9966 31.1211C31.6157 30.5708 31.6715 29.6226 31.1211 29.0035C30.573 28.3868 29.6302 28.329 29.0109 28.8723L29.0092 28.8739C29.0023 28.8796 28.9859 28.8933 28.963 28.9114C28.9173 28.9477 28.8402 29.0068 28.7333 29.0812C28.5189 29.2303 28.1878 29.4389 27.7519 29.6503C26.88 30.073 25.6035 30.5 24 30.5C22.3965 30.5 21.12 30.073 20.2482 29.6503C19.8122 29.4389 19.4812 29.2303 19.2668 29.0812C19.1598 29.0068 19.0827 28.9477 19.037 28.9114C19.0142 28.8933 18.9992 28.8809 18.9924 28.8751C18.9909 28.8739 18.9898 28.8729 18.9891 28.8723C18.9891 28.8723 18.9891 28.8723 18.9891 28.8723ZM29.0109 28.8723L29.0092 28.8739L29.0067 28.876L29.0052 28.8774C29.0074 28.8754 29.0087 28.8743 29.0109 28.8723Z" fill="#868686"/>
</svg>
