<svg width="21" height="15" viewBox="0 0 21 15" fill="none" xmlns="http://www.w3.org/2000/svg">
<path d="M16 2.875C16 1.83947 16.8395 1 17.875 1C18.9105 1 19.75 1.83947 19.75 2.875C19.75 3.91053 18.9105 4.75 17.875 4.75C16.8395 4.75 16 3.91053 16 2.875Z" fill="#9BEC35"/>
<path d="M1 2.875C1 1.83946 1.83947 0.999998 2.875 0.999999C3.91053 0.999999 4.75 1.83946 4.75 2.875C4.75 3.91053 3.91053 4.75 2.875 4.75C1.83947 4.75 1 3.91053 1 2.875Z" fill="#9BEC35"/>
<path d="M4.75 11.625C4.75 11.625 6.85938 13.5 10.375 13.5C13.8906 13.5 16 11.625 16 11.625M1 2.875C1 1.83946 1.83947 0.999998 2.875 0.999999C3.91053 0.999999 4.75 1.83946 4.75 2.875C4.75 3.91053 3.91053 4.75 2.875 4.75C1.83947 4.75 1 3.91053 1 2.875ZM16 2.875C16 1.83947 16.8395 1 17.875 1C18.9105 1 19.75 1.83947 19.75 2.875C19.75 3.91053 18.9105 4.75 17.875 4.75C16.8395 4.75 16 3.91053 16 2.875Z" stroke="#9BEC35" stroke-width="2" stroke-linecap="round"/>
</svg>
