<svg width="86" height="20" viewBox="0 0 86 20" fill="none" xmlns="http://www.w3.org/2000/svg">
<g clip-path="url(#clip0_502_4372)">
<path d="M19.6796 9.83982C19.6796 15.2739 15.2739 19.6796 9.83982 19.6796C4.40574 19.6796 0 15.2739 0 9.83982C0 4.40574 4.40574 0 9.83982 0C15.275 0 19.6796 4.40574 19.6796 9.83982Z" fill="#2081E2"/>
<path d="M4.8539 10.1705L4.89635 10.1037L7.45608 6.09937C7.49349 6.04074 7.58144 6.04681 7.60974 6.11049C8.03738 7.06887 8.40637 8.26078 8.23351 9.00282C8.15971 9.30813 7.95752 9.7216 7.73004 10.1037C7.70074 10.1594 7.66839 10.2139 7.63401 10.2665C7.61783 10.2908 7.59053 10.3049 7.56121 10.3049H4.92871C4.85794 10.3049 4.81649 10.2281 4.8539 10.1705Z" fill="white"/>
<path d="M16.2642 10.9145V11.5484C16.2642 11.5848 16.242 11.6171 16.2096 11.6313C16.0115 11.7162 15.3331 12.0275 15.0511 12.4198C14.3313 13.4217 13.7813 14.8542 12.552 14.8542H7.42344C5.60577 14.8542 4.13281 13.3762 4.13281 11.5524V11.4938C4.13281 11.4452 4.17223 11.4058 4.22076 11.4058H7.07974C7.13634 11.4058 7.17778 11.4584 7.17275 11.514C7.15252 11.7 7.18689 11.8901 7.27484 12.0629C7.44468 12.4077 7.79649 12.623 8.1766 12.623H9.59194V11.518H8.19278C8.12101 11.518 8.07856 11.4351 8.12001 11.3765C8.13516 11.3532 8.15236 11.329 8.17054 11.3017C8.30299 11.1137 8.49203 10.8215 8.68007 10.4889C8.80846 10.2645 8.93279 10.0249 9.03288 9.78427C9.05311 9.7408 9.06927 9.6963 9.08545 9.65283C9.11274 9.576 9.14106 9.50423 9.16127 9.43245C9.18151 9.37178 9.19766 9.3081 9.21384 9.24845C9.26136 9.04423 9.28158 8.8279 9.28158 8.60347C9.28158 8.51552 9.27754 8.42352 9.26945 8.33557C9.2654 8.23953 9.25328 8.14348 9.24113 8.04744C9.23305 7.96252 9.21789 7.87861 9.20172 7.79066C9.1815 7.66227 9.15319 7.5349 9.12083 7.4065L9.10971 7.35799C9.08545 7.27002 9.06524 7.18612 9.03694 7.09817C8.95706 6.82217 8.86508 6.55326 8.76802 6.30154C8.73263 6.20145 8.69219 6.10542 8.65175 6.00938C8.59212 5.86481 8.53145 5.73339 8.47585 5.60904C8.44755 5.55242 8.42329 5.50086 8.39902 5.44829C8.37173 5.38864 8.34343 5.329 8.31511 5.2724C8.2949 5.22892 8.27164 5.18848 8.25546 5.14804L8.08259 4.82858C8.05833 4.78511 8.09877 4.73355 8.14628 4.74669L9.22801 5.03986H9.23104C9.23305 5.03986 9.23507 5.04089 9.23507 5.04089L9.37761 5.0803L9.53432 5.1248L9.59194 5.14096V4.498C9.59194 4.18764 9.84063 3.93591 10.148 3.93591C10.3016 3.93591 10.4411 3.99859 10.5412 4.10069C10.6413 4.20281 10.704 4.34232 10.704 4.498V5.45235L10.8192 5.48468C10.8283 5.48773 10.8374 5.49177 10.8455 5.49783C10.8738 5.51906 10.9143 5.55039 10.9658 5.58883C11.0063 5.62116 11.0497 5.6606 11.1023 5.70104C11.2064 5.78493 11.3308 5.89311 11.4673 6.01747C11.5036 6.0488 11.539 6.08115 11.5714 6.1135C11.7473 6.27728 11.9444 6.46935 12.1325 6.68166C12.185 6.7413 12.2366 6.80196 12.2892 6.86564C12.3417 6.93035 12.3973 6.99403 12.4458 7.05773C12.5095 7.14265 12.5783 7.2306 12.6379 7.3226C12.6662 7.36607 12.6986 7.41055 12.7259 7.45402C12.8027 7.57027 12.8705 7.69059 12.9352 7.81089C12.9625 7.86649 12.9908 7.92714 13.015 7.98679C13.0868 8.14753 13.1434 8.31131 13.1798 8.47508C13.1909 8.51046 13.199 8.54888 13.2031 8.58326V8.59135C13.2152 8.63986 13.2192 8.69142 13.2233 8.74398C13.2394 8.91181 13.2314 9.07962 13.195 9.24845C13.1798 9.32024 13.1596 9.38796 13.1353 9.45975C13.1111 9.52849 13.0868 9.60026 13.0555 9.668C12.9948 9.80851 12.923 9.94905 12.8381 10.0805C12.8108 10.129 12.7784 10.1806 12.7461 10.2291C12.7107 10.2806 12.6743 10.3292 12.642 10.3767C12.5975 10.4373 12.55 10.501 12.5015 10.5576C12.458 10.6173 12.4135 10.6769 12.365 10.7295C12.2972 10.8094 12.2325 10.8852 12.1648 10.958C12.1244 11.0055 12.0809 11.054 12.0364 11.0975C11.993 11.146 11.9485 11.1895 11.908 11.2299C11.8403 11.2977 11.7837 11.3502 11.7362 11.3937L11.625 11.4958C11.6088 11.51 11.5876 11.518 11.5653 11.518H10.704V12.623H11.7877C12.0303 12.623 12.2609 12.5371 12.4469 12.3794C12.5106 12.3238 12.7886 12.0832 13.1171 11.7202C13.1282 11.7081 13.1424 11.699 13.1586 11.695L16.152 10.8296C16.2076 10.8134 16.2642 10.8559 16.2642 10.9145Z" fill="white"/>
<path d="M29.2677 14.5622C28.3782 14.5622 27.5605 14.3629 26.8149 13.9642C26.0781 13.5656 25.4894 13.0109 25.0492 12.3002C24.618 11.5809 24.4023 10.7748 24.4023 9.88217C24.4023 8.98948 24.618 8.1878 25.0492 7.47712C25.4894 6.76645 26.0781 6.21176 26.8149 5.81309C27.5605 5.41442 28.3782 5.21509 29.2677 5.21509C30.1573 5.21509 30.9704 5.41442 31.7072 5.81309C32.4531 6.21176 33.037 6.76645 33.4593 7.47712C33.8907 8.1878 34.1062 8.98948 34.1062 9.88217C34.1062 10.7748 33.8907 11.5809 33.4593 12.3002C33.0281 13.0109 32.444 13.5656 31.7072 13.9642C30.9704 14.3629 30.1573 14.5622 29.2677 14.5622ZM29.2677 12.5342C30.0225 12.5342 30.6245 12.2915 31.0737 11.8062C31.5321 11.3209 31.7612 10.6795 31.7612 9.88217C31.7612 9.07615 31.5321 8.43481 31.0737 7.95813C30.6245 7.47279 30.0225 7.23013 29.2677 7.23013C28.504 7.23013 27.8931 7.46846 27.4348 7.94513C26.9855 8.42181 26.7609 9.06748 26.7609 9.88217C26.7609 10.6882 26.9855 11.3339 27.4348 11.8192C27.8931 12.2959 28.504 12.5342 29.2677 12.5342Z" fill="white"/>
<path d="M37.6934 8.24413C37.9179 7.90613 38.2279 7.63311 38.6232 7.42512C39.0186 7.2171 39.4812 7.1131 40.0114 7.1131C40.6313 7.1131 41.193 7.26477 41.6962 7.56811C42.1992 7.87145 42.5946 8.3048 42.8821 8.86813C43.1787 9.43148 43.3268 10.0858 43.3268 10.8312C43.3268 11.5765 43.1787 12.2352 42.8821 12.8072C42.5946 13.3706 42.1992 13.8082 41.6962 14.1202C41.193 14.4236 40.6313 14.5752 40.0114 14.5752C39.4903 14.5752 39.0276 14.4712 38.6232 14.2632C38.2279 14.0552 37.9179 13.7866 37.6934 13.4572V16.6293H35.3887V7.2171H37.6934V8.24413ZM40.9818 10.8312C40.9818 10.2765 40.8201 9.84316 40.4965 9.53115C40.182 9.21048 39.7912 9.05014 39.324 9.05014C38.8659 9.05014 38.475 9.21048 38.1515 9.53115C37.837 9.85181 37.6798 10.2895 37.6798 10.8442C37.6798 11.3988 37.837 11.8365 38.1515 12.1572C38.475 12.4779 38.8659 12.6382 39.324 12.6382C39.7823 12.6382 40.1732 12.4779 40.4965 12.1572C40.8201 11.8278 40.9818 11.3858 40.9818 10.8312Z" fill="white"/>
<path d="M51.6255 10.7272C51.6255 10.9352 51.6121 11.1518 51.5851 11.3772H46.3692C46.4052 11.8278 46.5534 12.1745 46.814 12.4172C47.0836 12.6512 47.4115 12.7682 47.798 12.7682C48.373 12.7682 48.7727 12.5342 48.9974 12.0662H51.4503C51.3246 12.5429 51.0955 12.9719 50.7629 13.3532C50.4396 13.7345 50.0306 14.0336 49.5365 14.2502C49.0423 14.4669 48.4897 14.5752 47.8789 14.5752C47.142 14.5752 46.4861 14.4236 45.9111 14.1202C45.336 13.8169 44.8868 13.3835 44.5632 12.8202C44.2399 12.2569 44.0781 11.5982 44.0781 10.8442C44.0781 10.0902 44.2354 9.43148 44.5498 8.86813C44.8732 8.3048 45.3225 7.87145 45.8975 7.56811C46.4725 7.26477 47.133 7.1131 47.8789 7.1131C48.6066 7.1131 49.2535 7.26044 49.8195 7.55512C50.3856 7.84979 50.8259 8.27012 51.1404 8.81613C51.4639 9.36215 51.6255 9.99916 51.6255 10.7272ZM49.2671 10.1421C49.2671 9.76082 49.1322 9.45747 48.8626 9.23214C48.593 9.00681 48.2561 8.89414 47.8519 8.89414C47.4654 8.89414 47.1375 9.00248 46.8679 9.21913C46.6074 9.43581 46.4456 9.74348 46.3828 10.1421H49.2671Z" fill="white"/>
<path d="M57.4242 7.13916C58.3047 7.13916 59.0055 7.41649 59.5266 7.97118C60.0567 8.51717 60.3218 9.27119 60.3218 10.2332V14.4713H58.0305V10.5322C58.0305 10.0469 57.9003 9.66986 57.6397 9.4012C57.3791 9.13251 57.0288 8.99818 56.5886 8.99818C56.1482 8.99818 55.7979 9.13251 55.5373 9.4012C55.2768 9.66986 55.1465 10.0469 55.1465 10.5322V14.4713H52.8418V7.21715H55.1465V8.17917C55.3801 7.85849 55.6946 7.60716 56.0899 7.42516C56.4851 7.23449 56.9298 7.13916 57.4242 7.13916Z" fill="white"/>
<path d="M65.3472 14.5622C64.6554 14.5622 64.0353 14.4539 63.4873 14.2372C62.9392 14.0206 62.4989 13.6999 62.1666 13.2752C61.843 12.8506 61.6722 12.3392 61.6543 11.7412H64.1072C64.1432 12.0792 64.2644 12.3392 64.4712 12.5212C64.6779 12.6945 64.9473 12.7812 65.2799 12.7812C65.6213 12.7812 65.8907 12.7075 66.0885 12.5602C66.2861 12.4042 66.3851 12.1919 66.3851 11.9232C66.3851 11.6979 66.3042 11.5115 66.1424 11.3642C65.9897 11.2168 65.7965 11.0955 65.5629 11.0002C65.3381 10.9048 65.0148 10.7965 64.5925 10.6752C63.9814 10.4932 63.4827 10.3112 63.0964 10.1292C62.7101 9.94717 62.3777 9.67849 62.0991 9.32315C61.8206 8.96782 61.6813 8.50415 61.6813 7.93214C61.6813 7.08278 62.0003 6.41978 62.6383 5.9431C63.2761 5.45776 64.1072 5.21509 65.1315 5.21509C66.1739 5.21509 67.0138 5.45776 67.6519 5.9431C68.2899 6.41978 68.6313 7.08711 68.6762 7.94513H66.1828C66.1649 7.65046 66.0525 7.42078 65.8459 7.25612C65.6392 7.08278 65.3741 6.99611 65.0506 6.99611C64.7721 6.99611 64.5476 7.06978 64.3768 7.21712C64.2062 7.35578 64.1207 7.55946 64.1207 7.82813C64.1207 8.12279 64.2644 8.35247 64.5521 8.51713C64.8396 8.68181 65.2887 8.85948 65.8998 9.05016C66.5108 9.24949 67.005 9.44015 67.3822 9.62216C67.7688 9.80416 68.1012 10.0685 68.3796 10.4152C68.6583 10.7619 68.7974 11.2082 68.7974 11.7542C68.7974 12.2742 68.6583 12.7465 68.3796 13.1712C68.1102 13.5959 67.7148 13.9339 67.1937 14.1852C66.6726 14.4366 66.057 14.5622 65.3472 14.5622Z" fill="white"/>
<path d="M77.3034 10.7272C77.3034 10.9352 77.2898 11.1518 77.2629 11.3772H72.047C72.083 11.8278 72.2312 12.1745 72.4917 12.4172C72.7613 12.6512 73.0894 12.7682 73.4757 12.7682C74.0507 12.7682 74.4506 12.5342 74.6752 12.0662H77.128C77.0023 12.5429 76.7732 12.9719 76.4408 13.3532C76.1173 13.7345 75.7086 14.0336 75.2142 14.2502C74.72 14.4669 74.1674 14.5752 73.5566 14.5752C72.8198 14.5752 72.1639 14.4236 71.5888 14.1202C71.0138 13.8169 70.5645 13.3835 70.241 12.8202C69.9176 12.2569 69.7559 11.5982 69.7559 10.8442C69.7559 10.0902 69.9131 9.43148 70.2276 8.86813C70.5509 8.3048 71.0002 7.87145 71.5752 7.56811C72.1503 7.26477 72.8107 7.1131 73.5566 7.1131C74.2843 7.1131 74.9312 7.26044 75.4974 7.55512C76.0634 7.84979 76.5036 8.27012 76.8181 8.81613C77.1416 9.36215 77.3034 9.99916 77.3034 10.7272ZM74.9448 10.1421C74.9448 9.76082 74.81 9.45747 74.5404 9.23214C74.2708 9.00681 73.9338 8.89414 73.5296 8.89414C73.1433 8.89414 72.8153 9.00248 72.5456 9.21913C72.2851 9.43581 72.1233 9.74348 72.0605 10.1421H74.9448Z" fill="white"/>
<path d="M78.0625 10.8312C78.0625 10.0858 78.2064 9.43148 78.4939 8.86813C78.7903 8.3048 79.1901 7.87145 79.6934 7.56811C80.1966 7.26477 80.758 7.1131 81.3781 7.1131C81.9081 7.1131 82.371 7.2171 82.7663 7.42512C83.1705 7.63311 83.4805 7.90613 83.6962 8.24413V7.2171H86.0009V14.4712H83.6962V13.4442C83.4716 13.7822 83.1572 14.0552 82.7527 14.2632C82.3574 14.4712 81.8947 14.5752 81.3646 14.5752C80.7535 14.5752 80.1966 14.4236 79.6934 14.1202C79.1901 13.8082 78.7903 13.3706 78.4939 12.8072C78.2064 12.2352 78.0625 11.5765 78.0625 10.8312ZM83.6962 10.8442C83.6962 10.2895 83.5344 9.85181 83.2111 9.53115C82.8966 9.21048 82.5101 9.05014 82.052 9.05014C81.5936 9.05014 81.2028 9.21048 80.8794 9.53115C80.565 9.84316 80.4077 10.2765 80.4077 10.8312C80.4077 11.3858 80.565 11.8278 80.8794 12.1572C81.2028 12.4779 81.5936 12.6382 82.052 12.6382C82.5101 12.6382 82.8966 12.4779 83.2111 12.1572C83.5344 11.8365 83.6962 11.3988 83.6962 10.8442Z" fill="white"/>
</g>
<defs>
<clipPath id="clip0_502_4372">
<rect width="86" height="19.6796" fill="white"/>
</clipPath>
</defs>
</svg>
