<svg width="72" height="72" viewBox="0 0 72 72" fill="none" xmlns="http://www.w3.org/2000/svg">
<g filter="url(#filter0_ii_105_284)">
<rect width="72" height="72" rx="5" fill="url(#paint0_linear_105_284)"/>
</g>
<rect x="0.5" y="0.5" width="71" height="71" rx="4.5" stroke="#FF993C" stroke-opacity="0.64"/>
<g filter="url(#filter1_d_105_284)">
<mask id="path-3-outside-1_105_284" maskUnits="userSpaceOnUse" x="23.335" y="21.28" width="23" height="27" fill="black">
<rect fill="white" x="23.335" y="21.28" width="23" height="27"/>
<path d="M35.671 23.28C37.079 23.28 38.327 23.4294 39.415 23.728C40.5243 24.0054 41.399 24.3574 42.039 24.784C42.679 25.2107 43.2123 25.712 43.639 26.288C44.3216 27.2267 44.663 28.176 44.663 29.136C44.663 30.0747 44.471 30.9494 44.087 31.76C43.703 32.5494 43.2763 33.2 42.807 33.712C42.359 34.2027 41.815 34.7787 41.175 35.44C40.535 36.08 40.0976 36.5707 39.863 36.912C39.6283 37.2534 39.479 37.4667 39.415 37.552C39.2016 37.7867 38.9456 37.904 38.647 37.904H31.799C31.6496 37.904 31.511 37.8507 31.383 37.744C31.255 37.616 31.191 37.488 31.191 37.36C31.191 36.8054 31.5323 36.1014 32.215 35.248C32.8976 34.3947 33.5056 33.7334 34.039 33.264C35.4683 32.048 36.183 31.1414 36.183 30.544C36.183 30.224 36.0763 29.9787 35.863 29.808C35.671 29.616 35.3616 29.52 34.935 29.52C34.5296 29.52 34.1776 29.6267 33.879 29.84C33.6016 30.032 33.4203 30.256 33.335 30.512C33.143 31.1734 32.727 31.504 32.087 31.504H26.135C25.9003 31.504 25.7083 31.408 25.559 31.216C25.4096 31.024 25.335 30.8 25.335 30.544V30.512C25.335 28.6774 26.231 27.0134 28.023 25.52C29.8363 24.0267 32.3856 23.28 35.671 23.28ZM32.119 39.184H37.975C38.2096 39.184 38.4123 39.2694 38.583 39.44C38.7536 39.6107 38.839 39.8134 38.839 40.048V45.136C38.839 45.3707 38.7536 45.5734 38.583 45.744C38.4123 45.9147 38.2096 46 37.975 46H32.119C31.8843 46 31.6816 45.9147 31.511 45.744C31.3403 45.5734 31.255 45.3707 31.255 45.136V40.048C31.255 39.8134 31.3403 39.6107 31.511 39.44C31.6816 39.2694 31.8843 39.184 32.119 39.184Z"/>
</mask>
<path d="M35.671 23.28C37.079 23.28 38.327 23.4294 39.415 23.728C40.5243 24.0054 41.399 24.3574 42.039 24.784C42.679 25.2107 43.2123 25.712 43.639 26.288C44.3216 27.2267 44.663 28.176 44.663 29.136C44.663 30.0747 44.471 30.9494 44.087 31.76C43.703 32.5494 43.2763 33.2 42.807 33.712C42.359 34.2027 41.815 34.7787 41.175 35.44C40.535 36.08 40.0976 36.5707 39.863 36.912C39.6283 37.2534 39.479 37.4667 39.415 37.552C39.2016 37.7867 38.9456 37.904 38.647 37.904H31.799C31.6496 37.904 31.511 37.8507 31.383 37.744C31.255 37.616 31.191 37.488 31.191 37.36C31.191 36.8054 31.5323 36.1014 32.215 35.248C32.8976 34.3947 33.5056 33.7334 34.039 33.264C35.4683 32.048 36.183 31.1414 36.183 30.544C36.183 30.224 36.0763 29.9787 35.863 29.808C35.671 29.616 35.3616 29.52 34.935 29.52C34.5296 29.52 34.1776 29.6267 33.879 29.84C33.6016 30.032 33.4203 30.256 33.335 30.512C33.143 31.1734 32.727 31.504 32.087 31.504H26.135C25.9003 31.504 25.7083 31.408 25.559 31.216C25.4096 31.024 25.335 30.8 25.335 30.544V30.512C25.335 28.6774 26.231 27.0134 28.023 25.52C29.8363 24.0267 32.3856 23.28 35.671 23.28ZM32.119 39.184H37.975C38.2096 39.184 38.4123 39.2694 38.583 39.44C38.7536 39.6107 38.839 39.8134 38.839 40.048V45.136C38.839 45.3707 38.7536 45.5734 38.583 45.744C38.4123 45.9147 38.2096 46 37.975 46H32.119C31.8843 46 31.6816 45.9147 31.511 45.744C31.3403 45.5734 31.255 45.3707 31.255 45.136V40.048C31.255 39.8134 31.3403 39.6107 31.511 39.44C31.6816 39.2694 31.8843 39.184 32.119 39.184Z" fill="white"/>
<path d="M35.671 23.28C37.079 23.28 38.327 23.4294 39.415 23.728C40.5243 24.0054 41.399 24.3574 42.039 24.784C42.679 25.2107 43.2123 25.712 43.639 26.288C44.3216 27.2267 44.663 28.176 44.663 29.136C44.663 30.0747 44.471 30.9494 44.087 31.76C43.703 32.5494 43.2763 33.2 42.807 33.712C42.359 34.2027 41.815 34.7787 41.175 35.44C40.535 36.08 40.0976 36.5707 39.863 36.912C39.6283 37.2534 39.479 37.4667 39.415 37.552C39.2016 37.7867 38.9456 37.904 38.647 37.904H31.799C31.6496 37.904 31.511 37.8507 31.383 37.744C31.255 37.616 31.191 37.488 31.191 37.36C31.191 36.8054 31.5323 36.1014 32.215 35.248C32.8976 34.3947 33.5056 33.7334 34.039 33.264C35.4683 32.048 36.183 31.1414 36.183 30.544C36.183 30.224 36.0763 29.9787 35.863 29.808C35.671 29.616 35.3616 29.52 34.935 29.52C34.5296 29.52 34.1776 29.6267 33.879 29.84C33.6016 30.032 33.4203 30.256 33.335 30.512C33.143 31.1734 32.727 31.504 32.087 31.504H26.135C25.9003 31.504 25.7083 31.408 25.559 31.216C25.4096 31.024 25.335 30.8 25.335 30.544V30.512C25.335 28.6774 26.231 27.0134 28.023 25.52C29.8363 24.0267 32.3856 23.28 35.671 23.28ZM32.119 39.184H37.975C38.2096 39.184 38.4123 39.2694 38.583 39.44C38.7536 39.6107 38.839 39.8134 38.839 40.048V45.136C38.839 45.3707 38.7536 45.5734 38.583 45.744C38.4123 45.9147 38.2096 46 37.975 46H32.119C31.8843 46 31.6816 45.9147 31.511 45.744C31.3403 45.5734 31.255 45.3707 31.255 45.136V40.048C31.255 39.8134 31.3403 39.6107 31.511 39.44C31.6816 39.2694 31.8843 39.184 32.119 39.184Z" stroke="black" stroke-width="3" mask="url(#path-3-outside-1_105_284)"/>
</g>
<defs>
<filter id="filter0_ii_105_284" x="0" y="0" width="72" height="76" filterUnits="userSpaceOnUse" color-interpolation-filters="sRGB">
<feFlood flood-opacity="0" result="BackgroundImageFix"/>
<feBlend mode="normal" in="SourceGraphic" in2="BackgroundImageFix" result="shape"/>
<feColorMatrix in="SourceAlpha" type="matrix" values="0 0 0 0 0 0 0 0 0 0 0 0 0 0 0 0 0 0 127 0" result="hardAlpha"/>
<feOffset dy="4"/>
<feGaussianBlur stdDeviation="8"/>
<feComposite in2="hardAlpha" operator="arithmetic" k2="-1" k3="1"/>
<feColorMatrix type="matrix" values="0 0 0 0 1 0 0 0 0 0.9 0 0 0 0 0 0 0 0 1 0"/>
<feBlend mode="hard-light" in2="shape" result="effect1_innerShadow_105_284"/>
<feColorMatrix in="SourceAlpha" type="matrix" values="0 0 0 0 0 0 0 0 0 0 0 0 0 0 0 0 0 0 127 0" result="hardAlpha"/>
<feOffset dy="4"/>
<feGaussianBlur stdDeviation="4"/>
<feComposite in2="hardAlpha" operator="arithmetic" k2="-1" k3="1"/>
<feColorMatrix type="matrix" values="0 0 0 0 1 0 0 0 0 1 0 0 0 0 1 0 0 0 1 0"/>
<feBlend mode="normal" in2="effect1_innerShadow_105_284" result="effect2_innerShadow_105_284"/>
</filter>
<filter id="filter1_d_105_284" x="23.835" y="21.78" width="22.3281" height="27.72" filterUnits="userSpaceOnUse" color-interpolation-filters="sRGB">
<feFlood flood-opacity="0" result="BackgroundImageFix"/>
<feColorMatrix in="SourceAlpha" type="matrix" values="0 0 0 0 0 0 0 0 0 0 0 0 0 0 0 0 0 0 127 0" result="hardAlpha"/>
<feOffset dy="2"/>
<feComposite in2="hardAlpha" operator="out"/>
<feColorMatrix type="matrix" values="0 0 0 0 0 0 0 0 0 0 0 0 0 0 0 0 0 0 1 0"/>
<feBlend mode="normal" in2="BackgroundImageFix" result="effect1_dropShadow_105_284"/>
<feBlend mode="normal" in="SourceGraphic" in2="effect1_dropShadow_105_284" result="shape"/>
</filter>
<linearGradient id="paint0_linear_105_284" x1="70.125" y1="3.75" x2="-21.4917" y2="98.8876" gradientUnits="userSpaceOnUse">
<stop stop-color="white"/>
<stop offset="0.354167" stop-color="#FFC700"/>
<stop offset="0.622361" stop-color="#FF993C" stop-opacity="0.85"/>
<stop offset="1" stop-color="#FF993C" stop-opacity="0"/>
</linearGradient>
</defs>
</svg>
