<svg width="16" height="18" viewBox="0 0 16 18" fill="none" xmlns="http://www.w3.org/2000/svg">
<path d="M8.50325 0.959999C9.55925 0.959999 10.4953 1.072 11.3113 1.296C12.1433 1.504 12.7993 1.768 13.2793 2.088C13.7593 2.408 14.1593 2.784 14.4793 3.216C14.9913 3.92 15.2473 4.632 15.2473 5.352C15.2473 6.056 15.1033 6.712 14.8153 7.32C14.5273 7.912 14.2073 8.4 13.8553 8.784C13.5193 9.152 13.1113 9.584 12.6313 10.08C12.1513 10.56 11.8233 10.928 11.6473 11.184C11.4713 11.44 11.3593 11.6 11.3113 11.664C11.1513 11.84 10.9593 11.928 10.7353 11.928H5.59925C5.48725 11.928 5.38325 11.888 5.28725 11.808C5.19125 11.712 5.14325 11.616 5.14325 11.52C5.14325 11.104 5.39925 10.576 5.91125 9.936C6.42325 9.296 6.87925 8.8 7.27925 8.448C8.35125 7.536 8.88725 6.856 8.88725 6.408C8.88725 6.168 8.80725 5.984 8.64725 5.856C8.50325 5.712 8.27125 5.64 7.95125 5.64C7.64725 5.64 7.38325 5.72 7.15925 5.88C6.95125 6.024 6.81525 6.192 6.75125 6.384C6.60725 6.88 6.29525 7.128 5.81525 7.128H1.35125C1.17525 7.128 1.03125 7.056 0.91925 6.912C0.80725 6.768 0.75125 6.6 0.75125 6.408V6.384C0.75125 5.008 1.42325 3.76 2.76725 2.64C4.12725 1.52 6.03925 0.959999 8.50325 0.959999ZM5.83925 12.888H10.2313C10.4073 12.888 10.5593 12.952 10.6873 13.08C10.8153 13.208 10.8793 13.36 10.8793 13.536V17.352C10.8793 17.528 10.8153 17.68 10.6873 17.808C10.5593 17.936 10.4073 18 10.2313 18H5.83925C5.66325 18 5.51125 17.936 5.38325 17.808C5.25525 17.68 5.19125 17.528 5.19125 17.352V13.536C5.19125 13.36 5.25525 13.208 5.38325 13.08C5.51125 12.952 5.66325 12.888 5.83925 12.888Z" fill="#352200"/>
</svg>
