<svg width="48" height="48" viewBox="0 0 48 48" fill="none" xmlns="http://www.w3.org/2000/svg">
<path d="M24.0023 18.5005V28.0004V28.5004M24.0025 31.9341L24.0023 32.5004M26.578 8.00059L29.02 10.0816C29.6352 10.6059 30.399 10.9228 31.2048 10.9871L34.4029 11.242C36.2831 11.392 37.7766 12.8846 37.9267 14.7649L38.1809 17.9635C38.2452 18.7692 38.5633 19.5342 39.0876 20.1494L41.1677 22.5906C42.3911 24.0263 42.3913 26.1381 41.1679 27.5737L39.0878 30.0154C38.5635 30.6306 38.2458 31.3958 38.1815 32.2016L37.9257 35.3996C37.7756 37.2799 36.2845 38.7734 34.4042 38.9234L31.205 39.1787C30.3992 39.243 29.6346 39.5591 29.0194 40.0834L26.578 42.1645C25.1424 43.3879 23.0293 43.3882 21.5937 42.1647L19.1522 40.0836C18.537 39.5593 17.7724 39.2426 16.9667 39.1783L13.7675 38.9234C11.8872 38.7734 10.396 37.2803 10.246 35.4L9.99014 32.2018C9.92584 31.396 9.60816 30.6314 9.08389 30.0162L7.00381 27.5738C5.78036 26.1382 5.77979 24.0271 7.00324 22.5914L9.08519 20.149C9.60946 19.5338 9.92409 18.7692 9.98839 17.9635L10.2442 14.7652C10.3943 12.885 11.8898 11.3919 13.77 11.2418L16.9657 10.9869C17.7715 10.9226 18.5364 10.6059 19.1516 10.0816L21.5939 8.00059C23.0295 6.77715 25.1424 6.77715 26.578 8.00059Z" stroke="white" stroke-width="2" stroke-linecap="round" stroke-linejoin="round"/>
</svg>
