<svg width="23" height="29" viewBox="0 0 23 29" fill="none" xmlns="http://www.w3.org/2000/svg">
<g filter="url(#filter0_d_104_189)">
<mask id="path-1-outside-1_104_189" maskUnits="userSpaceOnUse" x="0" y="0" width="23" height="27" fill="black">
<rect fill="white" width="23" height="27"/>
<path d="M12.336 2C13.744 2 14.992 2.14933 16.08 2.448C17.1893 2.72533 18.064 3.07733 18.704 3.504C19.344 3.93067 19.8773 4.432 20.304 5.008C20.9867 5.94667 21.328 6.896 21.328 7.856C21.328 8.79467 21.136 9.66933 20.752 10.48C20.368 11.2693 19.9413 11.92 19.472 12.432C19.024 12.9227 18.48 13.4987 17.84 14.16C17.2 14.8 16.7627 15.2907 16.528 15.632C16.2933 15.9733 16.144 16.1867 16.08 16.272C15.8667 16.5067 15.6107 16.624 15.312 16.624H8.464C8.31467 16.624 8.176 16.5707 8.048 16.464C7.92 16.336 7.856 16.208 7.856 16.08C7.856 15.5253 8.19733 14.8213 8.88 13.968C9.56267 13.1147 10.1707 12.4533 10.704 11.984C12.1333 10.768 12.848 9.86133 12.848 9.264C12.848 8.944 12.7413 8.69867 12.528 8.528C12.336 8.336 12.0267 8.24 11.6 8.24C11.1947 8.24 10.8427 8.34667 10.544 8.56C10.2667 8.752 10.0853 8.976 10 9.232C9.808 9.89333 9.392 10.224 8.752 10.224H2.8C2.56533 10.224 2.37333 10.128 2.224 9.936C2.07467 9.744 2 9.52 2 9.264V9.232C2 7.39733 2.896 5.73333 4.688 4.24C6.50133 2.74667 9.05067 2 12.336 2ZM8.784 17.904H14.64C14.8747 17.904 15.0773 17.9893 15.248 18.16C15.4187 18.3307 15.504 18.5333 15.504 18.768V23.856C15.504 24.0907 15.4187 24.2933 15.248 24.464C15.0773 24.6347 14.8747 24.72 14.64 24.72H8.784C8.54933 24.72 8.34667 24.6347 8.176 24.464C8.00533 24.2933 7.92 24.0907 7.92 23.856V18.768C7.92 18.5333 8.00533 18.3307 8.176 18.16C8.34667 17.9893 8.54933 17.904 8.784 17.904Z"/>
</mask>
<path d="M12.336 2C13.744 2 14.992 2.14933 16.08 2.448C17.1893 2.72533 18.064 3.07733 18.704 3.504C19.344 3.93067 19.8773 4.432 20.304 5.008C20.9867 5.94667 21.328 6.896 21.328 7.856C21.328 8.79467 21.136 9.66933 20.752 10.48C20.368 11.2693 19.9413 11.92 19.472 12.432C19.024 12.9227 18.48 13.4987 17.84 14.16C17.2 14.8 16.7627 15.2907 16.528 15.632C16.2933 15.9733 16.144 16.1867 16.08 16.272C15.8667 16.5067 15.6107 16.624 15.312 16.624H8.464C8.31467 16.624 8.176 16.5707 8.048 16.464C7.92 16.336 7.856 16.208 7.856 16.08C7.856 15.5253 8.19733 14.8213 8.88 13.968C9.56267 13.1147 10.1707 12.4533 10.704 11.984C12.1333 10.768 12.848 9.86133 12.848 9.264C12.848 8.944 12.7413 8.69867 12.528 8.528C12.336 8.336 12.0267 8.24 11.6 8.24C11.1947 8.24 10.8427 8.34667 10.544 8.56C10.2667 8.752 10.0853 8.976 10 9.232C9.808 9.89333 9.392 10.224 8.752 10.224H2.8C2.56533 10.224 2.37333 10.128 2.224 9.936C2.07467 9.744 2 9.52 2 9.264V9.232C2 7.39733 2.896 5.73333 4.688 4.24C6.50133 2.74667 9.05067 2 12.336 2ZM8.784 17.904H14.64C14.8747 17.904 15.0773 17.9893 15.248 18.16C15.4187 18.3307 15.504 18.5333 15.504 18.768V23.856C15.504 24.0907 15.4187 24.2933 15.248 24.464C15.0773 24.6347 14.8747 24.72 14.64 24.72H8.784C8.54933 24.72 8.34667 24.6347 8.176 24.464C8.00533 24.2933 7.92 24.0907 7.92 23.856V18.768C7.92 18.5333 8.00533 18.3307 8.176 18.16C8.34667 17.9893 8.54933 17.904 8.784 17.904Z" fill="white"/>
<path d="M16.08 2.448L15.6829 3.89449L15.6995 3.89904L15.7162 3.90321L16.08 2.448ZM18.704 3.504L19.5361 2.25593L19.5361 2.25592L18.704 3.504ZM20.304 5.008L21.5172 4.12571L21.5093 4.11516L20.304 5.008ZM20.752 10.48L22.1009 11.1362L22.1043 11.1292L22.1076 11.1221L20.752 10.48ZM19.472 12.432L18.3663 11.4184L18.3643 11.4206L19.472 12.432ZM17.84 14.16L18.9007 15.2207L18.9094 15.212L18.9179 15.2031L17.84 14.16ZM16.08 16.272L17.1899 17.281L17.2375 17.2286L17.28 17.172L16.08 16.272ZM8.048 16.464L6.98734 17.5247L7.03545 17.5728L7.08772 17.6163L8.048 16.464ZM8.88 13.968L7.7087 13.031L7.7087 13.031L8.88 13.968ZM10.704 11.984L9.73203 10.8415L9.72248 10.8496L9.71306 10.8579L10.704 11.984ZM12.528 8.528L11.4673 9.58866L11.5261 9.6474L11.591 9.6993L12.528 8.528ZM10.544 8.56L11.3978 9.79329L11.4069 9.78701L11.4159 9.7806L10.544 8.56ZM10 9.232L8.57698 8.75766L8.56768 8.78555L8.55948 8.81379L10 9.232ZM2.224 9.936L1.03997 10.8569L1.03997 10.8569L2.224 9.936ZM4.688 4.24L3.73442 3.08208L3.72772 3.08767L4.688 4.24ZM15.248 18.16L16.3087 17.0993L16.3087 17.0993L15.248 18.16ZM15.248 24.464L16.3087 25.5247L16.3087 25.5247L15.248 24.464ZM12.336 3.5C13.6415 3.5 14.7516 3.63884 15.6829 3.89449L16.4771 1.00151C15.2324 0.659829 13.8465 0.5 12.336 0.5V3.5ZM15.7162 3.90321C16.732 4.15716 17.4266 4.45519 17.872 4.75208L19.5361 2.25592C18.7014 1.69947 17.6467 1.29351 16.4438 0.992786L15.7162 3.90321ZM17.872 4.75207C18.3785 5.08979 18.7823 5.47375 19.0987 5.90084L21.5093 4.11516C20.9724 3.39025 20.3095 2.77154 19.5361 2.25593L17.872 4.75207ZM19.0909 5.89026C19.6269 6.62733 19.828 7.27463 19.828 7.856H22.828C22.828 6.51737 22.3464 5.26601 21.5171 4.12574L19.0909 5.89026ZM19.828 7.856C19.828 8.58315 19.6809 9.23727 19.3964 9.83787L22.1076 11.1221C22.5911 10.1014 22.828 9.00618 22.828 7.856H19.828ZM19.4032 9.8238C19.0666 10.5155 18.7159 11.037 18.3663 11.4184L20.5777 13.4456C21.1668 12.803 21.6694 12.0232 22.1009 11.1362L19.4032 9.8238ZM18.3643 11.4206C17.929 11.8974 17.3955 12.4623 16.7621 13.1169L18.9179 15.2031C19.5645 14.535 20.119 13.948 20.5797 13.4434L18.3643 11.4206ZM16.7793 13.0993C16.1321 13.7466 15.6101 14.3194 15.2919 14.7822L17.7641 16.4818C17.9152 16.262 18.2679 15.8534 18.9007 15.2207L16.7793 13.0993ZM15.2919 14.7822C15.0511 15.1325 14.9213 15.3169 14.88 15.372L17.28 17.172C17.3667 17.0565 17.5356 16.8141 17.7641 16.4818L15.2919 14.7822ZM14.9701 15.263C14.9824 15.2495 15.0253 15.208 15.103 15.1724C15.1829 15.1358 15.2589 15.124 15.312 15.124V18.124C16.0619 18.124 16.7121 17.8066 17.1899 17.281L14.9701 15.263ZM15.312 15.124H8.464V18.124H15.312V15.124ZM8.464 15.124C8.57247 15.124 8.68307 15.1442 8.78647 15.184C8.88774 15.2229 8.96133 15.2725 9.00828 15.3117L7.08772 17.6163C7.45205 17.9199 7.92279 18.124 8.464 18.124V15.124ZM9.10866 15.4033C9.14416 15.4388 9.356 15.6699 9.356 16.08H6.356C6.356 16.7461 6.69584 17.2332 6.98734 17.5247L9.10866 15.4033ZM9.356 16.08C9.356 16.1027 9.35199 16.0167 9.46172 15.7904C9.56869 15.5698 9.75453 15.276 10.0513 14.905L7.7087 13.031C6.98851 13.9312 6.356 14.9827 6.356 16.08H9.356ZM10.0513 14.905C10.7052 14.0877 11.2521 13.4998 11.6949 13.1101L9.71306 10.8579C9.08925 11.4069 8.42016 12.1416 7.7087 13.031L10.0513 14.905ZM11.676 13.1265C12.4256 12.4887 13.0453 11.8848 13.49 11.3206C13.8895 10.8138 14.348 10.0948 14.348 9.264H11.348C11.348 9.03053 11.4492 9.06357 11.134 9.46343C10.864 9.80587 10.4117 10.2633 9.73203 10.8415L11.676 13.1265ZM14.348 9.264C14.348 8.57572 14.0973 7.86248 13.465 7.3567L11.591 9.6993C11.5112 9.63548 11.4385 9.54423 11.3924 9.43809C11.3492 9.33879 11.348 9.27014 11.348 9.264H14.348ZM13.5887 7.46734C12.9906 6.8693 12.2041 6.74 11.6 6.74V9.74C11.7075 9.74 11.7341 9.75287 11.7074 9.7446C11.6742 9.73429 11.5737 9.69505 11.4673 9.58866L13.5887 7.46734ZM11.6 6.74C10.9162 6.74 10.2517 6.92544 9.67214 7.3394L11.4159 9.7806C11.4336 9.7679 11.4731 9.74 11.6 9.74V6.74ZM9.69019 7.32671C9.21372 7.65657 8.78825 8.12384 8.57698 8.75766L11.423 9.70634C11.4145 9.73185 11.4042 9.75481 11.3932 9.77447C11.3824 9.79397 11.3724 9.80769 11.3659 9.8158C11.3531 9.83162 11.357 9.82157 11.3978 9.79329L9.69019 7.32671ZM8.55948 8.81379C8.52459 8.93398 8.5123 8.87993 8.61063 8.80177C8.65706 8.76487 8.70497 8.74206 8.74176 8.73054C8.77551 8.71997 8.78328 8.724 8.752 8.724V11.724C9.33932 11.724 9.95285 11.5672 10.4774 11.1502C10.9917 10.7414 11.2834 10.1914 11.4405 9.65021L8.55948 8.81379ZM8.752 8.724H2.8V11.724H8.752V8.724ZM2.8 8.724C2.89346 8.724 3.01965 8.74478 3.15082 8.81036C3.28031 8.8751 3.36356 8.95792 3.40803 9.01509L1.03997 10.8569C1.46139 11.3987 2.0831 11.724 2.8 11.724V8.724ZM3.40803 9.01509C3.43457 9.04922 3.46096 9.09547 3.47902 9.14966C3.49679 9.20296 3.5 9.24433 3.5 9.264H0.5C0.5 9.83478 0.67461 10.3872 1.03997 10.8569L3.40803 9.01509ZM3.5 9.264V9.232H0.5V9.264H3.5ZM3.5 9.232C3.5 7.95855 4.09779 6.6844 5.64828 5.39233L3.72772 3.08767C1.69421 4.78226 0.5 6.83611 0.5 9.232H3.5ZM5.64156 5.3979C7.09683 4.19944 9.26164 3.5 12.336 3.5V0.5C8.8397 0.5 5.90584 1.29389 3.73444 3.0821L5.64156 5.3979ZM8.784 19.404H14.64V16.404H8.784V19.404ZM14.64 19.404C14.571 19.404 14.481 19.3905 14.3859 19.3505C14.2917 19.3108 14.2258 19.2591 14.1873 19.2207L16.3087 17.0993C15.8657 16.6563 15.285 16.404 14.64 16.404V19.404ZM14.1873 19.2207C14.1489 19.1822 14.0972 19.1163 14.0575 19.0221C14.0175 18.927 14.004 18.837 14.004 18.768H17.004C17.004 18.123 16.7517 17.5423 16.3087 17.0993L14.1873 19.2207ZM14.004 18.768V23.856H17.004V18.768H14.004ZM14.004 23.856C14.004 23.787 14.0175 23.697 14.0575 23.6019C14.0972 23.5077 14.1489 23.4418 14.1873 23.4033L16.3087 25.5247C16.7517 25.0817 17.004 24.501 17.004 23.856H14.004ZM14.1873 23.4033C14.2258 23.3649 14.2917 23.3132 14.3859 23.2735C14.481 23.2335 14.571 23.22 14.64 23.22V26.22C15.285 26.22 15.8657 25.9677 16.3087 25.5247L14.1873 23.4033ZM14.64 23.22H8.784V26.22H14.64V23.22ZM8.784 23.22C8.85299 23.22 8.94303 23.2335 9.03809 23.2735C9.13231 23.3132 9.19822 23.3649 9.23666 23.4033L7.11534 25.5247C7.55833 25.9677 8.13899 26.22 8.784 26.22V23.22ZM9.23666 23.4033C9.2751 23.4418 9.32678 23.5077 9.36645 23.6019C9.40648 23.697 9.42 23.787 9.42 23.856H6.42C6.42 24.501 6.67235 25.0817 7.11534 25.5247L9.23666 23.4033ZM9.42 23.856V18.768H6.42V23.856H9.42ZM9.42 18.768C9.42 18.837 9.40648 18.927 9.36645 19.0221C9.32678 19.1163 9.2751 19.1822 9.23666 19.2207L7.11534 17.0993C6.67234 17.5423 6.42 18.123 6.42 18.768H9.42ZM9.23666 19.2207C9.19822 19.2591 9.13231 19.3108 9.03808 19.3505C8.94302 19.3905 8.85298 19.404 8.784 19.404V16.404C8.139 16.404 7.55834 16.6563 7.11534 17.0993L9.23666 19.2207Z" fill="black" mask="url(#path-1-outside-1_104_189)"/>
</g>
<defs>
<filter id="filter0_d_104_189" x="0.5" y="0.5" width="22.3281" height="27.72" filterUnits="userSpaceOnUse" color-interpolation-filters="sRGB">
<feFlood flood-opacity="0" result="BackgroundImageFix"/>
<feColorMatrix in="SourceAlpha" type="matrix" values="0 0 0 0 0 0 0 0 0 0 0 0 0 0 0 0 0 0 127 0" result="hardAlpha"/>
<feOffset dy="2"/>
<feComposite in2="hardAlpha" operator="out"/>
<feColorMatrix type="matrix" values="0 0 0 0 0 0 0 0 0 0 0 0 0 0 0 0 0 0 1 0"/>
<feBlend mode="normal" in2="BackgroundImageFix" result="effect1_dropShadow_104_189"/>
<feBlend mode="normal" in="SourceGraphic" in2="effect1_dropShadow_104_189" result="shape"/>
</filter>
</defs>
</svg>
