<svg width="24" height="25" viewBox="0 0 24 25" fill="none" xmlns="http://www.w3.org/2000/svg">
<g filter="url(#filter0_d_117_452)">
<mask id="path-1-outside-1_117_452" maskUnits="userSpaceOnUse" x="1" y="1.00012" width="22" height="22" fill="black">
<rect fill="white" x="1" y="1.00012" width="22" height="22"/>
<path fill-rule="evenodd" clip-rule="evenodd" d="M2 12.0001C2 6.48012 6.47 2.00012 12 2.00012C17.52 2.00012 22 6.48012 22 12.0001C22 17.5301 17.52 22.0001 12 22.0001C6.47 22.0001 2 17.5301 2 12.0001ZM14.23 13.8301L15.85 8.71012C15.96 8.36012 15.64 8.03012 15.29 8.14012L10.17 9.74012C9.96 9.81012 9.79 9.97012 9.73 10.1801L8.13 15.3101C8.02 15.6501 8.35 15.9801 8.69 15.8701L13.79 14.2701C14 14.2101 14.17 14.0401 14.23 13.8301Z"/>
</mask>
<path fill-rule="evenodd" clip-rule="evenodd" d="M2 12.0001C2 6.48012 6.47 2.00012 12 2.00012C17.52 2.00012 22 6.48012 22 12.0001C22 17.5301 17.52 22.0001 12 22.0001C6.47 22.0001 2 17.5301 2 12.0001ZM14.23 13.8301L15.85 8.71012C15.96 8.36012 15.64 8.03012 15.29 8.14012L10.17 9.74012C9.96 9.81012 9.79 9.97012 9.73 10.1801L8.13 15.3101C8.02 15.6501 8.35 15.9801 8.69 15.8701L13.79 14.2701C14 14.2101 14.17 14.0401 14.23 13.8301Z" fill="white"/>
<path d="M15.85 8.71012L16.8034 9.01179L16.804 9.00995L15.85 8.71012ZM14.23 13.8301L13.2766 13.5285L13.2723 13.5419L13.2685 13.5554L14.23 13.8301ZM15.29 8.14012L15.5883 9.0946L15.5898 9.09412L15.29 8.14012ZM10.17 9.74012L9.87173 8.78564L9.86272 8.78846L9.85377 8.79144L10.17 9.74012ZM9.73 10.1801L10.6846 10.4779L10.6882 10.4664L10.6915 10.4548L9.73 10.1801ZM8.13 15.3101L9.0815 15.618L9.08464 15.6079L8.13 15.3101ZM8.69 15.8701L8.39065 14.9159L8.38218 14.9187L8.69 15.8701ZM13.79 14.2701L13.5153 13.3086L13.5029 13.3121L13.4907 13.316L13.79 14.2701ZM12 1.00012C5.91706 1.00012 1 5.92849 1 12.0001H3C3 7.03176 7.02294 3.00012 12 3.00012V1.00012ZM23 12.0001C23 5.92784 18.0723 1.00012 12 1.00012V3.00012C16.9677 3.00012 21 7.03241 21 12.0001H23ZM12 23.0001C18.0716 23.0001 23 18.0831 23 12.0001H21C21 16.9772 16.9684 21.0001 12 21.0001V23.0001ZM1 12.0001C1 18.0824 5.91772 23.0001 12 23.0001V21.0001C7.02228 21.0001 3 16.9778 3 12.0001H1ZM14.8966 8.40846L13.2766 13.5285L15.1834 14.1318L16.8034 9.01179L14.8966 8.40846ZM15.5898 9.09412C15.138 9.23613 14.7734 8.80037 14.896 8.4103L16.804 9.00995C17.1466 7.91987 16.142 6.82411 14.9902 7.18613L15.5898 9.09412ZM10.4683 10.6946L15.5883 9.0946L14.9917 7.18564L9.87173 8.78564L10.4683 10.6946ZM10.6915 10.4548C10.6488 10.6045 10.5453 10.6691 10.4862 10.6888L9.85377 8.79144C9.37472 8.95112 8.93122 9.33579 8.76848 9.9054L10.6915 10.4548ZM9.08464 15.6079L10.6846 10.4779L8.77535 9.88238L7.17535 15.0124L9.08464 15.6079ZM8.38218 14.9187C8.81848 14.7775 9.2226 15.1816 9.08144 15.6179L7.17855 15.0023C6.8174 16.1186 7.88152 17.1827 8.99782 16.8216L8.38218 14.9187ZM13.4907 13.316L8.39066 14.916L8.98934 16.8243L14.0893 15.2243L13.4907 13.316ZM13.2685 13.5554C13.3034 13.4332 13.3931 13.3435 13.5153 13.3086L14.0647 15.2316C14.6069 15.0767 15.0366 14.6471 15.1915 14.1048L13.2685 13.5554Z" fill="#464646" mask="url(#path-1-outside-1_117_452)"/>
</g>
<defs>
<filter id="filter0_d_117_452" x="1" y="1.00012" width="22" height="24" filterUnits="userSpaceOnUse" color-interpolation-filters="sRGB">
<feFlood flood-opacity="0" result="BackgroundImageFix"/>
<feColorMatrix in="SourceAlpha" type="matrix" values="0 0 0 0 0 0 0 0 0 0 0 0 0 0 0 0 0 0 127 0" result="hardAlpha"/>
<feOffset dy="2"/>
<feComposite in2="hardAlpha" operator="out"/>
<feColorMatrix type="matrix" values="0 0 0 0 0.160784 0 0 0 0 0.160784 0 0 0 0 0.160784 0 0 0 1 0"/>
<feBlend mode="normal" in2="BackgroundImageFix" result="effect1_dropShadow_117_452"/>
<feBlend mode="normal" in="SourceGraphic" in2="effect1_dropShadow_117_452" result="shape"/>
</filter>
</defs>
</svg>
