<svg width="58" height="19" viewBox="0 0 58 19" fill="none" xmlns="http://www.w3.org/2000/svg">
<path d="M0.443001 6.48C0.443001 4.848 1.115 3.52 2.459 2.496C3.819 1.472 5.595 0.959999 7.787 0.959999C9.995 0.959999 11.795 1.496 13.187 2.568C14.595 3.64 15.299 4.76 15.299 5.928C15.299 6.072 15.243 6.2 15.131 6.312C15.035 6.408 14.923 6.456 14.795 6.456H9.995C9.627 6.456 9.291 6.32 8.987 6.048C8.683 5.776 8.275 5.64 7.763 5.64C6.995 5.64 6.611 5.864 6.611 6.312C6.611 6.552 6.795 6.752 7.163 6.912C7.547 7.072 8.251 7.216 9.275 7.344C11.659 7.648 13.355 8.208 14.363 9.024C15.387 9.824 15.899 11.048 15.899 12.696C15.899 14.328 15.147 15.664 13.643 16.704C12.155 17.728 10.203 18.24 7.787 18.24C5.371 18.24 3.475 17.744 2.099 16.752C0.723001 15.76 0.0350006 14.552 0.0350006 13.128C0.0350006 12.984 0.0830006 12.864 0.179001 12.768C0.291001 12.656 0.419001 12.6 0.563001 12.6H5.123C5.459 12.6 5.827 12.76 6.227 13.08C6.643 13.4 7.211 13.56 7.931 13.56C9.131 13.56 9.731 13.336 9.731 12.888C9.731 12.6 9.515 12.384 9.083 12.24C8.651 12.08 7.835 11.92 6.635 11.76C2.507 11.216 0.443001 9.456 0.443001 6.48ZM17.8599 1.2H25.0119C27.3159 1.2 29.1159 1.696 30.4119 2.688C31.7079 3.68 32.3559 5.144 32.3559 7.08C32.3559 9.016 31.7079 10.448 30.4119 11.376C29.1319 12.304 27.3319 12.768 25.0119 12.768H23.4519V17.352C23.4519 17.528 23.3879 17.68 23.2599 17.808C23.1319 17.936 22.9799 18 22.8039 18H17.8599C17.6839 18 17.5319 17.936 17.4039 17.808C17.2759 17.68 17.2119 17.528 17.2119 17.352V1.848C17.2119 1.672 17.2759 1.52 17.4039 1.392C17.5319 1.264 17.6839 1.2 17.8599 1.2ZM23.3319 5.664V8.328H25.0119C25.2999 8.328 25.5559 8.224 25.7799 8.016C26.0039 7.792 26.1159 7.48 26.1159 7.08C26.1159 6.68 26.0279 6.344 25.8519 6.072C25.6759 5.8 25.3959 5.664 25.0119 5.664H23.3319ZM39.2099 18H34.3139C34.1379 18 33.9859 17.936 33.8579 17.808C33.7299 17.68 33.6659 17.528 33.6659 17.352V1.848C33.6659 1.672 33.7299 1.52 33.8579 1.392C33.9859 1.264 34.1379 1.2 34.3139 1.2H39.2099C39.3859 1.2 39.5379 1.264 39.6659 1.392C39.7939 1.52 39.8579 1.672 39.8579 1.848V17.352C39.8579 17.528 39.7939 17.68 39.6659 17.808C39.5379 17.936 39.3859 18 39.2099 18ZM52.1386 1.2H56.4826C56.6586 1.2 56.8106 1.264 56.9386 1.392C57.0666 1.52 57.1306 1.672 57.1306 1.848V17.352C57.1306 17.528 57.0666 17.68 56.9386 17.808C56.8106 17.936 56.6586 18 56.4826 18H52.6906C52.2746 18 51.9466 17.816 51.7066 17.448L47.6506 11.328V17.352C47.6506 17.528 47.5866 17.68 47.4586 17.808C47.3306 17.936 47.1786 18 47.0026 18H42.6586C42.4826 18 42.3306 17.936 42.2026 17.808C42.0746 17.68 42.0106 17.528 42.0106 17.352V1.848C42.0106 1.672 42.0746 1.52 42.2026 1.392C42.3306 1.264 42.4826 1.2 42.6586 1.2H46.4506C46.8986 1.2 47.2266 1.384 47.4346 1.752L51.4906 8.4V1.848C51.4906 1.672 51.5546 1.52 51.6826 1.392C51.8106 1.264 51.9626 1.2 52.1386 1.2Z" fill="#352200"/>
</svg>
