<svg width="24" height="24" viewBox="0 0 24 24" fill="none" xmlns="http://www.w3.org/2000/svg">
<path opacity="0.4" d="M10.3741 2.72171L5.37624 4.94296C3.93062 5.58546 2.97663 7.0243 3.06862 8.6036C3.42825 14.7778 5.23629 17.496 9.93442 20.6766C11.179 21.5192 12.8196 21.5213 14.0633 20.6773C18.7758 17.4793 20.5192 14.7228 20.9104 8.62498C21.0124 7.03525 20.0569 5.58113 18.6012 4.93415L13.6232 2.72171C12.5889 2.26203 11.4083 2.26204 10.3741 2.72171Z" fill="#00FF5A"/>
<path fill-rule="evenodd" clip-rule="evenodd" d="M15.4939 9.43558C15.8056 9.70834 15.8372 10.1822 15.5645 10.4939L12.6946 13.7738C12.0779 14.4786 11.0156 14.5729 10.2843 13.9879L8.53151 12.5857C8.20806 12.3269 8.15562 11.8549 8.41438 11.5315C8.67313 11.208 9.1451 11.1556 9.46855 11.4144L11.2214 12.8166C11.3258 12.9002 11.4776 12.8867 11.5657 12.786L14.4356 9.50613C14.7084 9.1944 15.1822 9.16282 15.4939 9.43558Z" fill="#00FF5A"/>
</svg>
