<svg width="38" height="38" viewBox="0 0 38 38" fill="none" xmlns="http://www.w3.org/2000/svg">
<path d="M24.9999 14.9996L16.9999 22.9996L12.9999 18.9996M21.4921 1.91759L23.934 3.99858C24.5492 4.52286 25.3131 4.83982 26.1188 4.90411L29.3169 5.15899C31.1972 5.30904 32.6907 6.80159 32.8407 8.68185L33.095 11.8805C33.1593 12.6862 33.4774 13.4512 34.0017 14.0664L36.0817 16.5076C37.3052 17.9433 37.3054 20.0551 36.0819 21.4907L34.0019 23.9323C33.4776 24.5476 33.1599 25.3128 33.0956 26.1186L32.8397 29.3166C32.6897 31.1969 31.1985 32.6904 29.3183 32.8404L26.119 33.0957C25.3133 33.16 24.5487 33.4761 23.9335 34.0004L21.4921 36.0815C20.0564 37.3049 17.9434 37.3052 16.5077 36.0817L14.0663 34.0006C13.4511 33.4763 12.6865 33.1596 11.8808 33.0953L8.68155 32.8404C6.80128 32.6904 5.31011 31.1973 5.16006 29.317L4.9042 26.1188C4.8399 25.313 4.52223 24.5484 3.99795 23.9332L1.91787 21.4908C0.694425 20.0552 0.693851 17.9441 1.9173 16.5084L3.99925 14.066C4.52353 13.4508 4.83815 12.6862 4.90245 11.8805L5.1583 8.68223C5.30835 6.80197 6.80383 5.30884 8.68409 5.1588L11.8798 4.90391C12.6855 4.83962 13.4505 4.52292 14.0657 3.99864L16.5079 1.91759C17.9436 0.694138 20.0564 0.694138 21.4921 1.91759Z" stroke="white" stroke-width="2" stroke-linecap="round" stroke-linejoin="round"/>
</svg>
