<svg width="32" height="32" viewBox="0 0 32 32" fill="none" xmlns="http://www.w3.org/2000/svg">
<g clip-path="url(#clip0_1_509)">
<path d="M32 16C32 24.84 24.84 32 16 32C7.16 32 0 24.84 0 16C0 7.16 7.16 0 16 0C24.84 0 32 7.16 32 16Z" fill="url(#paint0_linear_1_509)"/>
<path d="M13.0667 23.3333C12.5467 23.3333 12.64 23.1333 12.4533 22.64L10.9333 17.6267L20.3734 11.7333L21.48 12.0267L20.56 14.5333L13.0667 23.3333Z" fill="#C8DAEA"/>
<path d="M13.0667 23.3333C13.4667 23.3333 13.64 23.1467 13.8667 22.9333C14.2133 22.6 18.6667 18.2667 18.6667 18.2667L15.9333 17.6L13.4 19.2L13.0667 23.2V23.3333Z" fill="#A9C9DD"/>
<path d="M13.3334 19.2533L19.7867 24.0133C20.52 24.4133 21.0534 24.2133 21.24 23.3333L23.8667 10.96C24.1334 9.88001 23.4534 9.40001 22.7467 9.72001L7.33337 15.6667C6.28004 16.0933 6.29337 16.68 7.14671 16.9333L11.1067 18.1733L20.2667 12.4C20.6934 12.1333 21.0934 12.28 20.7734 12.5733L13.3334 19.2533Z" fill="url(#paint1_linear_1_509)"/>
</g>
<defs>
<linearGradient id="paint0_linear_1_509" x1="20.6893" y1="5.05733" x2="12.6893" y2="23.7237" gradientUnits="userSpaceOnUse">
<stop stop-color="#37AEE2"/>
<stop offset="1" stop-color="#1E96C8"/>
</linearGradient>
<linearGradient id="paint1_linear_1_509" x1="17.1988" y1="16.5007" x2="20.5322" y2="21.834" gradientUnits="userSpaceOnUse">
<stop stop-color="#EFF7FC"/>
<stop offset="1" stop-color="white"/>
</linearGradient>
<clipPath id="clip0_1_509">
<rect width="32" height="32" fill="white"/>
</clipPath>
</defs>
</svg>
