<svg width="26" height="26" viewBox="0 0 26 26" fill="none" xmlns="http://www.w3.org/2000/svg">
<path d="M14.3851 0.775937C13.5858 0.358763 12.4879 0.352498 11.683 0.76819C8.24478 2.54385 5.12921 4.57828 2.40125 6.83242C2.03748 7.13301 1.79675 7.55372 1.80087 8.03459C1.80498 8.51381 2.05118 8.92984 2.41375 9.2263C5.11975 11.4389 8.23883 13.4757 11.6145 15.2375C12.4138 15.6547 13.5117 15.661 14.3166 15.2453C17.7548 13.4696 20.8704 11.4352 23.5984 9.18106C23.9621 8.88048 24.2029 8.45977 24.1987 7.9789C24.1946 7.49967 23.9484 7.08365 23.5859 6.78719C20.8799 4.5746 17.7608 2.53777 14.3851 0.775937Z" fill="#7C7882"/>
<path d="M24.9438 14.3086C25.4123 14.0161 25.555 13.3993 25.2625 12.9308C24.97 12.4623 24.3531 12.3196 23.8847 12.6121L15.7417 17.696C15.0163 18.1488 14.0308 18.4013 12.9996 18.4014C11.9683 18.4014 10.9827 18.1491 10.2572 17.6963L2.20341 12.6699C1.73488 12.3775 1.11803 12.5203 0.82562 12.9888C0.533214 13.4574 0.675988 14.0742 1.14452 14.3666L9.19829 19.3929C10.3034 20.0827 11.6744 20.4015 12.9997 20.4014C14.3249 20.4013 15.6959 20.0823 16.8009 19.3925L24.9438 14.3086Z" fill="#7C7882"/>
<path d="M24.9439 19.3149C25.4124 19.0223 25.555 18.4054 25.2624 17.937C24.9699 17.4685 24.353 17.3259 23.8846 17.6185L16.8327 22.0223C15.8022 22.6658 14.4238 23.0137 12.9995 23.0137C11.5753 23.0138 10.1967 22.6661 9.166 22.0227L2.20351 17.6763C1.73502 17.3838 1.11815 17.5265 0.825683 17.995C0.533221 18.4635 0.675921 19.0804 1.14441 19.3729L8.1069 23.7193C9.51727 24.5997 11.2814 25.0138 12.9996 25.0137C14.7179 25.0136 16.4819 24.5993 17.8921 23.7187L24.9439 19.3149Z" fill="#7C7882"/>
</svg>
