<svg width="28" height="28" viewBox="0 0 28 28" fill="none" xmlns="http://www.w3.org/2000/svg">
<path d="M15 14.5C15 15.3284 14.3284 16 13.5 16C12.6716 16 12 15.3284 12 14.5C12 13.6716 12.6716 13 13.5 13C14.3284 13 15 13.6716 15 14.5Z" fill="#141414"/>
<path fill-rule="evenodd" clip-rule="evenodd" d="M22.4586 20.0022C24.0727 19.5 25.0404 18.276 25.0404 15.5202C25.0404 9.15776 19.8826 4 13.5202 4C7.15776 4 2 9.15776 2 15.5202C2 18.4591 3.10052 19.6559 4.91194 20.093C4.83644 19.6595 4.79754 19.2016 4.79754 18.7199C4.79754 16.2112 5.84725 14.2572 7.60147 12.9877C9.2838 11.7702 11.4707 11.2798 13.6777 11.2798C15.8847 11.2798 18.0716 11.7702 19.7539 12.9877C21.5081 14.2572 22.5578 16.2112 22.5578 18.7199C22.5578 19.1681 22.5241 19.5957 22.4586 20.0022ZM11.7761 23.8866C12.3819 23.9643 13.0195 24 13.6777 24C17.6542 24 20.8778 22.6964 20.8778 18.7199C20.8778 14.7434 17.6542 12.9598 13.6777 12.9598C9.70117 12.9598 6.47757 14.7434 6.47757 18.7199C6.47757 19.3051 6.54739 19.8324 6.67915 20.3062L6.68151 20.3063C7.29658 22.5185 9.26195 23.5639 11.7761 23.8866ZM12.0771 18.88C12.0771 19.6753 11.4324 20.32 10.6371 20.32C9.84182 20.32 9.1971 19.6753 9.1971 18.88C9.1971 18.0847 9.84182 17.44 10.6371 17.44C11.4324 17.44 12.0771 18.0847 12.0771 18.88ZM15.9172 20.32C16.7125 20.32 17.3572 19.6753 17.3572 18.88C17.3572 18.0847 16.7125 17.44 15.9172 17.44C15.1219 17.44 14.4772 18.0847 14.4772 18.88C14.4772 19.6753 15.1219 20.32 15.9172 20.32Z" fill="#5E5E5E"/>
</svg>
