<svg width="28" height="28" viewBox="0 0 28 28" fill="none" xmlns="http://www.w3.org/2000/svg">
<path d="M0.015625 14.0161C0.015625 6.29302 6.28414 0.0322266 14.0072 0.0322266C21.7303 0.0322266 27.9988 6.29302 27.9988 14.0161C27.9988 21.7392 21.7303 28 14.0072 28C6.28414 28 0.015625 21.7392 0.015625 14.0161Z" fill="url(#paint0_linear_683_5047)"/>
<path d="M1.33208 14.0161C1.33208 7.02102 7.01025 1.34868 14.0072 1.34868C21.0042 1.34868 26.6823 7.02102 26.6823 14.0161C26.6823 21.0112 21.0042 26.6835 14.0072 26.6835C7.01025 26.6835 1.33208 21.0112 1.33208 14.0161Z" stroke="white" stroke-opacity="0.2" stroke-width="2.63291"/>
<path d="M3.28125 14.1879C3.28125 8.17402 8.16245 3.29883 14.1763 3.29883C20.1901 3.29883 25.0714 8.17402 25.0714 14.1879C25.0714 20.2017 20.1901 25.0769 14.1763 25.0769C8.16245 25.0769 3.28125 20.2017 3.28125 14.1879Z" fill="url(#paint1_linear_683_5047)"/>
<path d="M14 16C12.3431 16 11 14.6569 11 13C11 11.3431 12.3431 10 14 10C15.6569 10 17 11.3431 17 13C17 14.6569 15.6569 16 14 16Z" fill="white"/>
<path d="M19.2166 21.3323C17.9349 19.9008 16.0727 19 14 19C11.9273 19 10.0649 19.9008 8.7832 21.3323M14 23C9.02944 23 5 18.9706 5 14C5 9.02944 9.02944 5 14 5C18.9706 5 23 9.02944 23 14C23 18.9706 18.9706 23 14 23ZM14 16C12.3431 16 11 14.6569 11 13C11 11.3431 12.3431 10 14 10C15.6569 10 17 11.3431 17 13C17 14.6569 15.6569 16 14 16Z" stroke="white" stroke-width="1.4" stroke-linecap="round" stroke-linejoin="round"/>
<path d="M14 19L9 21L14 23V19Z" fill="white"/>
<path d="M14 19L19 21L14 23V19Z" fill="white"/>
<defs>
<linearGradient id="paint0_linear_683_5047" x1="4.92906" y1="2.65128" x2="20.2656" y2="26.8384" gradientUnits="userSpaceOnUse">
<stop stop-color="#7A7A7A"/>
<stop offset="1" stop-color="#414141"/>
</linearGradient>
<linearGradient id="paint1_linear_683_5047" x1="7.10727" y1="5.33825" x2="19.0496" y2="24.1724" gradientUnits="userSpaceOnUse">
<stop stop-color="#7A7A7A"/>
<stop offset="1" stop-color="#414141"/>
</linearGradient>
</defs>
</svg>
