<svg width="32" height="32" viewBox="0 0 32 32" fill="none" xmlns="http://www.w3.org/2000/svg">
<circle cx="16" cy="16" r="15.75" fill="#1E1E1E" stroke="#323232" stroke-width="0.5"/>
<g clip-path="url(#clip0_1_353)">
<path d="M12.6249 17.6875L15.7187 14.5937M14.3124 19.375L15.7187 17.9687M9.48295 16.3295L15.6704 10.142C15.8814 9.93103 16.1676 9.8125 16.4659 9.8125H21.0625C21.6838 9.8125 22.1875 10.3162 22.1875 10.9375V15.534C22.1875 15.8324 22.0689 16.1185 21.8579 16.3295L15.6704 22.517C15.2311 22.9563 14.5188 22.9563 14.0795 22.517L9.48295 17.9205C9.04361 17.4812 9.04361 16.7688 9.48295 16.3295Z" stroke="white" stroke-width="1.4" stroke-linecap="round" stroke-linejoin="round"/>
<path d="M19.9375 12.625C19.9375 12.9357 19.6857 13.1875 19.375 13.1875C19.0643 13.1875 18.8125 12.9357 18.8125 12.625C18.8125 12.3143 19.0643 12.0625 19.375 12.0625C19.6857 12.0625 19.9375 12.3143 19.9375 12.625Z" fill="white"/>
</g>
<defs>
<clipPath id="clip0_1_353">
<rect width="18" height="18" fill="white" transform="translate(7 7)"/>
</clipPath>
</defs>
</svg>
