<svg width="32" height="32" viewBox="0 0 32 32" fill="none" xmlns="http://www.w3.org/2000/svg">
<g clip-path="url(#clip0_1_59)">
<path d="M32 16C32 24.84 24.84 32 16 32C7.16 32 0 24.84 0 16C0 7.16 7.16 0 16 0C24.84 0 32 7.16 32 16Z" fill="url(#paint0_linear_1_59)"/>
<path fill-rule="evenodd" clip-rule="evenodd" d="M20.065 17.7866C19.8421 17.6751 18.746 17.1359 18.5416 17.0616C18.3373 16.9872 18.1887 16.95 18.0401 17.1731C17.8914 17.3962 17.4642 17.8982 17.3341 18.047C17.2041 18.1957 17.0741 18.2143 16.8511 18.1027C16.6282 17.9912 15.9099 17.7559 15.0583 16.9965C14.3956 16.4056 13.9481 15.6757 13.8181 15.4526C13.6881 15.2295 13.8043 15.1089 13.9159 14.9978C14.0162 14.898 14.1388 14.7375 14.2503 14.6074C14.3618 14.4772 14.3989 14.3843 14.4732 14.2355C14.5475 14.0868 14.5104 13.9566 14.4546 13.8451C14.3989 13.7335 13.9531 12.6366 13.7673 12.1903C13.5863 11.7558 13.4025 11.8146 13.2657 11.8077C13.1358 11.8013 12.987 11.7999 12.8384 11.7999C12.6898 11.7999 12.4483 11.8557 12.2439 12.0788C12.0395 12.3019 11.4636 12.8411 11.4636 13.938C11.4636 15.035 12.2625 16.0948 12.3739 16.2435C12.4854 16.3923 13.946 18.6434 16.1823 19.6087C16.7142 19.8383 17.1295 19.9755 17.4533 20.0782C17.9873 20.2478 18.4733 20.2239 18.8575 20.1665C19.2858 20.1025 20.1765 19.6273 20.3623 19.1067C20.548 18.5862 20.548 18.1399 20.4923 18.047C20.4366 17.954 20.288 17.8982 20.065 17.7866ZM15.9972 23.3389H15.9942C14.6635 23.3384 13.3584 22.9811 12.2198 22.3056L11.949 22.1449L9.14224 22.881L9.89142 20.1453L9.71509 19.8648C8.97275 18.6845 8.58071 17.3202 8.58126 15.9194C8.58286 11.8319 11.9096 8.50643 16.0002 8.50643C17.9809 8.5072 19.8429 9.27936 21.243 10.6806C22.6432 12.0819 23.4138 13.9445 23.4131 15.9254C23.4114 20.0132 20.0847 23.3389 15.9972 23.3389ZM22.3087 9.6158C20.6242 7.92985 18.384 7.00093 15.9972 7C11.0793 7 7.07682 11.001 7.07483 15.9188C7.07419 17.4909 7.48503 19.0254 8.26578 20.378L7 25L11.7299 23.7597C13.033 24.4703 14.5003 24.8447 15.9936 24.8454H15.9973C20.9146 24.8454 24.9175 20.8439 24.9195 15.9259C24.9204 13.5427 23.9933 11.3017 22.3087 9.6158Z" fill="white"/>
</g>
<defs>
<linearGradient id="paint0_linear_1_59" x1="16" y1="0" x2="16" y2="32" gradientUnits="userSpaceOnUse">
<stop stop-color="#25CF43"/>
<stop offset="1" stop-color="#61FD7D"/>
</linearGradient>
<clipPath id="clip0_1_59">
<rect width="32" height="32" fill="white"/>
</clipPath>
</defs>
</svg>
