<svg width="24" height="24" viewBox="0 0 24 24" fill="none" xmlns="http://www.w3.org/2000/svg">
<g filter="url(#filter0_d_98_331)">
<mask id="path-1-outside-1_98_331" maskUnits="userSpaceOnUse" x="1" y="1.00012" width="22" height="22" fill="black">
<rect fill="white" x="1" y="1.00012" width="22" height="22"/>
<path fill-rule="evenodd" clip-rule="evenodd" d="M12 22.0001C6.48 22.0001 2 17.5301 2 12.0001C2 6.48012 6.48 2.00012 12 2.00012C17.53 2.00012 22 6.48012 22 12.0001C22 17.5301 17.53 22.0001 12 22.0001ZM15.19 15.7101C15.31 15.7801 15.44 15.8201 15.58 15.8201C15.83 15.8201 16.08 15.6901 16.22 15.4501C16.43 15.1001 16.32 14.6401 15.96 14.4201L12.4 12.3001V7.68012C12.4 7.26012 12.06 6.93012 11.65 6.93012C11.24 6.93012 10.9 7.26012 10.9 7.68012V12.7301C10.9 12.9901 11.04 13.2301 11.27 13.3701L15.19 15.7101Z"/>
</mask>
<path fill-rule="evenodd" clip-rule="evenodd" d="M12 22.0001C6.48 22.0001 2 17.5301 2 12.0001C2 6.48012 6.48 2.00012 12 2.00012C17.53 2.00012 22 6.48012 22 12.0001C22 17.5301 17.53 22.0001 12 22.0001ZM15.19 15.7101C15.31 15.7801 15.44 15.8201 15.58 15.8201C15.83 15.8201 16.08 15.6901 16.22 15.4501C16.43 15.1001 16.32 14.6401 15.96 14.4201L12.4 12.3001V7.68012C12.4 7.26012 12.06 6.93012 11.65 6.93012C11.24 6.93012 10.9 7.26012 10.9 7.68012V12.7301C10.9 12.9901 11.04 13.2301 11.27 13.3701L15.19 15.7101Z" fill="white"/>
<path d="M15.19 15.7101L14.6774 16.5688L14.6861 16.5739L15.19 15.7101ZM16.22 15.4501L15.3624 14.9356L15.3562 14.9463L16.22 15.4501ZM15.96 14.4201L16.4815 13.5668L16.4717 13.5609L15.96 14.4201ZM12.4 12.3001H11.4V12.8685L11.8883 13.1593L12.4 12.3001ZM11.27 13.3701L10.75 14.2244L10.7574 14.2288L11.27 13.3701ZM1 12.0001C1 18.0831 5.92837 23.0001 12 23.0001V21.0001C7.03163 21.0001 3 16.9772 3 12.0001H1ZM12 1.00012C5.92772 1.00012 1 5.92784 1 12.0001H3C3 7.03241 7.03228 3.00012 12 3.00012V1.00012ZM23 12.0001C23 5.92849 18.0829 1.00012 12 1.00012V3.00012C16.9771 3.00012 21 7.03176 21 12.0001H23ZM12 23.0001C18.0823 23.0001 23 18.0824 23 12.0001H21C21 16.9778 16.9777 21.0001 12 21.0001V23.0001ZM15.58 14.8201C15.6066 14.8201 15.6323 14.8241 15.6547 14.8305C15.6763 14.8368 15.6896 14.8438 15.6939 14.8463L14.6861 16.5739C14.9384 16.7211 15.2405 16.8201 15.58 16.8201V14.8201ZM15.3562 14.9463C15.4027 14.8665 15.4891 14.8201 15.58 14.8201V16.8201C16.1709 16.8201 16.7573 16.5137 17.0838 15.954L15.3562 14.9463ZM15.4386 15.2734C15.334 15.2095 15.2876 15.0605 15.3625 14.9356L17.0775 15.9646C17.5724 15.1398 17.306 14.0707 16.4814 13.5668L15.4386 15.2734ZM11.8883 13.1593L15.4483 15.2793L16.4717 13.5609L12.9117 11.4409L11.8883 13.1593ZM11.4 7.68012V12.3001H13.4V7.68012H11.4ZM11.65 7.93012C11.5164 7.93012 11.4 7.82108 11.4 7.68012H13.4C13.4 6.69917 12.6036 5.93012 11.65 5.93012V7.93012ZM11.9 7.68012C11.9 7.82108 11.7836 7.93012 11.65 7.93012V5.93012C10.6964 5.93012 9.9 6.69917 9.9 7.68012H11.9ZM11.9 12.7301V7.68012H9.9V12.7301H11.9ZM11.7899 12.5159C11.8406 12.5467 11.9 12.6211 11.9 12.7301H9.9C9.9 13.3591 10.2394 13.9135 10.7501 14.2243L11.7899 12.5159ZM15.7026 14.8515L11.7826 12.5115L10.7574 14.2288L14.6774 16.5688L15.7026 14.8515Z" fill="black" mask="url(#path-1-outside-1_98_331)"/>
</g>
<defs>
<filter id="filter0_d_98_331" x="1" y="1.00012" width="22" height="23" filterUnits="userSpaceOnUse" color-interpolation-filters="sRGB">
<feFlood flood-opacity="0" result="BackgroundImageFix"/>
<feColorMatrix in="SourceAlpha" type="matrix" values="0 0 0 0 0 0 0 0 0 0 0 0 0 0 0 0 0 0 127 0" result="hardAlpha"/>
<feOffset dy="1"/>
<feComposite in2="hardAlpha" operator="out"/>
<feColorMatrix type="matrix" values="0 0 0 0 0 0 0 0 0 0 0 0 0 0 0 0 0 0 1 0"/>
<feBlend mode="normal" in2="BackgroundImageFix" result="effect1_dropShadow_98_331"/>
<feBlend mode="normal" in="SourceGraphic" in2="effect1_dropShadow_98_331" result="shape"/>
</filter>
</defs>
</svg>
