<svg width="29" height="30" viewBox="0 0 29 30" fill="none" xmlns="http://www.w3.org/2000/svg">
<path d="M29 14.4251C29 16.4317 28.5894 17.6614 27.9655 18.4341C27.3501 19.1963 26.4338 19.6288 25.156 19.839C23.865 20.0514 22.2964 20.0222 20.4698 19.9305C20.0548 19.9097 19.6273 19.8857 19.1889 19.8611C17.7243 19.7788 16.1387 19.6898 14.5 19.6898C12.8613 19.6898 11.2757 19.7788 9.81104 19.8611C9.37266 19.8857 8.9451 19.9097 8.53021 19.9305C6.70359 20.0222 5.13493 20.0514 3.84393 19.839C2.56623 19.6288 1.64986 19.1963 1.03444 18.4341C0.410556 17.6614 0 16.4317 0 14.4251C0 6.45833 6.49184 0 14.5 0C22.5081 0 29 6.45833 29 14.4251Z" fill="white"/>
<path d="M14.5 28C17.183 28 19.7778 27.556 21.7347 26.2911C23.7723 24.9741 25 22.8412 25 19.8207C25 16.8157 23.7883 14.5478 21.792 13.0693C19.8427 11.6256 17.2394 11 14.5 11C11.7606 11 9.15728 11.6256 7.20796 13.0693C5.21169 14.5478 4 16.8157 4 19.8207C4 22.8412 5.22771 24.9741 7.2653 26.2911C9.22215 27.556 11.817 28 14.5 28Z" fill="white"/>
<path fill-rule="evenodd" clip-rule="evenodd" d="M23.3574 27.9235C20.7149 29.5492 17.4523 30 14.5 30C11.5477 30 8.2851 29.5492 5.64263 27.9235C2.70928 26.1189 1 23.1452 1 19.3113C1 15.5308 2.65122 12.4872 5.43824 10.5225C8.0554 8.67754 11.3489 8 14.5 8C17.6511 8 20.9446 8.67754 23.5617 10.5225C26.3488 12.4872 28 15.5308 28 19.3113C28 23.1452 26.2907 26.1188 23.3574 27.9235ZM21.8773 25.5914C19.8818 26.819 17.2358 27.25 14.5 27.25C11.7642 27.25 9.11816 26.819 7.12274 25.5914C5.045 24.3131 3.7931 22.2429 3.7931 19.3113C3.7931 16.3947 5.02867 14.1934 7.06428 12.7585C9.05201 11.3572 11.7067 10.75 14.5 10.75C17.2933 10.75 19.948 11.3572 21.9357 12.7585C23.9713 14.1934 25.2069 16.3947 25.2069 19.3113C25.2069 22.2429 23.955 24.3131 21.8773 25.5914Z" fill="#1E1E1E"/>
<path d="M11 21C12.1046 21 13 20.1046 13 19C13 17.8954 12.1046 17 11 17C9.89543 17 9 17.8954 9 19C9 20.1046 9.89543 21 11 21Z" fill="#141414"/>
<path d="M18 21C19.1046 21 20 20.1046 20 19C20 17.8954 19.1046 17 18 17C16.8954 17 16 17.8954 16 19C16 20.1046 16.8954 21 18 21Z" fill="#141414"/>
</svg>
