<svg width="151" height="115" viewBox="0 0 151 115" fill="none" xmlns="http://www.w3.org/2000/svg">
<path d="M112.785 53C112.785 39.7392 107.517 27.0215 98.1405 17.6447C88.7637 8.26784 76.046 3 62.7852 3C49.5243 3 36.8066 8.26784 27.4298 17.6447C18.053 27.0215 12.7852 39.7392 12.7852 53L112.785 53Z" fill="#47311D"/>
<g filter="url(#filter0_di_117_1816)">
<mask id="path-2-outside-1_117_1816" maskUnits="userSpaceOnUse" x="59.7852" y="0" width="43" height="61" fill="black">
<rect fill="white" x="59.7852" width="43" height="61"/>
<path d="M98.1405 17.6447C88.7637 8.26784 76.046 3 62.7852 3L62.7852 53L98.1405 17.6447Z"/>
</mask>
<path d="M98.1405 17.6447C88.7637 8.26784 76.046 3 62.7852 3L62.7852 53L98.1405 17.6447Z" fill="url(#paint0_linear_117_1816)"/>
<path d="M98.1405 17.6447C88.7637 8.26784 76.046 3 62.7852 3L62.7852 53L98.1405 17.6447Z" stroke="url(#paint1_linear_117_1816)" stroke-width="6" mask="url(#path-2-outside-1_117_1816)"/>
</g>
<g filter="url(#filter1_di_117_1816)">
<mask id="path-3-outside-2_117_1816" maskUnits="userSpaceOnUse" x="22.7852" y="0" width="43" height="61" fill="black">
<rect fill="white" x="22.7852" width="43" height="61"/>
<path d="M62.7852 3C49.5243 3 36.8066 8.26784 27.4298 17.6447L62.7852 53L62.7852 3Z"/>
</mask>
<path d="M62.7852 3C49.5243 3 36.8066 8.26784 27.4298 17.6447L62.7852 53L62.7852 3Z" fill="url(#paint2_linear_117_1816)"/>
<path d="M62.7852 3C49.5243 3 36.8066 8.26784 27.4298 17.6447L62.7852 53L62.7852 3Z" stroke="url(#paint3_linear_117_1816)" stroke-width="6" mask="url(#path-3-outside-2_117_1816)"/>
</g>
<g filter="url(#filter2_di_117_1816)">
<mask id="path-4-outside-3_117_1816" maskUnits="userSpaceOnUse" x="54.7852" y="13" width="61" height="43" fill="black">
<rect fill="white" x="54.7852" y="13" width="61" height="43"/>
<path d="M112.785 53C112.785 39.7392 107.517 27.0215 98.1405 17.6447L62.7852 53H112.785Z"/>
</mask>
<path d="M112.785 53C112.785 39.7392 107.517 27.0215 98.1405 17.6447L62.7852 53H112.785Z" fill="url(#paint4_linear_117_1816)"/>
<path d="M112.785 53C112.785 39.7392 107.517 27.0215 98.1405 17.6447L62.7852 53H112.785Z" stroke="url(#paint5_linear_117_1816)" stroke-width="6" mask="url(#path-4-outside-3_117_1816)"/>
</g>
<g filter="url(#filter3_di_117_1816)">
<path d="M9.75391 52.6721L18.4579 48.8961L21.8499 59.3601L27.6419 50.4641L32.4739 58.8481L36.3139 47.3921L43.6739 52.6721L35.7379 76.1921L27.7699 68.0321L19.5459 78.4001L9.75391 52.6721Z" fill="url(#paint6_linear_117_1816)"/>
<path d="M43.0452 50.8161L52.3892 49.9201L51.2692 61.6641L56.0052 61.3121L56.3892 50.1441L65.5092 49.6961L62.9172 74.4001L55.4932 75.2961L55.9092 68.2561L52.5492 68.7361L52.2292 76.0961L44.2612 76.2561L43.0452 50.8161Z" fill="url(#paint7_linear_117_1816)"/>
<path d="M66.8117 51.2321L84.4757 49.9201L83.4837 58.0161L75.4517 58.3681L75.4197 59.9041L81.2437 59.4881L80.5717 65.0881L75.2277 65.5041L75.1637 67.2641L84.3157 66.4001L84.1557 75.2321L67.0357 76.1601L66.8117 51.2321Z" fill="url(#paint8_linear_117_1816)"/>
<path d="M85.7492 51.2321L103.413 49.9201L102.421 58.0161L94.3892 58.3681L94.3572 59.9041L100.181 59.4881L99.5092 65.0881L94.1652 65.5041L94.1012 67.2641L103.253 66.4001L103.093 75.2321L85.9732 76.1601L85.7492 51.2321Z" fill="url(#paint9_linear_117_1816)"/>
<path d="M104.847 50.9761L114.479 49.6321L113.647 67.6481L121.487 66.0161L121.871 75.0081L105.071 76.7041L104.847 50.9761Z" fill="url(#paint10_linear_117_1816)"/>
<path d="M9.15693 51.296L7.84227 51.8663L8.35201 53.2056L18.144 78.9336L19.0821 81.3985L20.7211 79.3323L27.8866 70.2987L34.6647 77.24L36.376 78.9926L37.1592 76.6716L42.0819 62.082L42.7629 76.3277L42.8325 77.7851L44.2913 77.7558L52.2593 77.5958L53.6666 77.5675L53.7277 76.1612L53.9937 70.045L54.3035 70.0007L53.9958 75.2076L53.8898 77.0005L55.6729 76.7853L63.0969 75.8893L64.2842 75.746L64.409 74.5566L65.4334 64.7924L65.5357 76.1736L65.5498 77.7428L67.1168 77.6579L84.2368 76.7299L84.4781 76.7168L84.4873 77.7428L86.0544 77.6579L103.174 76.7299L103.571 76.7084L103.571 76.7172L103.585 78.3617L105.221 78.1965L122.021 76.5005L123.43 76.3583L123.369 74.9441L122.985 65.9521L122.91 64.1877L121.181 64.5476L115.234 65.7854L115.977 49.7013L116.06 47.8969L114.271 48.1465L104.983 49.4425L105.124 48.2889L103.302 48.4242L86.0128 49.7084L86.1867 48.2889L84.3645 48.4242L67.0156 49.7128L67.1836 48.112L65.4356 48.1979L56.3156 48.6459L54.9375 48.7136L54.89 50.0925L54.5523 59.9159L52.9312 60.0364L53.8824 50.0625L54.0549 48.2535L52.246 48.4269L42.902 49.3229L41.7347 49.4349L37.1883 46.1733L35.5374 44.989L34.8917 46.9154L32.1103 55.2132L28.9415 49.7151L27.7198 47.5953L26.3849 49.6457L22.3077 55.9079L19.8848 48.4335L19.3757 46.8629L17.8609 47.52L9.15693 51.296ZM84.3232 59.4807L84.3718 64.8881L84.1747 64.9067L82.0805 65.1044L82.733 59.6668L82.747 59.5498L83.5493 59.5147L84.3232 59.4807ZM103.112 64.9067L101.018 65.1044L101.67 59.6668L101.685 59.5498L102.487 59.5147L103.421 59.4737L103.468 64.8732L103.112 64.9067Z" stroke="url(#paint11_linear_117_1816)" stroke-width="3"/>
</g>
<g filter="url(#filter4_di_117_1816)">
<path d="M135.033 75.688C134.649 76.072 134.179 76.408 133.625 76.696C133.081 76.984 132.494 77.2027 131.865 77.352C131.235 77.5013 130.585 77.5707 129.913 77.56C129.251 77.5493 128.611 77.432 127.993 77.208C127.385 76.9947 126.825 76.664 126.313 76.216C125.801 75.768 125.385 75.1867 125.065 74.472C124.702 73.672 124.489 72.8773 124.425 72.088C124.35 71.2987 124.398 70.5413 124.569 69.816C124.739 69.08 125.017 68.3867 125.401 67.736C125.785 67.0853 126.249 66.4987 126.793 65.976C127.337 65.4427 127.945 64.984 128.617 64.6C129.299 64.216 130.025 63.9227 130.793 63.72C131.518 63.5387 132.195 63.4853 132.825 63.56C133.465 63.624 134.041 63.7733 134.553 64.008C135.065 64.2427 135.497 64.5307 135.849 64.872C136.211 65.2027 136.483 65.5387 136.665 65.88C136.995 66.52 137.241 67.2453 137.401 68.056C137.571 68.856 137.609 69.688 137.513 70.552C137.427 71.416 137.187 72.2907 136.793 73.176C136.398 74.0507 135.811 74.888 135.033 75.688ZM132.905 68.872C132.745 68.5307 132.515 68.2853 132.217 68.136C131.929 67.9867 131.614 67.9227 131.273 67.944C130.931 67.9653 130.585 68.0667 130.233 68.248C129.881 68.4187 129.561 68.664 129.273 68.984C128.985 69.2933 128.745 69.672 128.553 70.12C128.371 70.568 128.281 71.064 128.281 71.608C128.27 72.12 128.339 72.536 128.489 72.856C128.649 73.176 128.846 73.416 129.081 73.576C129.326 73.7253 129.603 73.8107 129.913 73.832C130.222 73.8427 130.526 73.7947 130.825 73.688C131.134 73.5813 131.422 73.4267 131.689 73.224C131.955 73.0107 132.179 72.7653 132.361 72.488C132.627 72.072 132.819 71.688 132.937 71.336C133.065 70.9733 133.139 70.6427 133.161 70.344C133.193 70.0453 133.182 69.7733 133.129 69.528C133.075 69.2827 133.001 69.064 132.905 68.872Z" fill="url(#paint12_linear_117_1816)"/>
<path d="M137.619 64.6L146.467 63.96L145.971 68.12L141.939 68.28L141.763 69.528L145.123 69.32L145.347 72.68L141.971 72.888L141.811 76.984L137.731 77.08L137.619 64.6Z" fill="url(#paint13_linear_117_1816)"/>
<path d="M136.093 76.7487L136.101 76.7415L136.108 76.7342C136.148 76.6929 136.188 76.6514 136.227 76.6097L136.232 77.0935L136.245 78.6154L137.767 78.5796L141.847 78.4836L143.255 78.4505L143.31 77.0426L143.417 74.3018L145.44 74.1772L146.944 74.0845L146.844 72.5802L146.645 69.5945L147.309 69.5681L147.461 68.2976L147.957 64.1376L148.172 62.3328L146.359 62.4639L137.511 63.1039L136.166 63.2013C135.858 62.9896 135.527 62.8046 135.178 62.6444C134.5 62.3336 133.764 62.1478 132.987 62.0688C132.152 61.9717 131.295 62.0483 130.429 62.2648L130.419 62.2672L130.41 62.2697C129.521 62.5044 128.677 62.8453 127.881 63.2926L127.881 63.2926L127.873 63.2976C127.093 63.743 126.384 64.2773 125.748 64.8996C125.108 65.5156 124.561 66.2079 124.109 66.9736L125.401 67.736L124.109 66.9736C123.648 67.7553 123.313 68.5907 123.108 69.4748C122.899 70.3649 122.843 71.2824 122.93 72.2194C123.011 73.1941 123.273 74.1522 123.697 75.0882C124.092 75.9692 124.628 76.7352 125.325 77.3449C125.971 77.91 126.693 78.3407 127.489 78.6209C128.262 78.9001 129.065 79.0465 129.889 79.0598L129.889 79.0598C130.681 79.0724 131.456 78.9907 132.211 78.8115C132.956 78.6348 133.661 78.3735 134.321 78.0245C134.99 77.6767 135.587 77.2549 136.093 76.7487ZM131.547 69.5087L131.555 69.5259L131.563 69.5428C131.595 69.6061 131.632 69.7034 131.663 69.8467C131.676 69.9076 131.687 70.0149 131.669 70.1842L131.666 70.2106L131.665 70.2371C131.655 70.3703 131.618 70.5667 131.522 70.8368L131.518 70.8492L131.514 70.8617C131.447 71.063 131.32 71.3316 131.102 71.6722C131.014 71.8059 130.904 71.9283 130.766 72.0409C130.628 72.1438 130.486 72.2183 130.336 72.27L130.328 72.2726L130.32 72.2754C130.205 72.3165 130.098 72.334 129.992 72.3335C129.957 72.3298 129.931 72.3239 129.91 72.3173C129.895 72.2972 129.871 72.2632 129.843 72.209C129.82 72.1529 129.773 71.9856 129.78 71.6393L129.781 71.6236V71.608C129.781 71.2395 129.841 70.9417 129.938 70.6962C130.07 70.3907 130.219 70.1686 130.371 70.0061L130.379 69.9969L130.388 69.9875C130.559 69.797 130.726 69.6757 130.887 69.5977L130.903 69.5898L130.92 69.5815C131.116 69.4802 131.262 69.4476 131.366 69.4411C131.449 69.4359 131.491 69.4497 131.524 69.4664C131.529 69.4746 131.537 69.4882 131.547 69.5087Z" stroke="url(#paint14_linear_117_1816)" stroke-width="3"/>
</g>
<g filter="url(#filter5_di_117_1816)">
<mask id="path-9-outside-4_117_1816" maskUnits="userSpaceOnUse" x="0" y="73.0547" width="151" height="39" fill="black">
<rect fill="white" y="73.0547" width="151" height="39"/>
<path d="M4 81.2L21.696 79.92L20.704 88.24L12.64 88.56L12.288 91.056L19.008 90.64L19.456 97.36L12.704 97.776L12.384 105.968L4.224 106.16L4 81.2Z"/>
<path d="M40.7327 103.376C39.9647 104.144 39.0261 104.816 37.9167 105.392C36.8287 105.968 35.6554 106.405 34.3968 106.704C33.1381 107.003 31.8368 107.141 30.4928 107.12C29.1701 107.099 27.8901 106.864 26.6528 106.416C25.4367 105.989 24.3167 105.328 23.2927 104.432C22.2687 103.536 21.4367 102.373 20.7967 100.944C20.0714 99.344 19.6448 97.7547 19.5168 96.176C19.3674 94.5974 19.4634 93.0827 19.8048 91.632C20.1461 90.16 20.7007 88.7734 21.4688 87.472C22.2368 86.1707 23.1648 84.9974 24.2528 83.952C25.3408 82.8854 26.5567 81.968 27.9007 81.2C29.2661 80.432 30.7168 79.8454 32.2528 79.44C33.7034 79.0774 35.0581 78.9707 36.3167 79.12C37.5967 79.248 38.7488 79.5467 39.7728 80.016C40.7968 80.4854 41.6608 81.0614 42.3648 81.744C43.0901 82.4054 43.6341 83.0774 43.9967 83.76C44.6581 85.04 45.1487 86.4907 45.4688 88.112C45.8101 89.712 45.8847 91.376 45.6927 93.104C45.5221 94.832 45.0421 96.5814 44.2528 98.352C43.4634 100.101 42.2901 101.776 40.7327 103.376ZM36.4768 89.744C36.1568 89.0614 35.6981 88.5707 35.1007 88.272C34.5247 87.9734 33.8954 87.8454 33.2127 87.888C32.5301 87.9307 31.8368 88.1334 31.1328 88.496C30.4288 88.8374 29.7887 89.328 29.2127 89.968C28.6367 90.5867 28.1568 91.344 27.7728 92.24C27.4101 93.136 27.2288 94.128 27.2288 95.216C27.2074 96.24 27.3461 97.072 27.6448 97.712C27.9648 98.352 28.3594 98.832 28.8288 99.152C29.3194 99.4507 29.8741 99.6214 30.4928 99.664C31.1114 99.6854 31.7194 99.5894 32.3167 99.376C32.9354 99.1627 33.5114 98.8534 34.0448 98.448C34.5781 98.0214 35.0261 97.5307 35.3888 96.976C35.9221 96.144 36.3061 95.376 36.5407 94.672C36.7967 93.9467 36.9461 93.2854 36.9888 92.688C37.0528 92.0907 37.0314 91.5467 36.9248 91.056C36.8181 90.5654 36.6688 90.128 36.4768 89.744Z"/>
<path d="M66.8662 101.424L61.9062 107.024L54.1302 101.296L54.0342 106.768L46.2902 105.968L45.7783 80.976C49.8316 80.5067 52.7969 80.1867 54.6743 80.016C56.5516 79.824 57.4902 79.728 57.4902 79.728C59.4956 79.5147 61.1596 79.664 62.4823 80.176C63.8263 80.688 64.8396 81.4347 65.5223 82.416C66.2263 83.376 66.6209 84.5067 66.7063 85.808C66.8129 87.088 66.6316 88.4107 66.1623 89.776C65.6929 91.12 64.9462 92.432 63.9222 93.712C62.9196 94.992 61.6716 96.1014 60.1782 97.04L66.8662 101.424ZM53.6502 88.144L53.3302 93.264C54.0982 93.0934 54.7596 92.848 55.3143 92.528C55.8903 92.208 56.3702 91.8667 56.7542 91.504C57.1382 91.1414 57.4263 90.8 57.6183 90.48C57.8316 90.1387 57.9596 89.872 58.0023 89.68C58.0023 89.6587 58.0129 89.5414 58.0342 89.328C58.0556 89.1147 58.0236 88.8587 57.9383 88.56C57.8743 88.2614 57.6929 88.016 57.3942 87.824C57.1169 87.6107 56.6796 87.5147 56.0823 87.536C55.4849 87.536 54.6742 87.7387 53.6502 88.144Z"/>
<path d="M82.7357 86.96L78.8958 87.408V105.424L69.8077 106.544L70.2878 88.272L66.0638 88.688L66.2878 80.816L83.5677 79.344L82.7357 86.96Z"/>
<path d="M102.623 80.72C102.751 83.984 102.837 86.608 102.879 88.592C102.943 90.576 102.986 92.1014 103.007 93.168C103.029 94.2347 103.039 94.9387 103.039 95.28C103.039 95.6214 103.039 95.792 103.039 95.792C103.061 97.0934 102.965 98.3414 102.751 99.536C102.538 100.731 102.143 101.819 101.567 102.8C101.013 103.76 100.245 104.592 99.2633 105.296C98.3033 105.979 97.0979 106.459 95.6472 106.736C93.4286 107.163 91.5193 107.205 89.9193 106.864C88.3193 106.523 86.9966 105.883 85.9512 104.944C84.9272 104.005 84.1806 102.821 83.7113 101.392C83.2419 99.9414 83.0286 98.352 83.0713 96.624C83.0713 96.6027 83.0713 96.496 83.0713 96.304C83.0713 96.0907 83.0819 95.6427 83.1032 94.96C83.1246 94.2774 83.1459 93.3174 83.1673 92.08C83.1886 90.8427 83.2312 89.1894 83.2952 87.12C83.3592 85.0507 83.4339 82.5334 83.5192 79.568L92.6712 81.168L91.8392 96.208C91.7539 96.7627 91.7539 97.2534 91.8392 97.68C91.9459 98.1067 92.0526 98.416 92.1592 98.608C92.2659 98.8 92.3299 98.9067 92.3512 98.928C92.5646 99.1627 92.8099 99.3014 93.0872 99.344C93.3646 99.3867 93.6739 99.1307 94.0153 98.576C94.0366 98.5547 94.1006 98.4267 94.2073 98.192C94.3139 97.936 94.4206 97.4987 94.5273 96.88C94.6339 96.2614 94.6659 95.504 94.6233 94.608L93.9512 82.32L102.623 80.72Z"/>
<path d="M105.073 79.92L117.297 90.064L117.585 79.472L127.121 80.112L125.649 104.528L113.393 98.416L113.841 105.968L104.657 106.544L105.073 79.92Z"/>
<path d="M128.936 81.232L146.6 79.92L145.608 88.016L137.576 88.368L137.544 89.904L143.368 89.488L142.696 95.088L137.352 95.504L137.288 97.264L146.44 96.4L146.28 105.232L129.16 106.16L128.936 81.232Z"/>
</mask>
<path d="M4 81.2L21.696 79.92L20.704 88.24L12.64 88.56L12.288 91.056L19.008 90.64L19.456 97.36L12.704 97.776L12.384 105.968L4.224 106.16L4 81.2Z" fill="url(#paint15_linear_117_1816)"/>
<path d="M40.7327 103.376C39.9647 104.144 39.0261 104.816 37.9167 105.392C36.8287 105.968 35.6554 106.405 34.3968 106.704C33.1381 107.003 31.8368 107.141 30.4928 107.12C29.1701 107.099 27.8901 106.864 26.6528 106.416C25.4367 105.989 24.3167 105.328 23.2927 104.432C22.2687 103.536 21.4367 102.373 20.7967 100.944C20.0714 99.344 19.6448 97.7547 19.5168 96.176C19.3674 94.5974 19.4634 93.0827 19.8048 91.632C20.1461 90.16 20.7007 88.7734 21.4688 87.472C22.2368 86.1707 23.1648 84.9974 24.2528 83.952C25.3408 82.8854 26.5567 81.968 27.9007 81.2C29.2661 80.432 30.7168 79.8454 32.2528 79.44C33.7034 79.0774 35.0581 78.9707 36.3167 79.12C37.5967 79.248 38.7488 79.5467 39.7728 80.016C40.7968 80.4854 41.6608 81.0614 42.3648 81.744C43.0901 82.4054 43.6341 83.0774 43.9967 83.76C44.6581 85.04 45.1487 86.4907 45.4688 88.112C45.8101 89.712 45.8847 91.376 45.6927 93.104C45.5221 94.832 45.0421 96.5814 44.2528 98.352C43.4634 100.101 42.2901 101.776 40.7327 103.376ZM36.4768 89.744C36.1568 89.0614 35.6981 88.5707 35.1007 88.272C34.5247 87.9734 33.8954 87.8454 33.2127 87.888C32.5301 87.9307 31.8368 88.1334 31.1328 88.496C30.4288 88.8374 29.7887 89.328 29.2127 89.968C28.6367 90.5867 28.1568 91.344 27.7728 92.24C27.4101 93.136 27.2288 94.128 27.2288 95.216C27.2074 96.24 27.3461 97.072 27.6448 97.712C27.9648 98.352 28.3594 98.832 28.8288 99.152C29.3194 99.4507 29.8741 99.6214 30.4928 99.664C31.1114 99.6854 31.7194 99.5894 32.3167 99.376C32.9354 99.1627 33.5114 98.8534 34.0448 98.448C34.5781 98.0214 35.0261 97.5307 35.3888 96.976C35.9221 96.144 36.3061 95.376 36.5407 94.672C36.7967 93.9467 36.9461 93.2854 36.9888 92.688C37.0528 92.0907 37.0314 91.5467 36.9248 91.056C36.8181 90.5654 36.6688 90.128 36.4768 89.744Z" fill="url(#paint16_linear_117_1816)"/>
<path d="M66.8662 101.424L61.9062 107.024L54.1302 101.296L54.0342 106.768L46.2902 105.968L45.7783 80.976C49.8316 80.5067 52.7969 80.1867 54.6743 80.016C56.5516 79.824 57.4902 79.728 57.4902 79.728C59.4956 79.5147 61.1596 79.664 62.4823 80.176C63.8263 80.688 64.8396 81.4347 65.5223 82.416C66.2263 83.376 66.6209 84.5067 66.7063 85.808C66.8129 87.088 66.6316 88.4107 66.1623 89.776C65.6929 91.12 64.9462 92.432 63.9222 93.712C62.9196 94.992 61.6716 96.1014 60.1782 97.04L66.8662 101.424ZM53.6502 88.144L53.3302 93.264C54.0982 93.0934 54.7596 92.848 55.3143 92.528C55.8903 92.208 56.3702 91.8667 56.7542 91.504C57.1382 91.1414 57.4263 90.8 57.6183 90.48C57.8316 90.1387 57.9596 89.872 58.0023 89.68C58.0023 89.6587 58.0129 89.5414 58.0342 89.328C58.0556 89.1147 58.0236 88.8587 57.9383 88.56C57.8743 88.2614 57.6929 88.016 57.3942 87.824C57.1169 87.6107 56.6796 87.5147 56.0823 87.536C55.4849 87.536 54.6742 87.7387 53.6502 88.144Z" fill="url(#paint17_linear_117_1816)"/>
<path d="M82.7357 86.96L78.8958 87.408V105.424L69.8077 106.544L70.2878 88.272L66.0638 88.688L66.2878 80.816L83.5677 79.344L82.7357 86.96Z" fill="url(#paint18_linear_117_1816)"/>
<path d="M102.623 80.72C102.751 83.984 102.837 86.608 102.879 88.592C102.943 90.576 102.986 92.1014 103.007 93.168C103.029 94.2347 103.039 94.9387 103.039 95.28C103.039 95.6214 103.039 95.792 103.039 95.792C103.061 97.0934 102.965 98.3414 102.751 99.536C102.538 100.731 102.143 101.819 101.567 102.8C101.013 103.76 100.245 104.592 99.2633 105.296C98.3033 105.979 97.0979 106.459 95.6472 106.736C93.4286 107.163 91.5193 107.205 89.9193 106.864C88.3193 106.523 86.9966 105.883 85.9512 104.944C84.9272 104.005 84.1806 102.821 83.7113 101.392C83.2419 99.9414 83.0286 98.352 83.0713 96.624C83.0713 96.6027 83.0713 96.496 83.0713 96.304C83.0713 96.0907 83.0819 95.6427 83.1032 94.96C83.1246 94.2774 83.1459 93.3174 83.1673 92.08C83.1886 90.8427 83.2312 89.1894 83.2952 87.12C83.3592 85.0507 83.4339 82.5334 83.5192 79.568L92.6712 81.168L91.8392 96.208C91.7539 96.7627 91.7539 97.2534 91.8392 97.68C91.9459 98.1067 92.0526 98.416 92.1592 98.608C92.2659 98.8 92.3299 98.9067 92.3512 98.928C92.5646 99.1627 92.8099 99.3014 93.0872 99.344C93.3646 99.3867 93.6739 99.1307 94.0153 98.576C94.0366 98.5547 94.1006 98.4267 94.2073 98.192C94.3139 97.936 94.4206 97.4987 94.5273 96.88C94.6339 96.2614 94.6659 95.504 94.6233 94.608L93.9512 82.32L102.623 80.72Z" fill="url(#paint19_linear_117_1816)"/>
<path d="M105.073 79.92L117.297 90.064L117.585 79.472L127.121 80.112L125.649 104.528L113.393 98.416L113.841 105.968L104.657 106.544L105.073 79.92Z" fill="url(#paint20_linear_117_1816)"/>
<path d="M128.936 81.232L146.6 79.92L145.608 88.016L137.576 88.368L137.544 89.904L143.368 89.488L142.696 95.088L137.352 95.504L137.288 97.264L146.44 96.4L146.28 105.232L129.16 106.16L128.936 81.232Z" fill="url(#paint21_linear_117_1816)"/>
<path d="M4 81.2L21.696 79.92L20.704 88.24L12.64 88.56L12.288 91.056L19.008 90.64L19.456 97.36L12.704 97.776L12.384 105.968L4.224 106.16L4 81.2Z" stroke="url(#paint22_linear_117_1816)" stroke-width="6" mask="url(#path-9-outside-4_117_1816)"/>
<path d="M40.7327 103.376C39.9647 104.144 39.0261 104.816 37.9167 105.392C36.8287 105.968 35.6554 106.405 34.3968 106.704C33.1381 107.003 31.8368 107.141 30.4928 107.12C29.1701 107.099 27.8901 106.864 26.6528 106.416C25.4367 105.989 24.3167 105.328 23.2927 104.432C22.2687 103.536 21.4367 102.373 20.7967 100.944C20.0714 99.344 19.6448 97.7547 19.5168 96.176C19.3674 94.5974 19.4634 93.0827 19.8048 91.632C20.1461 90.16 20.7007 88.7734 21.4688 87.472C22.2368 86.1707 23.1648 84.9974 24.2528 83.952C25.3408 82.8854 26.5567 81.968 27.9007 81.2C29.2661 80.432 30.7168 79.8454 32.2528 79.44C33.7034 79.0774 35.0581 78.9707 36.3167 79.12C37.5967 79.248 38.7488 79.5467 39.7728 80.016C40.7968 80.4854 41.6608 81.0614 42.3648 81.744C43.0901 82.4054 43.6341 83.0774 43.9967 83.76C44.6581 85.04 45.1487 86.4907 45.4688 88.112C45.8101 89.712 45.8847 91.376 45.6927 93.104C45.5221 94.832 45.0421 96.5814 44.2528 98.352C43.4634 100.101 42.2901 101.776 40.7327 103.376ZM36.4768 89.744C36.1568 89.0614 35.6981 88.5707 35.1007 88.272C34.5247 87.9734 33.8954 87.8454 33.2127 87.888C32.5301 87.9307 31.8368 88.1334 31.1328 88.496C30.4288 88.8374 29.7887 89.328 29.2127 89.968C28.6367 90.5867 28.1568 91.344 27.7728 92.24C27.4101 93.136 27.2288 94.128 27.2288 95.216C27.2074 96.24 27.3461 97.072 27.6448 97.712C27.9648 98.352 28.3594 98.832 28.8288 99.152C29.3194 99.4507 29.8741 99.6214 30.4928 99.664C31.1114 99.6854 31.7194 99.5894 32.3167 99.376C32.9354 99.1627 33.5114 98.8534 34.0448 98.448C34.5781 98.0214 35.0261 97.5307 35.3888 96.976C35.9221 96.144 36.3061 95.376 36.5407 94.672C36.7967 93.9467 36.9461 93.2854 36.9888 92.688C37.0528 92.0907 37.0314 91.5467 36.9248 91.056C36.8181 90.5654 36.6688 90.128 36.4768 89.744Z" stroke="url(#paint23_linear_117_1816)" stroke-width="6" mask="url(#path-9-outside-4_117_1816)"/>
<path d="M66.8662 101.424L61.9062 107.024L54.1302 101.296L54.0342 106.768L46.2902 105.968L45.7783 80.976C49.8316 80.5067 52.7969 80.1867 54.6743 80.016C56.5516 79.824 57.4902 79.728 57.4902 79.728C59.4956 79.5147 61.1596 79.664 62.4823 80.176C63.8263 80.688 64.8396 81.4347 65.5223 82.416C66.2263 83.376 66.6209 84.5067 66.7063 85.808C66.8129 87.088 66.6316 88.4107 66.1623 89.776C65.6929 91.12 64.9462 92.432 63.9222 93.712C62.9196 94.992 61.6716 96.1014 60.1782 97.04L66.8662 101.424ZM53.6502 88.144L53.3302 93.264C54.0982 93.0934 54.7596 92.848 55.3143 92.528C55.8903 92.208 56.3702 91.8667 56.7542 91.504C57.1382 91.1414 57.4263 90.8 57.6183 90.48C57.8316 90.1387 57.9596 89.872 58.0023 89.68C58.0023 89.6587 58.0129 89.5414 58.0342 89.328C58.0556 89.1147 58.0236 88.8587 57.9383 88.56C57.8743 88.2614 57.6929 88.016 57.3942 87.824C57.1169 87.6107 56.6796 87.5147 56.0823 87.536C55.4849 87.536 54.6742 87.7387 53.6502 88.144Z" stroke="url(#paint24_linear_117_1816)" stroke-width="6" mask="url(#path-9-outside-4_117_1816)"/>
<path d="M82.7357 86.96L78.8958 87.408V105.424L69.8077 106.544L70.2878 88.272L66.0638 88.688L66.2878 80.816L83.5677 79.344L82.7357 86.96Z" stroke="url(#paint25_linear_117_1816)" stroke-width="6" mask="url(#path-9-outside-4_117_1816)"/>
<path d="M102.623 80.72C102.751 83.984 102.837 86.608 102.879 88.592C102.943 90.576 102.986 92.1014 103.007 93.168C103.029 94.2347 103.039 94.9387 103.039 95.28C103.039 95.6214 103.039 95.792 103.039 95.792C103.061 97.0934 102.965 98.3414 102.751 99.536C102.538 100.731 102.143 101.819 101.567 102.8C101.013 103.76 100.245 104.592 99.2633 105.296C98.3033 105.979 97.0979 106.459 95.6472 106.736C93.4286 107.163 91.5193 107.205 89.9193 106.864C88.3193 106.523 86.9966 105.883 85.9512 104.944C84.9272 104.005 84.1806 102.821 83.7113 101.392C83.2419 99.9414 83.0286 98.352 83.0713 96.624C83.0713 96.6027 83.0713 96.496 83.0713 96.304C83.0713 96.0907 83.0819 95.6427 83.1032 94.96C83.1246 94.2774 83.1459 93.3174 83.1673 92.08C83.1886 90.8427 83.2312 89.1894 83.2952 87.12C83.3592 85.0507 83.4339 82.5334 83.5192 79.568L92.6712 81.168L91.8392 96.208C91.7539 96.7627 91.7539 97.2534 91.8392 97.68C91.9459 98.1067 92.0526 98.416 92.1592 98.608C92.2659 98.8 92.3299 98.9067 92.3512 98.928C92.5646 99.1627 92.8099 99.3014 93.0872 99.344C93.3646 99.3867 93.6739 99.1307 94.0153 98.576C94.0366 98.5547 94.1006 98.4267 94.2073 98.192C94.3139 97.936 94.4206 97.4987 94.5273 96.88C94.6339 96.2614 94.6659 95.504 94.6233 94.608L93.9512 82.32L102.623 80.72Z" stroke="url(#paint26_linear_117_1816)" stroke-width="6" mask="url(#path-9-outside-4_117_1816)"/>
<path d="M105.073 79.92L117.297 90.064L117.585 79.472L127.121 80.112L125.649 104.528L113.393 98.416L113.841 105.968L104.657 106.544L105.073 79.92Z" stroke="url(#paint27_linear_117_1816)" stroke-width="6" mask="url(#path-9-outside-4_117_1816)"/>
<path d="M128.936 81.232L146.6 79.92L145.608 88.016L137.576 88.368L137.544 89.904L143.368 89.488L142.696 95.088L137.352 95.504L137.288 97.264L146.44 96.4L146.28 105.232L129.16 106.16L128.936 81.232Z" stroke="url(#paint28_linear_117_1816)" stroke-width="6" mask="url(#path-9-outside-4_117_1816)"/>
</g>
<defs>
<filter id="filter0_di_117_1816" x="59.7852" y="0" width="42.5977" height="63.2427" filterUnits="userSpaceOnUse" color-interpolation-filters="sRGB">
<feFlood flood-opacity="0" result="BackgroundImageFix"/>
<feColorMatrix in="SourceAlpha" type="matrix" values="0 0 0 0 0 0 0 0 0 0 0 0 0 0 0 0 0 0 127 0" result="hardAlpha"/>
<feOffset dy="3"/>
<feComposite in2="hardAlpha" operator="out"/>
<feColorMatrix type="matrix" values="0 0 0 0 0.141176 0 0 0 0 0.0823529 0 0 0 0 0.027451 0 0 0 1 0"/>
<feBlend mode="normal" in2="BackgroundImageFix" result="effect1_dropShadow_117_1816"/>
<feBlend mode="normal" in="SourceGraphic" in2="effect1_dropShadow_117_1816" result="shape"/>
<feColorMatrix in="SourceAlpha" type="matrix" values="0 0 0 0 0 0 0 0 0 0 0 0 0 0 0 0 0 0 127 0" result="hardAlpha"/>
<feOffset dy="4"/>
<feGaussianBlur stdDeviation="0.5"/>
<feComposite in2="hardAlpha" operator="arithmetic" k2="-1" k3="1"/>
<feColorMatrix type="matrix" values="0 0 0 0 1 0 0 0 0 1 0 0 0 0 1 0 0 0 1 0"/>
<feBlend mode="normal" in2="shape" result="effect2_innerShadow_117_1816"/>
</filter>
<filter id="filter1_di_117_1816" x="23.1875" y="0" width="42.5977" height="63.2427" filterUnits="userSpaceOnUse" color-interpolation-filters="sRGB">
<feFlood flood-opacity="0" result="BackgroundImageFix"/>
<feColorMatrix in="SourceAlpha" type="matrix" values="0 0 0 0 0 0 0 0 0 0 0 0 0 0 0 0 0 0 127 0" result="hardAlpha"/>
<feOffset dy="3"/>
<feComposite in2="hardAlpha" operator="out"/>
<feColorMatrix type="matrix" values="0 0 0 0 0.141176 0 0 0 0 0.0823529 0 0 0 0 0.027451 0 0 0 1 0"/>
<feBlend mode="normal" in2="BackgroundImageFix" result="effect1_dropShadow_117_1816"/>
<feBlend mode="normal" in="SourceGraphic" in2="effect1_dropShadow_117_1816" result="shape"/>
<feColorMatrix in="SourceAlpha" type="matrix" values="0 0 0 0 0 0 0 0 0 0 0 0 0 0 0 0 0 0 127 0" result="hardAlpha"/>
<feOffset dy="4"/>
<feGaussianBlur stdDeviation="0.5"/>
<feComposite in2="hardAlpha" operator="arithmetic" k2="-1" k3="1"/>
<feColorMatrix type="matrix" values="0 0 0 0 1 0 0 0 0 1 0 0 0 0 1 0 0 0 1 0"/>
<feBlend mode="normal" in2="shape" result="effect2_innerShadow_117_1816"/>
</filter>
<filter id="filter2_di_117_1816" x="55.543" y="13.402" width="60.2422" height="45.598" filterUnits="userSpaceOnUse" color-interpolation-filters="sRGB">
<feFlood flood-opacity="0" result="BackgroundImageFix"/>
<feColorMatrix in="SourceAlpha" type="matrix" values="0 0 0 0 0 0 0 0 0 0 0 0 0 0 0 0 0 0 127 0" result="hardAlpha"/>
<feOffset dy="3"/>
<feComposite in2="hardAlpha" operator="out"/>
<feColorMatrix type="matrix" values="0 0 0 0 0.141176 0 0 0 0 0.0823529 0 0 0 0 0.027451 0 0 0 1 0"/>
<feBlend mode="normal" in2="BackgroundImageFix" result="effect1_dropShadow_117_1816"/>
<feBlend mode="normal" in="SourceGraphic" in2="effect1_dropShadow_117_1816" result="shape"/>
<feColorMatrix in="SourceAlpha" type="matrix" values="0 0 0 0 0 0 0 0 0 0 0 0 0 0 0 0 0 0 127 0" result="hardAlpha"/>
<feOffset dy="4"/>
<feGaussianBlur stdDeviation="0.5"/>
<feComposite in2="hardAlpha" operator="arithmetic" k2="-1" k3="1"/>
<feColorMatrix type="matrix" values="0 0 0 0 1 0 0 0 0 1 0 0 0 0 1 0 0 0 1 0"/>
<feBlend mode="normal" in2="shape" result="effect2_innerShadow_117_1816"/>
</filter>
<filter id="filter3_di_117_1816" x="5.93066" y="42.5858" width="119.058" height="44.8112" filterUnits="userSpaceOnUse" color-interpolation-filters="sRGB">
<feFlood flood-opacity="0" result="BackgroundImageFix"/>
<feColorMatrix in="SourceAlpha" type="matrix" values="0 0 0 0 0 0 0 0 0 0 0 0 0 0 0 0 0 0 127 0" result="hardAlpha"/>
<feOffset dy="3"/>
<feComposite in2="hardAlpha" operator="out"/>
<feColorMatrix type="matrix" values="0 0 0 0 0.141176 0 0 0 0 0.0823529 0 0 0 0 0.027451 0 0 0 1 0"/>
<feBlend mode="normal" in2="BackgroundImageFix" result="effect1_dropShadow_117_1816"/>
<feBlend mode="normal" in="SourceGraphic" in2="effect1_dropShadow_117_1816" result="shape"/>
<feColorMatrix in="SourceAlpha" type="matrix" values="0 0 0 0 0 0 0 0 0 0 0 0 0 0 0 0 0 0 127 0" result="hardAlpha"/>
<feOffset dy="4"/>
<feGaussianBlur stdDeviation="0.5"/>
<feComposite in2="hardAlpha" operator="arithmetic" k2="-1" k3="1"/>
<feColorMatrix type="matrix" values="0 0 0 0 1 0 0 0 0 1 0 0 0 0 1 0 0 0 1 0"/>
<feBlend mode="normal" in2="shape" result="effect2_innerShadow_117_1816"/>
</filter>
<filter id="filter4_di_117_1816" x="121.391" y="60.5273" width="28.4863" height="23.0337" filterUnits="userSpaceOnUse" color-interpolation-filters="sRGB">
<feFlood flood-opacity="0" result="BackgroundImageFix"/>
<feColorMatrix in="SourceAlpha" type="matrix" values="0 0 0 0 0 0 0 0 0 0 0 0 0 0 0 0 0 0 127 0" result="hardAlpha"/>
<feOffset dy="3"/>
<feComposite in2="hardAlpha" operator="out"/>
<feColorMatrix type="matrix" values="0 0 0 0 0.141176 0 0 0 0 0.0823529 0 0 0 0 0.027451 0 0 0 1 0"/>
<feBlend mode="normal" in2="BackgroundImageFix" result="effect1_dropShadow_117_1816"/>
<feBlend mode="normal" in="SourceGraphic" in2="effect1_dropShadow_117_1816" result="shape"/>
<feColorMatrix in="SourceAlpha" type="matrix" values="0 0 0 0 0 0 0 0 0 0 0 0 0 0 0 0 0 0 127 0" result="hardAlpha"/>
<feOffset dy="4"/>
<feGaussianBlur stdDeviation="0.5"/>
<feComposite in2="hardAlpha" operator="arithmetic" k2="-1" k3="1"/>
<feColorMatrix type="matrix" values="0 0 0 0 1 0 0 0 0 1 0 0 0 0 1 0 0 0 1 0"/>
<feBlend mode="normal" in2="shape" result="effect2_innerShadow_117_1816"/>
</filter>
<filter id="filter5_di_117_1816" x="0.974609" y="73.6135" width="149.048" height="40.4519" filterUnits="userSpaceOnUse" color-interpolation-filters="sRGB">
<feFlood flood-opacity="0" result="BackgroundImageFix"/>
<feColorMatrix in="SourceAlpha" type="matrix" values="0 0 0 0 0 0 0 0 0 0 0 0 0 0 0 0 0 0 127 0" result="hardAlpha"/>
<feOffset dy="3"/>
<feComposite in2="hardAlpha" operator="out"/>
<feColorMatrix type="matrix" values="0 0 0 0 0.141176 0 0 0 0 0.0823529 0 0 0 0 0.027451 0 0 0 1 0"/>
<feBlend mode="normal" in2="BackgroundImageFix" result="effect1_dropShadow_117_1816"/>
<feBlend mode="normal" in="SourceGraphic" in2="effect1_dropShadow_117_1816" result="shape"/>
<feColorMatrix in="SourceAlpha" type="matrix" values="0 0 0 0 0 0 0 0 0 0 0 0 0 0 0 0 0 0 127 0" result="hardAlpha"/>
<feOffset dy="4"/>
<feGaussianBlur stdDeviation="0.5"/>
<feComposite in2="hardAlpha" operator="arithmetic" k2="-1" k3="1"/>
<feColorMatrix type="matrix" values="0 0 0 0 1 0 0 0 0 1 0 0 0 0 1 0 0 0 1 0"/>
<feBlend mode="normal" in2="shape" result="effect2_innerShadow_117_1816"/>
</filter>
<linearGradient id="paint0_linear_117_1816" x1="62.761" y1="1.73552" x2="63.0773" y2="102.999" gradientUnits="userSpaceOnUse">
<stop stop-color="#D8FF3C"/>
<stop offset="0.9999" stop-color="#FF6B00"/>
<stop offset="1" stop-color="#FF1313"/>
</linearGradient>
<linearGradient id="paint1_linear_117_1816" x1="62.7852" y1="3" x2="62.7852" y2="103" gradientUnits="userSpaceOnUse">
<stop stop-color="#46311E"/>
<stop offset="1" stop-color="#482200"/>
</linearGradient>
<linearGradient id="paint2_linear_117_1816" x1="62.761" y1="1.73552" x2="63.0773" y2="102.999" gradientUnits="userSpaceOnUse">
<stop stop-color="#FFD43C"/>
<stop offset="0.9999" stop-color="#FF6B00"/>
<stop offset="1" stop-color="#FF1313"/>
</linearGradient>
<linearGradient id="paint3_linear_117_1816" x1="62.7852" y1="3" x2="62.7852" y2="103" gradientUnits="userSpaceOnUse">
<stop stop-color="#46311E"/>
<stop offset="1" stop-color="#482200"/>
</linearGradient>
<linearGradient id="paint4_linear_117_1816" x1="62.761" y1="1.73552" x2="63.0773" y2="102.999" gradientUnits="userSpaceOnUse">
<stop stop-color="#FF3CD4"/>
<stop offset="0.9999" stop-color="#FF6B00"/>
<stop offset="1" stop-color="#FF1313"/>
</linearGradient>
<linearGradient id="paint5_linear_117_1816" x1="62.7852" y1="3" x2="62.7852" y2="103" gradientUnits="userSpaceOnUse">
<stop stop-color="#46311E"/>
<stop offset="1" stop-color="#482200"/>
</linearGradient>
<linearGradient id="paint6_linear_117_1816" x1="65.7852" y1="47" x2="65.8123" y2="78.4001" gradientUnits="userSpaceOnUse">
<stop stop-color="#FFD43C"/>
<stop offset="0.9999" stop-color="#FF6B00"/>
<stop offset="1" stop-color="#FF1313"/>
</linearGradient>
<linearGradient id="paint7_linear_117_1816" x1="65.7852" y1="47" x2="65.8123" y2="78.4001" gradientUnits="userSpaceOnUse">
<stop stop-color="#FFD43C"/>
<stop offset="0.9999" stop-color="#FF6B00"/>
<stop offset="1" stop-color="#FF1313"/>
</linearGradient>
<linearGradient id="paint8_linear_117_1816" x1="65.7852" y1="47" x2="65.8123" y2="78.4001" gradientUnits="userSpaceOnUse">
<stop stop-color="#FFD43C"/>
<stop offset="0.9999" stop-color="#FF6B00"/>
<stop offset="1" stop-color="#FF1313"/>
</linearGradient>
<linearGradient id="paint9_linear_117_1816" x1="65.7852" y1="47" x2="65.8123" y2="78.4001" gradientUnits="userSpaceOnUse">
<stop stop-color="#FFD43C"/>
<stop offset="0.9999" stop-color="#FF6B00"/>
<stop offset="1" stop-color="#FF1313"/>
</linearGradient>
<linearGradient id="paint10_linear_117_1816" x1="65.7852" y1="47" x2="65.8123" y2="78.4001" gradientUnits="userSpaceOnUse">
<stop stop-color="#FFD43C"/>
<stop offset="0.9999" stop-color="#FF6B00"/>
<stop offset="1" stop-color="#FF1313"/>
</linearGradient>
<linearGradient id="paint11_linear_117_1816" x1="65.8123" y1="47.3921" x2="65.8123" y2="78.4001" gradientUnits="userSpaceOnUse">
<stop stop-color="#46311E"/>
<stop offset="1" stop-color="#482200"/>
</linearGradient>
<linearGradient id="paint12_linear_117_1816" x1="135.424" y1="63.3499" x2="135.452" y2="77.561" gradientUnits="userSpaceOnUse">
<stop stop-color="#FFD43C"/>
<stop offset="0.9999" stop-color="#FF6B00"/>
<stop offset="1" stop-color="#FF1313"/>
</linearGradient>
<linearGradient id="paint13_linear_117_1816" x1="135.424" y1="63.3499" x2="135.452" y2="77.561" gradientUnits="userSpaceOnUse">
<stop stop-color="#FFD43C"/>
<stop offset="0.9999" stop-color="#FF6B00"/>
<stop offset="1" stop-color="#FF1313"/>
</linearGradient>
<linearGradient id="paint14_linear_117_1816" x1="135.429" y1="63.5273" x2="135.429" y2="77.5611" gradientUnits="userSpaceOnUse">
<stop stop-color="#46311E"/>
<stop offset="1" stop-color="#482200"/>
</linearGradient>
<linearGradient id="paint15_linear_117_1816" x1="75.2655" y1="78.6998" x2="75.283" y2="107.122" gradientUnits="userSpaceOnUse">
<stop stop-color="#FFD43C"/>
<stop offset="0.9999" stop-color="#FF6B00"/>
<stop offset="1" stop-color="#FF1313"/>
</linearGradient>
<linearGradient id="paint16_linear_117_1816" x1="75.2655" y1="78.6998" x2="75.283" y2="107.122" gradientUnits="userSpaceOnUse">
<stop stop-color="#FFD43C"/>
<stop offset="0.9999" stop-color="#FF6B00"/>
<stop offset="1" stop-color="#FF1313"/>
</linearGradient>
<linearGradient id="paint17_linear_117_1816" x1="75.2655" y1="78.6998" x2="75.283" y2="107.122" gradientUnits="userSpaceOnUse">
<stop stop-color="#FFD43C"/>
<stop offset="0.9999" stop-color="#FF6B00"/>
<stop offset="1" stop-color="#FF1313"/>
</linearGradient>
<linearGradient id="paint18_linear_117_1816" x1="75.2655" y1="78.6998" x2="75.283" y2="107.122" gradientUnits="userSpaceOnUse">
<stop stop-color="#FFD43C"/>
<stop offset="0.9999" stop-color="#FF6B00"/>
<stop offset="1" stop-color="#FF1313"/>
</linearGradient>
<linearGradient id="paint19_linear_117_1816" x1="75.2655" y1="78.6998" x2="75.283" y2="107.122" gradientUnits="userSpaceOnUse">
<stop stop-color="#FFD43C"/>
<stop offset="0.9999" stop-color="#FF6B00"/>
<stop offset="1" stop-color="#FF1313"/>
</linearGradient>
<linearGradient id="paint20_linear_117_1816" x1="75.2655" y1="78.6998" x2="75.283" y2="107.122" gradientUnits="userSpaceOnUse">
<stop stop-color="#FFD43C"/>
<stop offset="0.9999" stop-color="#FF6B00"/>
<stop offset="1" stop-color="#FF1313"/>
</linearGradient>
<linearGradient id="paint21_linear_117_1816" x1="75.2655" y1="78.6998" x2="75.283" y2="107.122" gradientUnits="userSpaceOnUse">
<stop stop-color="#FFD43C"/>
<stop offset="0.9999" stop-color="#FF6B00"/>
<stop offset="1" stop-color="#FF1313"/>
</linearGradient>
<linearGradient id="paint22_linear_117_1816" x1="75.3" y1="79.0547" x2="75.3" y2="107.122" gradientUnits="userSpaceOnUse">
<stop stop-color="#46311E"/>
<stop offset="1" stop-color="#482200"/>
</linearGradient>
<linearGradient id="paint23_linear_117_1816" x1="75.3" y1="79.0547" x2="75.3" y2="107.122" gradientUnits="userSpaceOnUse">
<stop stop-color="#46311E"/>
<stop offset="1" stop-color="#482200"/>
</linearGradient>
<linearGradient id="paint24_linear_117_1816" x1="75.3" y1="79.0547" x2="75.3" y2="107.122" gradientUnits="userSpaceOnUse">
<stop stop-color="#46311E"/>
<stop offset="1" stop-color="#482200"/>
</linearGradient>
<linearGradient id="paint25_linear_117_1816" x1="75.3" y1="79.0547" x2="75.3" y2="107.122" gradientUnits="userSpaceOnUse">
<stop stop-color="#46311E"/>
<stop offset="1" stop-color="#482200"/>
</linearGradient>
<linearGradient id="paint26_linear_117_1816" x1="75.3" y1="79.0547" x2="75.3" y2="107.122" gradientUnits="userSpaceOnUse">
<stop stop-color="#46311E"/>
<stop offset="1" stop-color="#482200"/>
</linearGradient>
<linearGradient id="paint27_linear_117_1816" x1="75.3" y1="79.0547" x2="75.3" y2="107.122" gradientUnits="userSpaceOnUse">
<stop stop-color="#46311E"/>
<stop offset="1" stop-color="#482200"/>
</linearGradient>
<linearGradient id="paint28_linear_117_1816" x1="75.3" y1="79.0547" x2="75.3" y2="107.122" gradientUnits="userSpaceOnUse">
<stop stop-color="#46311E"/>
<stop offset="1" stop-color="#482200"/>
</linearGradient>
</defs>
</svg>
