<svg width="75" height="26" viewBox="0 0 75 26" fill="none" xmlns="http://www.w3.org/2000/svg">
<path d="M13 26C20.1797 26 26 20.1797 26 13C26 5.8203 20.1797 0 13 0C5.8203 0 0 5.8203 0 13C0 20.1797 5.8203 26 13 26Z" fill="white"/>
<path d="M22.0318 6.08404C20.2888 4.3809 17.9045 3.33125 15.275 3.33125C9.93509 3.33125 5.60625 7.6601 5.60625 13C5.60625 18.3399 9.93509 22.6687 15.275 22.6687C17.9045 22.6687 20.2888 21.6191 22.0318 19.9159C19.9527 22.627 16.6805 24.375 13 24.375C6.71776 24.375 1.625 19.2822 1.625 13C1.625 6.71776 6.71776 1.625 13 1.625C16.6805 1.625 19.9527 3.37297 22.0318 6.08404Z" fill="url(#paint0_linear_552_4686)"/>
<path d="M8.04688 18.5332C9.44125 19.8957 11.3488 20.7354 13.4523 20.7354C17.7242 20.7354 21.1873 17.2723 21.1873 13.0004C21.1873 8.72843 17.7243 5.26539 13.4523 5.26539C11.3488 5.26539 9.44125 6.10511 8.04688 7.46762C9.71018 5.29877 12.3279 3.90039 15.2723 3.90039C20.2981 3.90039 24.3723 7.9746 24.3723 13.0004C24.3723 18.0262 20.2981 22.1004 15.2723 22.1004C12.3279 22.1004 9.71018 20.702 8.04688 18.5332Z" fill="url(#paint1_linear_552_4686)"/>
<path fill-rule="evenodd" clip-rule="evenodd" d="M19.8297 12.9998C19.8297 16.7692 16.774 19.8248 13.0047 19.8248C9.23534 19.8248 6.17969 16.7692 6.17969 12.9998C6.17969 9.23045 9.23534 6.1748 13.0047 6.1748C16.774 6.1748 19.8297 9.23045 19.8297 12.9998ZM17.5547 12.9998C17.5547 15.5127 15.5176 17.5498 13.0047 17.5498C10.4918 17.5498 8.45469 15.5127 8.45469 12.9998C8.45469 10.4869 10.4918 8.4498 13.0047 8.4498C15.5176 8.4498 17.5547 10.4869 17.5547 12.9998Z" fill="url(#paint2_linear_552_4686)"/>
<path d="M30.0625 19.0238L32.511 13.1373L30.0625 7.08008H33.1252L35.0021 12.105H35.258L37.169 7.08008H40.2318L37.7577 13.1373L40.2318 19.0238H37.169L35.258 14.1354H35.0106L33.1252 19.0238H30.0625Z" fill="white"/>
<path d="M42.3041 19.0237V17.0188C42.4747 16.8937 42.7022 16.7231 42.9866 16.507C43.2709 16.2908 43.5894 16.0406 43.9421 15.7562C44.2947 15.4661 44.6558 15.1562 45.0255 14.8263C45.4009 14.4964 45.7621 14.1523 46.109 13.794C46.4616 13.43 46.7773 13.0717 47.056 12.7191C47.3347 12.3608 47.5565 12.011 47.7214 11.6697C47.8863 11.3285 47.9688 11.01 47.9688 10.7142C47.9688 10.4299 47.9347 10.1853 47.8664 9.98056C47.7982 9.77581 47.6987 9.61087 47.5678 9.48574C47.4427 9.35493 47.292 9.25824 47.1157 9.19568C46.9451 9.13312 46.7517 9.10184 46.5356 9.10184C46.1943 9.10184 45.8929 9.20421 45.6313 9.40896C45.3753 9.61371 45.162 9.86681 44.9914 10.1682C44.8265 10.464 44.7099 10.7569 44.6416 11.047L42.2188 10.0061C42.3723 9.38052 42.6595 8.84021 43.0804 8.38521C43.5013 7.93019 44.0103 7.58326 44.6075 7.34438C45.2104 7.09981 45.8559 6.97754 46.5441 6.97754C47.1583 6.97754 47.7271 7.04294 48.2503 7.17375C48.7736 7.29887 49.2286 7.50647 49.6153 7.79653C50.0078 8.08091 50.3121 8.45915 50.5282 8.93121C50.75 9.40327 50.8609 9.98909 50.8609 10.6886C50.8609 11.1209 50.7585 11.5674 50.5538 12.0281C50.349 12.4831 50.0789 12.9352 49.7433 13.3845C49.4134 13.8281 49.0551 14.2519 48.6684 14.6557C48.2873 15.0538 47.9119 15.4178 47.5423 15.7477C47.1726 16.0719 46.8455 16.342 46.5612 16.5581C46.2825 16.7686 46.0862 16.9108 45.9725 16.9847H50.7159V19.0237H42.3041Z" fill="white"/>
<path d="M57.0625 19.0238V15.1763L53.5391 7.08008H56.4312L58.4616 12.5998L60.492 7.08008H63.3841L59.8778 15.1763V19.0238H57.0625Z" fill="white"/>
<path d="M65.6322 19.0237V17.0188C65.8028 16.8937 66.0303 16.7231 66.3147 16.507C66.5991 16.2908 66.9176 16.0406 67.2702 15.7562C67.6228 15.4661 67.984 15.1562 68.3537 14.8263C68.729 14.4964 69.0902 14.1523 69.4371 13.794C69.7897 13.43 70.1054 13.0717 70.3841 12.7191C70.6628 12.3608 70.8846 12.011 71.0495 11.6697C71.2145 11.3285 71.2969 11.01 71.2969 10.7142C71.2969 10.4299 71.2628 10.1853 71.1946 9.98056C71.1263 9.77581 71.0268 9.61087 70.896 9.48574C70.7708 9.35493 70.6201 9.25824 70.4438 9.19568C70.2732 9.13312 70.0798 9.10184 69.8637 9.10184C69.5224 9.10184 69.221 9.20421 68.9594 9.40896C68.7034 9.61371 68.4902 9.86681 68.3195 10.1682C68.1546 10.464 68.038 10.7569 67.9697 11.047L65.5469 10.0061C65.7004 9.38052 65.9877 8.84021 66.4085 8.38521C66.8294 7.93019 67.3384 7.58326 67.9356 7.34438C68.5385 7.09981 69.184 6.97754 69.8722 6.97754C70.4865 6.97754 71.0552 7.04294 71.5785 7.17375C72.1017 7.29887 72.5567 7.50647 72.9435 7.79653C73.3359 8.08091 73.6402 8.45915 73.8563 8.93121C74.0781 9.40327 74.189 9.98909 74.189 10.6886C74.189 11.1209 74.0867 11.5674 73.8819 12.0281C73.6772 12.4831 73.407 12.9352 73.0714 13.3845C72.7416 13.8281 72.3832 14.2519 71.9965 14.6557C71.6154 15.0538 71.2401 15.4178 70.8704 15.7477C70.5007 16.0719 70.1737 16.342 69.8893 16.5581C69.6106 16.7686 69.4144 16.9108 69.3006 16.9847H74.044V19.0237H65.6322Z" fill="white"/>
<defs>
<linearGradient id="paint0_linear_552_4686" x1="1.625" y1="12.6077" x2="24.375" y2="12.6077" gradientUnits="userSpaceOnUse">
<stop stop-color="#00E0FF"/>
<stop offset="1" stop-color="#562EC8"/>
</linearGradient>
<linearGradient id="paint1_linear_552_4686" x1="1.62231" y1="12.6081" x2="24.3723" y2="12.6081" gradientUnits="userSpaceOnUse">
<stop stop-color="#00E0FF"/>
<stop offset="1" stop-color="#562EC8"/>
</linearGradient>
<linearGradient id="paint2_linear_552_4686" x1="1.62969" y1="12.6075" x2="24.3797" y2="12.6075" gradientUnits="userSpaceOnUse">
<stop stop-color="#00E0FF"/>
<stop offset="1" stop-color="#562EC8"/>
</linearGradient>
</defs>
</svg>
