<svg width="16" height="16" viewBox="0 0 16 16" fill="none" xmlns="http://www.w3.org/2000/svg">
<g clip-path="url(#clip0_865_5595)">
<path d="M14.8173 7.90864C14.8173 11.7242 11.7242 10.6433 7.90864 10.6433C4.0931 10.6433 1 11.7242 1 7.90864C1 4.0931 4.0931 1 7.90864 1C11.7242 1 14.8173 4.0931 14.8173 7.90864Z" fill="url(#paint0_linear_865_5595)"/>
<path fill-rule="evenodd" clip-rule="evenodd" d="M13.7507 9.52498C13.9667 9.25606 14.1456 8.78338 14.1456 7.90864C14.1456 4.46406 11.3532 1.67167 7.90864 1.67167C4.46406 1.67167 1.67167 4.46406 1.67167 7.90864C1.67167 8.78338 1.85056 9.25606 2.06657 9.52498C2.27491 9.78435 2.59982 9.95595 3.13307 10.0441C3.67839 10.1343 4.35613 10.1236 5.18563 10.0818C5.3699 10.0725 5.56117 10.0617 5.75827 10.0505C6.4236 10.013 7.15535 9.97163 7.90864 9.97163C8.66192 9.97163 9.39368 10.013 10.059 10.0505C10.2561 10.0617 10.4474 10.0725 10.6316 10.0818C11.4611 10.1236 12.1389 10.1343 12.6842 10.0441C13.2175 9.95595 13.5424 9.78435 13.7507 9.52498ZM10.0091 10.7205C12.7976 10.8778 14.8173 10.9918 14.8173 7.90864C14.8173 4.0931 11.7242 1 7.90864 1C4.0931 1 1 4.0931 1 7.90864C1 10.9918 3.01965 10.8778 5.80814 10.7205C6.47051 10.6831 7.17627 10.6433 7.90864 10.6433C8.64101 10.6433 9.34676 10.6831 10.0091 10.7205Z" fill="#141414"/>
<path d="M12.3233 9.82737C12.3233 12.2121 10.3901 12.9938 8.0054 12.9938C5.62069 12.9938 3.6875 12.2121 3.6875 9.82737C3.6875 7.44266 5.62069 6.37305 8.0054 6.37305C10.3901 6.37305 12.3233 7.44266 12.3233 9.82737Z" fill="url(#paint1_linear_865_5595)"/>
<path fill-rule="evenodd" clip-rule="evenodd" d="M11.5885 13.1554C10.5727 13.797 9.26897 14.0001 7.99728 14.0001C6.72559 14.0001 5.4219 13.797 4.40605 13.1554C3.3161 12.467 2.67188 11.3444 2.67188 9.82609C2.67188 8.3216 3.30138 7.14981 4.35339 6.38847C5.36228 5.65833 6.67377 5.36426 7.99728 5.36426C9.3208 5.36426 10.6323 5.65833 11.6412 6.38847C12.6932 7.14981 13.3227 8.3216 13.3227 9.82609C13.3227 11.3444 12.6785 12.467 11.5885 13.1554ZM7.99728 12.9925C10.382 12.9925 12.3152 12.2108 12.3152 9.82609C12.3152 7.44138 10.382 6.37177 7.99728 6.37177C5.61257 6.37177 3.67938 7.44138 3.67938 9.82609C3.67938 12.2108 5.61257 12.9925 7.99728 12.9925Z" fill="#141414"/>
<path d="M7.03966 9.92413C7.03966 10.4011 6.65302 10.7877 6.17608 10.7877C5.69914 10.7877 5.3125 10.4011 5.3125 9.92413C5.3125 9.44718 5.69914 9.06055 6.17608 9.06055C6.65302 9.06055 7.03966 9.44718 7.03966 9.92413Z" fill="#141414"/>
<path d="M10.2037 9.92413C10.2037 10.4011 9.81708 10.7877 9.34014 10.7877C8.8632 10.7877 8.47656 10.4011 8.47656 9.92413C8.47656 9.44718 8.8632 9.06055 9.34014 9.06055C9.81708 9.06055 10.2037 9.44718 10.2037 9.92413Z" fill="#141414"/>
</g>
<defs>
<linearGradient id="paint0_linear_865_5595" x1="7.90864" y1="1" x2="7.90864" y2="10.7847" gradientUnits="userSpaceOnUse">
<stop stop-color="white"/>
<stop offset="1" stop-color="#6D6D6D"/>
</linearGradient>
<linearGradient id="paint1_linear_865_5595" x1="8.0054" y1="6.37305" x2="8.0054" y2="12.9938" gradientUnits="userSpaceOnUse">
<stop stop-color="white"/>
<stop offset="1" stop-color="#6D6D6D"/>
</linearGradient>
<clipPath id="clip0_865_5595">
<rect width="16" height="16" rx="2" fill="white"/>
</clipPath>
</defs>
</svg>
